<svg xmlns="http://www.w3.org/2000/svg" width="53.285" height="53.285" viewBox="0 0 53.285 53.285"><defs><style>.a{fill:#fff;}.b{fill:#fea356;}.c{fill:#193651;}.d{fill:#fc585f;}</style></defs><rect class="a" width="52" height="42" transform="translate(1 10.899)"/><rect class="b" width="44" height="34" transform="translate(5 13.899)"/><rect class="a" width="52" height="10" transform="translate(1 0.899)"/><g transform="translate(5.245 4.413)"><circle class="c" cx="1.415" cy="1.415" r="1.415"/><circle class="c" cx="1.415" cy="1.415" r="1.415" transform="translate(5.329)"/><circle class="c" cx="1.415" cy="1.415" r="1.415" transform="translate(10.74)"/></g><g transform="translate(7.493 23.729)"><rect class="d" width="11.49" height="8.992" transform="translate(24.977)"/><rect class="a" width="38.382" height="7.66" transform="translate(0 13.072)"/></g><rect class="c" width="1.665" height="1.665" transform="translate(10.824 39.881)"/><rect class="c" width="1.665" height="1.665" transform="translate(15.569 39.881)"/><rect class="c" width="1.665" height="1.665" transform="translate(20.315 39.881)"/><rect class="c" width="1.665" height="1.665" transform="translate(25.061 39.881)"/><rect class="c" width="1.665" height="1.665" transform="translate(29.806 39.881)"/><path class="c" d="M0,0V53.285H53.285V0ZM51.62,51.62H1.665V11.656H51.62ZM1.665,9.991V1.665H51.62V9.991Z"/><path class="c" d="M318.422,165.061H316.84v-1.832a4.829,4.829,0,1,0-9.658,0v1.832H305.6v10.158h12.739V165.061Zm-9.991-1.832a3.58,3.58,0,1,1,7.16,0v1.832h-7.16Zm8.742,10.74H306.932v-7.743h10.241Z" transform="translate(-273.795 -141.915)"/><path class="c" d="M355.233,253.7v1.582h1.082V253.7a1.41,1.41,0,0,0,.749-1.166,1.332,1.332,0,0,0-2.664,0A1.252,1.252,0,0,0,355.233,253.7Z" transform="translate(-317.517 -225.057)"/><g transform="translate(7.493 20.398)"><path class="a" d="M77.745,271.2A5.775,5.775,0,0,0,72,277.028H83.49A5.775,5.775,0,0,0,77.745,271.2Z" transform="translate(-72 -263.374)"/><circle class="a" cx="3.164" cy="3.164" r="3.164" transform="translate(2.581)"/></g></svg>