<svg xmlns="http://www.w3.org/2000/svg" width="64.536" height="64.441" viewBox="0 0 64.536 64.441"><defs><style>.a{fill:#fff;}.b{fill:#193651;}.c{fill:#fc585f;}.d{fill:#fea356;}</style></defs><g transform="translate(0 -0.29)"><g transform="translate(1 1.301)"><path class="a" d="M29.2,79.136c0-4.938-5.138-8.855-11.477-8.961-6.339,0-11.583,3.928-11.583,8.866S11.279,87.9,17.618,88v4.833l5.033-5.644C26.484,85.674,29.2,82.653,29.2,79.136Z" transform="translate(-6.141 -59.803)"/><path class="a" d="M150.413,15.459c0-4.938-5.138-8.961-11.477-8.961s-11.583,3.928-11.583,8.761c0,4.938,5.138,8.866,11.477,8.961v4.833l5.033-5.644C147.686,22,150.308,18.976,150.413,15.459Z" transform="translate(-107.61 -6.498)"/><path class="a" d="M270.914,68.589c0-4.938-5.138-8.866-11.477-8.961s-11.583,3.928-11.583,8.761c0,4.938,5.138,8.855,11.477,8.961v4.833l5.033-5.644C268.2,75.139,270.914,72.117,270.914,68.589Z" transform="translate(-208.484 -50.973)"/></g><g transform="translate(0 0.29)"><path class="b" d="M60.714,11.873a14.251,14.251,0,0,0-8.761-2.822h-.105A14.473,14.473,0,0,0,44.8,10.768C44.309.09,32.326.291,32.326.291c-6.444,0-12.288,3.728-12.583,9.771a11.087,11.087,0,0,0,.4,2.622c-3.117-2.011-7.655-2.011-7.655-2.011C5.633,10.757,0,15.1,0,20.528a8.73,8.73,0,0,0,3.728,7.044,14.466,14.466,0,0,0,7.75,2.822v6.549l6.644-7.455c4.233-1.611,7.044-5.033,7.044-8.761a7.537,7.537,0,0,0-.505-2.622A15.624,15.624,0,0,0,31.1,20.118v6.549l6.644-7.455c.6-.2,1.106-.505,1.611-.705-.6.6,1.011,10.266,11.477,10.372v6.549l6.655-7.444c4.233-1.611,7.044-5.033,7.044-8.761A9.213,9.213,0,0,0,60.714,11.873Zm-43.8,15.91-3.422,3.822V28.489a13.645,13.645,0,0,1-8.561-2.411,7.266,7.266,0,0,1-2.917-5.539c0-4.328,4.728-7.75,10.572-7.75S23.06,16.4,23.06,20.729C22.449,26.172,16.911,27.783,16.911,27.783ZM36.548,17.306l-3.422,3.822V18.012c-.105.4-6.644-.305-8.561-2.411-1.611-1.811-2.917-3.422-2.917-5.433,0-4.328,4.728-7.75,10.572-7.75S42.7,6.04,42.7,10.367C42.487,13.884,40.076,16,36.548,17.306Zm19.732,8.655-3.422,3.833V26.678s-10.572.6-11.477-7.95c.6-5.433,5.739-7.655,10.572-7.75,6.044.105,10.172,3.527,10.477,7.95C62.23,21.834,60.514,24.351,56.281,25.962Z" transform="translate(0 -0.29)"/><rect class="b" width="2.011" height="2.011" transform="translate(47.531 16.911)"/><rect class="b" width="2.011" height="2.011" transform="translate(54.175 16.911)"/><rect class="b" width="2.011" height="2.011" transform="translate(27.893 8.256)"/><rect class="b" width="2.011" height="2.011" transform="translate(34.537 8.256)"/><rect class="b" width="2.011" height="2.011" transform="translate(8.255 18.627)"/><rect class="b" width="2.011" height="2.011" transform="translate(14.899 18.627)"/></g><path class="c" d="M299.379,331.222V328.6a8.767,8.767,0,0,0-8.761-8.761h0a8.767,8.767,0,0,0-8.761,8.761v2.622Z" transform="translate(-235.949 -267.501)"/><g transform="translate(27.588 38.755)"><circle class="a" cx="4.633" cy="4.633" r="4.633" transform="translate(22.449)"/><circle class="a" cx="4.633" cy="4.633" r="4.633"/></g><path class="d" d="M161.553,331.222V328.6a8.767,8.767,0,0,0-8.761-8.761h0a8.767,8.767,0,0,0-8.761,8.761v2.622Z" transform="translate(-120.572 -267.501)"/><circle class="a" cx="4.633" cy="4.633" r="4.633" transform="translate(5.139 38.755)"/><path class="c" d="M23.662,331.222V328.6a8.767,8.767,0,0,0-8.761-8.761h0A8.767,8.767,0,0,0,6.141,328.6v2.622Z" transform="translate(-5.141 -267.501)"/><g transform="translate(0 37.86)"><path class="b" d="M285.423,313.7a9.785,9.785,0,0,0-9.772,9.771v3.622h19.543v-3.622A9.778,9.778,0,0,0,285.423,313.7Zm7.76,11.383h-15.51v-1.611a7.75,7.75,0,0,1,15.5,0v1.611Z" transform="translate(-230.754 -300.22)"/><path class="b" d="M306.676,242.217a5.633,5.633,0,1,0-5.633-5.633A5.626,5.626,0,0,0,306.676,242.217Zm0-9.361a3.622,3.622,0,1,1-3.622,3.622A3.544,3.544,0,0,1,306.676,232.856Z" transform="translate(-252.006 -230.95)"/><path class="b" d="M168.811,242.217a5.633,5.633,0,1,0-5.644-5.633A5.7,5.7,0,0,0,168.811,242.217Zm0-9.361a3.622,3.622,0,1,1-3.622,3.622A3.609,3.609,0,0,1,168.811,232.856Z" transform="translate(-136.59 -230.95)"/><path class="b" d="M147.6,313.7a9.785,9.785,0,0,0-9.771,9.771v3.622h19.532v-3.622A9.7,9.7,0,0,0,147.6,313.7Zm7.75,11.383h-15.5v-1.611a7.75,7.75,0,0,1,15.5,0Z" transform="translate(-115.377 -300.22)"/><path class="b" d="M30.985,242.217a5.633,5.633,0,1,0-5.644-5.633A5.7,5.7,0,0,0,30.985,242.217Zm0-9.361a3.622,3.622,0,1,1-3.622,3.622A3.609,3.609,0,0,1,30.985,232.856Z" transform="translate(-21.213 -230.95)"/><path class="b" d="M9.771,313.7A9.778,9.778,0,0,0,0,323.469v3.622H19.532v-3.622A9.709,9.709,0,0,0,9.771,313.7Zm7.75,11.383H2.011v-1.611a7.75,7.75,0,0,1,15.5,0v1.611Z" transform="translate(0 -300.22)"/></g></g></svg>