<svg xmlns="http://www.w3.org/2000/svg" xmlns:xlink="http://www.w3.org/1999/xlink" width="67.587" height="67.587" viewBox="0 0 67.587 67.587"><defs><style>.a{fill:#fff;}.b{clip-path:url(#a);}.c{fill:#fea356;}.d,.f{fill:#193651;}.e{fill:#fc585f;}.f{fill-rule:evenodd;}</style><clipPath id="a"><rect class="a" width="67.587" height="67.587" transform="translate(50)"/></clipPath></defs><g class="b" transform="translate(-50)"><path class="c" d="M196.036,102.8A12.761,12.761,0,0,0,206.7,97.1a12.96,12.96,0,0,0-21.333,0A12.734,12.734,0,0,0,196.036,102.8Z" transform="translate(-112.248 -75.876)"/><path class="c" d="M228.359,39.6a4.008,4.008,0,1,0-4.008-4.008A4.008,4.008,0,0,0,228.359,39.6Z" transform="translate(-144.571 -26.185)"/><path class="c" d="M80.448,334.625a12.761,12.761,0,0,0,10.666-5.7,12.96,12.96,0,0,0-21.333,0A12.465,12.465,0,0,0,80.448,334.625Z" transform="translate(-16.403 -268.103)"/><path class="c" d="M112.771,271.419a4.008,4.008,0,1,0-4.008-4.008A4.008,4.008,0,0,0,112.771,271.419Z" transform="translate(-48.726 -218.412)"/><path class="c" d="M311.624,334.625a12.761,12.761,0,0,0,10.666-5.7,12.96,12.96,0,0,0-21.333,0A12.749,12.749,0,0,0,311.624,334.625Z" transform="translate(-208.093 -268.103)"/><path class="c" d="M343.947,271.419a4.008,4.008,0,1,0-4.008-4.008A4.008,4.008,0,0,0,343.947,271.419Z" transform="translate(-240.416 -218.412)"/><path class="d" d="M103.531,39.628a14.4,14.4,0,0,0-9.507,3.7l-9.187-5.278V28.023a14.115,14.115,0,1,0-2.109-.011V38.038l-9.187,5.278a14.014,14.014,0,1,0-9.5,24.292,13.976,13.976,0,0,0,10.987-22.7L83.9,39.838l8.867,5.068a13.913,13.913,0,1,0,10.766-5.278ZM64.045,65.5A11.936,11.936,0,1,1,75.982,53.563,11.993,11.993,0,0,1,64.045,65.5Zm7.807-51.422A11.936,11.936,0,1,1,83.788,26.014,12.066,12.066,0,0,1,71.852,14.077ZM103.531,65.5a11.936,11.936,0,1,1,11.936-11.936A11.922,11.922,0,0,1,103.531,65.5Z" transform="translate(0 -0.027)"/><path class="e" d="M201.508,184.108A5,5,0,0,1,206.1,181c2.764,0,4.754,2.363,5,5.18a5.15,5.15,0,0,1-.162,1.958,8.656,8.656,0,0,1-2.639,4.4l-6.79,6.056-6.676-6.056a8.654,8.654,0,0,1-2.639-4.4,5.151,5.151,0,0,1-.162-1.958c.25-2.816,2.241-5.18,5-5.18A4.848,4.848,0,0,1,201.508,184.108Z" transform="translate(-117.746 -150.084)"/><path class="f" d="M201.508,188.5l-1.574-3.728a3.143,3.143,0,0,0-2.9-2.064c-1.637,0-3.108,1.424-3.3,3.623l-.008.087-.009.048s0,0,0,0a1.978,1.978,0,0,0-.006.2,4.963,4.963,0,0,0,.147,1.076,6.947,6.947,0,0,0,2.124,3.526l5.539,5.025,5.638-5.028a6.948,6.948,0,0,0,2.119-3.522,4.963,4.963,0,0,0,.147-1.076,1.976,1.976,0,0,0-.006-.2v0l-.009-.048-.008-.087c-.2-2.2-1.666-3.623-3.3-3.623a3.3,3.3,0,0,0-3.014,2.064Zm6.79,4.037-6.79,6.056-6.676-6.056a8.654,8.654,0,0,1-2.639-4.4,5.151,5.151,0,0,1-.162-1.958c.25-2.816,2.241-5.18,5-5.18a4.651,4.651,0,0,1,3.406,1.468,5.423,5.423,0,0,1,1.067,1.64,5.2,5.2,0,0,1,1.082-1.624A4.9,4.9,0,0,1,206.1,181c2.764,0,4.754,2.363,5,5.18a5.15,5.15,0,0,1-.162,1.958A8.656,8.656,0,0,1,208.3,192.537Z" transform="translate(-117.746 -150.084)"/></g></svg>