<svg xmlns="http://www.w3.org/2000/svg" width="63.241" height="63.241" viewBox="0 0 63.241 63.241"><defs><style>.a,.d{fill:#fff;}.b{fill:#fea356;}.c,.f{fill:#193651;}.e,.f{stroke:none;}</style></defs><rect class="a" width="61.265" height="53.755" transform="translate(0.988 0.988)"/><rect class="b" width="53.36" height="40.119" transform="translate(4.941 4.941)"/><path class="a" d="M206,450.71H189.6l1.68-7.51h13.044Z" transform="translate(-166.181 -388.457)"/><circle class="c" cx="1.976" cy="1.976" r="1.976" transform="translate(29.644 47.727)"/><g transform="translate(21.289 10.723)"><g class="d" transform="translate(24.649 1.764) rotate(90)"><path class="e" d="M 24.04747009277344 20.93757438659668 L 1.747953295707703 20.93757438659668 L 12.89771175384521 1.973076462745667 L 24.04747009277344 20.93757438659668 Z"/><path class="f" d="M 12.89771175384521 3.946147918701172 L 3.49591064453125 19.93756484985352 L 22.29951286315918 19.93756484985352 L 12.89771175384521 3.946147918701172 M 12.89771175384521 -3.814697265625e-06 L 25.7954216003418 21.93756484985352 L 1.9073486328125e-06 21.93756484985352 L 12.89771175384521 -3.814697265625e-06 Z"/></g></g><path class="c" d="M63.241,55.731V0H0V55.731H23.814l-1.186,5.534H20.751v1.976H42.49V61.265H40.613l-1.186-5.534ZM1.976,53.755V1.976H61.265V53.755Zm36.561,7.51H24.7l1.186-5.534H37.451Z"/><rect class="c" width="1.976" height="1.976" transform="translate(22.53 48.715)"/><rect class="c" width="1.976" height="1.976" transform="translate(38.735 48.715)"/></svg>