<svg xmlns="http://www.w3.org/2000/svg" width="55.067" height="54.518" viewBox="0 0 55.067 54.518"><defs><style>.a{fill:#fff;}.b{fill:#fea356;}.c{fill:#193651;}.d{fill:none;stroke:#193651;stroke-miterlimit:10;stroke-width:2px;}</style></defs><g transform="translate(-45.573 -47.2)"><rect class="a" width="39.269" height="52.429" transform="translate(51.135 48.244)"/><rect class="b" width="32.481" height="45.64" transform="translate(54.477 51.586)"/><g transform="translate(46.853 56.339)"><path class="a" d="M154.158,385.013A5.1,5.1,0,0,0,149.041,380H112.8a5.038,5.038,0,0,1,5.118,5.013,5.1,5.1,0,0,1-5.118,5.013h36.345A5.014,5.014,0,0,0,154.158,385.013Z" transform="translate(-105.28 -345.691)"/><path class="a" d="M55.2,130.829h0c14.517,18.173,37.912,18.173,52.429,0C93.112,112.657,69.717,112.657,55.2,130.829Z" transform="translate(-55.2 -117.2)"/></g><g transform="translate(45.6 47.2)"><path class="c" d="M100.118,69.341a42.356,42.356,0,0,0-8.669-8.146V47.2H50.091V64.955a53.641,53.641,0,0,0-3.969,4.386l-.522.627.522.627a53.639,53.639,0,0,0,3.969,4.386v26.737H90.718A6.152,6.152,0,0,0,96.88,95.66a6.006,6.006,0,0,0-5.431-5.953V78.741a42.356,42.356,0,0,0,8.669-8.146l.522-.627ZM52.18,49.289H89.36V59.837A31.781,31.781,0,0,0,52.18,63.179V49.289ZM94.687,95.66a3.991,3.991,0,0,1-4.073,3.969H59.073a6.117,6.117,0,0,0,0-7.937H90.718A3.967,3.967,0,0,1,94.687,95.66ZM89.36,89.6H54.373a1.044,1.044,0,1,0,0,2.089,4.057,4.057,0,0,1,4.073,3.969,3.991,3.991,0,0,1-4.073,3.969H52.18V76.757A32.466,32.466,0,0,0,73.068,84.59h0A32.158,32.158,0,0,0,89.36,80.1ZM73.068,82.5c-9.3,0-18.173-4.491-24.857-12.533C54.9,61.822,63.773,57.435,73.068,57.435S91.24,61.926,97.924,69.968C91.24,78.01,82.363,82.5,73.068,82.5Z" transform="translate(-45.6 -47.2)"/><circle class="c" cx="8.251" cy="8.251" r="8.251" transform="translate(19.217 14.517)"/></g><circle class="a" cx="1.984" cy="1.984" r="1.984" transform="translate(68.786 64.119)"/><path class="d" d="M55.2,130.829h0c14.517,18.173,37.912,18.173,52.429,0C93.112,112.657,69.717,112.657,55.2,130.829Z" transform="translate(-8.347 -60.861)"/></g></svg>