<svg xmlns="http://www.w3.org/2000/svg" xmlns:xlink="http://www.w3.org/1999/xlink" width="253.1" height="197" viewBox="0 0 253.1 197"><defs><style>.a{opacity:0.25;}.b{fill:#e4edfe;}.c{fill:#cddefc;}.ar,.d{fill:#fff;}.e{fill:#ceddf4;}.f{fill:#bacdf7;}.g{fill:#9bb8ea;}.h{fill:#94b2dd;}.i{fill:#819ec9;}.j{fill:#b9ceed;}.k{fill:#759ac7;}.l{fill:none;stroke:#759ac7;stroke-linecap:round;stroke-miterlimit:10;stroke-width:8px;}.m{fill:#ffd3c7;}.n{fill:#21445b;}.o{clip-path:url(#a);}.p{opacity:0.1;}.q{fill:#f4b5a6;}.r{fill:#303030;}.s{clip-path:url(#b);}.t{fill:#020202;opacity:0.2;}.aq,.as,.u{fill:#8ec2fe;}.v{fill:#0069fa;}.w{clip-path:url(#c);}.x{clip-path:url(#d);}.y{clip-path:url(#e);}.z{fill:#ae4726;}.aa{fill:#214254;}.ab{fill:#1f3c49;}.ac{fill:#0069ff;}.ad{fill:#762004;}.ae{fill:#a84919;}.af{fill:url(#f);}.ag{fill:#d3dff4;}.ah{fill:url(#g);}.ai{fill:#15b55d;}.aj{fill:#1bce6b;}.ak{fill:url(#h);}.al{fill:#f2f5f9;}.am{fill:#ff5a61;}.an{fill:url(#i);}.ao{fill:url(#j);}.ap{fill:#ffa457;}.aq,.ar{opacity:0.4;}.as{opacity:0.6;}.at{opacity:0.3;}.au{fill:#f15a57;}.av{fill:#aae3fe;}.aw{fill:#fe8b8b;}.ax{fill:#4ba2ca;}.ay{fill:#91d2fb;}.az{fill:#0668a4;}.ba{fill:#0184bd;}.bb{fill:#67bce4;}.bc{fill:#69bce5;}.bd{fill:#68bce5;}.be{fill:#68bce4;}.bf{fill:#71bfd8;}.bg{fill:#5aa3c3;}.bh{fill:#feebe3;}.bi{fill:#58a7e1;}.bj{fill:#4fa1ca;}.bk{fill:#c7ecfe;}.bl{fill:#57a8e1;}.bm{fill:#58a7e2;}.bn{fill:#4da3c8;}.bo{fill:#2f80b7;}.bp{fill:#c3ecfd;}.bq{fill:#c6edfb;}.br{fill:#c4ecfc;}.bs{fill:#e2f5f6;}.bt{fill:#f1734a;}.bu{fill:#fd984f;}.bv{fill:#72cdf0;}.bw{fill:#6acbf0;}.bx{fill:#73c7ec;}.by{fill:#9cadb4;}.bz{fill:#9fb6b2;}.ca{fill:#a9e3fd;}.cb{fill:#fc8b8b;}.cc{fill:#2e81b6;}.cd{fill:#5fcbf5;}.ce{fill:#5dcbf6;}.cf{fill:#fee8e2;}</style><clipPath id="a"><path d="M152.3,172.3l-.2.1-1.6,1.4-.2.2h-.1s-1.5-1-3.7-2.4h0c-5.1-3.4-13.8-9.4-15.9-12.6a16.84,16.84,0,0,1-2-4.8c-.1-.3-.1-.5-.2-.8h0a53.973,53.973,0,0,1-1-5.8c2.5-2.3,4.6-4.4,5.3-5.1l.2-.2.3.3c0-.1.1-.3.1-.4v.5h0c0,.5.1,1,.1,1.5,0,.4.1.7.1,1.1h0c0,.5.1.9.1,1.4,0,.4.1.8.1,1.2.3,3.3.8,6,1.5,7.3C139.2,159.4,152.3,172.3,152.3,172.3Z"/></clipPath><clipPath id="b"><path d="M131.8,110c0,4.4-2.5,4.2-2.5,4.2h-.9l-.2.1c.1-1.4.1-2.4.1-2.4l-1.5-1.5c.1,2-7.7,2.1-8.5,3.2a5.263,5.263,0,0,1-1.2,1.4c-1.7-1-2.2,1.4-1.8,2.7a2.191,2.191,0,0,0,1.9,1.4,6.468,6.468,0,0,0,.4,1.3,6.549,6.549,0,0,0,1.5,1.8l-.6,2.5c-.1-.1-.2-.1-.4-.2-2.3-.9-5.1-.4-6.8,2.9a6.506,6.506,0,0,1-2.6,2.6,8.264,8.264,0,0,1-1.3.7l-1.5.6a10.259,10.259,0,0,1-1.4.4,11.678,11.678,0,0,1-4.9.4c-3-.6-11.2-4.6-15.2.4s-11.3,5.8-19.7,2.1S63,114.4,71,116.3s11.2-6.4,18.5-9.9,10.2,1.8,15.7,2.3,3.2-4.9,12.6-7.8S131.8,105.6,131.8,110Z"/></clipPath><clipPath id="c"><path d="M134.5,145.3v.4a9.826,9.826,0,0,1-.5,2.2c-.5,1.7-1.6,3.7-3.7,4.3h-.2a3.11,3.11,0,0,0-1.6,1.2h0a13.057,13.057,0,0,0-2.1,3.6,30.959,30.959,0,0,0-1.5,14.8c0,.3.1.6.1.8,0,0-14.7,7-26.6.6-.1,0-.1-.1-.2-.1,0,0,.2-.3.7-.9h0a1.756,1.756,0,0,1,.4-.5h0c2.5-3.7,8.8-13.3,8.1-19.7-.4-3.4-1.3-7.5-1.8-11.2-.6-4-.8-7.6.4-9.5l1.5-.6c.1.1.3.1.4.2,3.8,2.1,7,20.3,9.8,24.9,1.8-.9,6.2-4.8,9.8-8.2,2.5-2.3,4.6-4.4,5.3-5.1.1.3.3.6.4.9h0c.1.3.3.5.4.8.3.3.5.7.9,1.1Z"/></clipPath><clipPath id="d"><path d="M132.9,142.5c-.7.7-2.8,2.7-5.3,5.1-3.6,3.4-8,7.3-9.8,8.2-2.8-4.6-6-22.8-9.8-24.9-.1-.1-.3-.1-.4-.2a8.264,8.264,0,0,0,1.3-.7l7.1-1.2c.3.5,3.6,4.9,7.8.4a3.039,3.039,0,0,1-.5-.7h.2l4.6-.2,2.4-.1a38.416,38.416,0,0,1,1.5,9.5A11.985,11.985,0,0,0,132.9,142.5Z"/></clipPath><clipPath id="e"><path d="M135.3,144.2l-.2.3h0a9.015,9.015,0,0,1-.7,1.1l-.6.9c-.9,1.5-2.2,3.5-3.7,5.6-.5.6-.9,1.3-1.4,1.9-.7,1-1.5,1.9-2.3,2.9-4.4,5.1-9.4,8.8-12.3,4.2-2.7-4.3-6.5-13.6-8.6-20.4-.6-4-.8-7.6.4-9.5l1.5-.6c.1.1.3.1.4.2,3.8,2.1,7,20.3,9.8,24.9,1.8-.9,6.2-4.8,9.8-8.2,2.5-2.3,4.6-4.4,5.3-5.1l.2-.2.3.3.2.1h0Z"/></clipPath><linearGradient id="f" x1="-3.193" y1="11.88" x2="-3.187" y2="11.88" gradientUnits="objectBoundingBox"><stop offset="0" stop-color="#3e619e"/><stop offset="0.53" stop-color="#f2f2f2"/><stop offset="1" stop-color="#718bc6"/></linearGradient><linearGradient id="g" x1="-12.853" y1="18.424" x2="-12.853" y2="18.449" gradientUnits="objectBoundingBox"><stop offset="0" stop-color="#ccc"/><stop offset="1" stop-color="#fff"/></linearGradient><linearGradient id="h" x1="-13.531" y1="43.209" x2="-13.504" y2="43.209" gradientUnits="objectBoundingBox"><stop offset="0" stop-color="#6b9ae8"/><stop offset="1" stop-color="#e7f0ff"/></linearGradient><linearGradient id="i" x1="-14.255" y1="42.112" x2="-14.228" y2="42.112" xlink:href="#h"/><linearGradient id="j" x1="-15.062" y1="42.648" x2="-15.035" y2="42.648" xlink:href="#h"/></defs><g transform="translate(-2527.738 1795)"><rect class="a" width="97" height="72" transform="translate(2527.738 -1795)"/><path class="b" d="M42.3,137.5c0,4.2,3,7.6,6.6,7.6h78.8c3.7,0,6.6-3.4,6.6-7.6V86.2c0-4.2-3-7.6-6.6-7.6H48.9c-3.7,0-6.6,3.4-6.6,7.6v51.3Z" transform="translate(2487.938 -1870.4)"/><rect class="c" width="20.7" height="14.3" transform="translate(2590.338 -1782.2)"/><rect class="d" width="20.7" height="15.8" transform="translate(2574.938 -1773.5)"/><rect class="c" width="35.8" height="24.7" transform="translate(2535.838 -1782.2)"/><rect class="b" width="51.3" height="1.8" transform="translate(2557.738 -1751.2)"/><rect class="b" width="51.3" height="1.8" transform="translate(2557.738 -1743.6)"/><rect class="b" width="51.3" height="1.8" transform="translate(2557.738 -1736)"/><path class="e" d="M76.2,230.9c0,2.3-5.6,4.2-12.5,4.2s-12.5-1.9-12.5-4.2,5.6-4.2,12.5-4.2S76.2,228.6,76.2,230.9Z" transform="translate(2487.938 -1870.4)"/><path class="f" d="M50.4,211.2l2.8,19s2.2,3,10.5,3,10.5-3,10.5-3l2.8-19Z" transform="translate(2487.938 -1870.4)"/><path class="g" d="M63.7,221.6a37.4,37.4,0,0,0,12-1.6l1.2-8.5H50.4l1.2,8.5A45.2,45.2,0,0,0,63.7,221.6Z" transform="translate(2487.938 -1870.4)"/><path class="f" d="M78.9,215.6c0,2.2-6.8,4-15.2,4s-15.2-1.8-15.2-4l-.7-6H79.6Z" transform="translate(2487.938 -1870.4)"/><ellipse class="g" cx="15.9" cy="4.2" rx="15.9" ry="4.2" transform="translate(2535.738 -1665.1)"/><ellipse class="h" cx="14.2" cy="3.2" rx="14.2" ry="3.2" transform="translate(2537.438 -1664.1)"/><path class="i" d="M50.1,210.4c1.8-1.3,7.2-2.2,13.6-2.2s11.8.9,13.6,2.2a1.265,1.265,0,0,0,.7-1c0-1.8-6.4-3.2-14.2-3.2s-14.2,1.4-14.2,3.2A.937.937,0,0,0,50.1,210.4Z" transform="translate(2487.938 -1870.4)"/><path class="c" d="M74.9,184.2c1-3.7-.2-6.6-1.6-9.9A19.079,19.079,0,0,1,72.2,164c.7-4.7,2.3-9.2.5-13.8-1.7-4.3-3.3-10-8-11.8-4.5-1.9-8,2.5-7.9,6.6s2.4,7.8,1.2,11.9c-.9,3.3-2,7.3-.3,10.4,2.1,3.9,5.9,6.7,4.5,11.5-.6,1.7-1.5,3.2-1.7,4.9-.2,2.6,1.1,3.2,2.3,5.3,5,8.8-4.1,12.3-.6,21.9a.622.622,0,0,0,.6.4h0a.645.645,0,0,0,.6-.6c1.1-10.8,8.8-7,8.9-15.8,0-1.6-.5-3.3-.3-4.9C72.4,187.8,74.3,186.5,74.9,184.2Z" transform="translate(2487.938 -1870.4)"/><path class="j" d="M68.7,193h0c-3.6-.6-4.1-5.5-4.1-5.6v-.1h.1s.5,4.9,4,5.5c.1.2.1.2,0,.2Z" transform="translate(2487.938 -1870.4)"/><path class="j" d="M66.2,170.7h0c-4.6-1.5-4.9-7-4.9-7h0s.3,5.4,4.9,7Z" transform="translate(2487.938 -1870.4)"/><path class="j" d="M66.8,162.8h0v-.1c4.4-.8,4.7-6.5,4.7-6.5a.1.1,0,0,1,.1-.1h0c0,.1-.3,5.8-4.8,6.7Z" transform="translate(2487.938 -1870.4)"/><path class="j" d="M68.8,181.9h0c-.1-.1,0-.1,0-.1,3.6-1.6,2.5-7.7,2.5-7.8v-.1h0c.2.2,1.2,6.4-2.5,8Z" transform="translate(2487.938 -1870.4)"/><path class="j" d="M64.7,201.4h0v-.1a5.936,5.936,0,0,0,5-3.3,7.273,7.273,0,0,0,.7-2.9.1.1,0,0,1,.1-.1h0a.1.1,0,0,1,.1.1h0a7.273,7.273,0,0,1-.7,2.9,6.147,6.147,0,0,1-5.2,3.4Z" transform="translate(2487.938 -1870.4)"/><path class="j" d="M67.1,155h0c-3.4-1-3.9-6.7-3.9-6.8v-.1h.1c.1.1.5,5.8,3.8,6.9Z" transform="translate(2487.938 -1870.4)"/><path class="j" d="M63,211.4c-.1,0-.1-.1,0,0-.7-6.3,1.3-9.4,3.2-12.4a15.273,15.273,0,0,0,2.3-4.6c2.2-7.2.5-12.8-1.5-18.3-1.5-4-.7-9.3-.3-12.7.1-.9.2-1.6.3-2.2q.9-12.6-3.3-16.8v-.1h.1c2.8,2.8,4,8.5,3.3,16.9-.1.6-.2,1.4-.3,2.2-.5,3.5-1.2,8.7.3,12.7,2,5.6,3.6,11.1,1.5,18.4a19.8,19.8,0,0,1-2.3,4.6c-2,2.9-4,6-3.3,12.3Z" transform="translate(2487.938 -1870.4)"/><path class="j" d="M72.4,194.7v.5c-.1,5.7-3.4,6.1-6,8.7.3-1.5.4-3.4,1.4-4.7,1.1-1.2,2.6-1.5,3.7-3A3.359,3.359,0,0,0,72.4,194.7Zm.9-20.4A19.079,19.079,0,0,1,72.2,164a3.553,3.553,0,0,1,.2-1,7.106,7.106,0,0,0-4,3.8c-2.5,5.3-.5,9,1.6,13,1.8,3.3.6,6.3,1,9.8a12.564,12.564,0,0,0,1.3,3.7,15.138,15.138,0,0,1-.2-3c.2-2.5,2.2-3.8,2.7-6.1C75.9,180.5,74.7,177.6,73.3,174.3Zm-9.4,28a6.805,6.805,0,0,1-.8-2.4c-1.1,3-2.4,6.1-1,10.4h0a6.89,6.89,0,0,1,.3.8.1.1,0,0,0,.1.1h0l.1.1h0a.764.764,0,0,0,.5.2h0a.367.367,0,0,0,.3-.1,1.381,1.381,0,0,0,.3-.4h0a13.031,13.031,0,0,1,.9-3.9,2.506,2.506,0,0,1-.7.4c.6-1.8,1.1-2.8,0-5.2Z" transform="translate(2487.938 -1870.4)"/><path class="b" d="M86.6,182.3c-2.2-4.1-2.2-6.8-2-11.2.2-4.5-1.1-10.4-6.6-11.4-4.1-.7-7.4.9-9,4.2-2.5,5.3-.5,9,1.6,13,1.8,3.3.6,6.3,1,9.8s3.5,5.1.9,8.7c-1.1,1.5-2.6,1.7-3.7,3-1.1,1.4-1.1,3.5-1.5,5.1-1,4-4.9,3.4-5.1,7.5,0,.3.2.6.4.6s.4,0,.5-.2c.9-1.6,2.4-1.4,4.1-2.1,1.3-.6,1.7-2.1,4.7-2.5,4-.5,7.6,2.1,9.6-3.2.7-1.9.5-3.5.9-5.3.4-2.5,2-4,3.6-5.7C89,189.1,88.6,185.9,86.6,182.3Z" transform="translate(2487.938 -1870.4)"/><path class="c" d="M78.7,174.5h0c-3.6-.3-6.3-4.9-6.3-5v-.1h.1s2.6,4.6,6.2,4.9c.1.1.1.1,0,.2Z" transform="translate(2487.938 -1870.4)"/><path class="c" d="M77.7,194h0c-1.1-.8-1.9-2.7-2.3-5.8a32.4,32.4,0,0,1-.2-4.4l.1-.1a.1.1,0,0,1,.1.1h0c-.1.1-.3,8.4,2.3,10.2Z" transform="translate(2487.938 -1870.4)"/><path class="c" d="M79.1,186.7h0v-.1c4.4-1.2,4.7-8.3,4.7-8.4a.1.1,0,0,1,.1-.1h0a15.142,15.142,0,0,1-.7,3.7c-.8,2.8-2.3,4.4-4.1,4.9Z" transform="translate(2487.938 -1870.4)"/><path class="c" d="M72.8,204.7a6.6,6.6,0,0,1-1.4-.1v-.1h.1a7.327,7.327,0,0,0,6.8-2.4,10.91,10.91,0,0,0,1.9-3.3h.1v.1h0a11.218,11.218,0,0,1-2,3.3A7.661,7.661,0,0,1,72.8,204.7Z" transform="translate(2487.938 -1870.4)"/><path class="c" d="M78.3,171.2h0c2.7-2.6.9-8,.9-8v-.1h.1c0,.1,1.9,5.5-1,8.1Z" transform="translate(2487.938 -1870.4)"/><path class="c" d="M62.7,211.2h0c.4-1.8,2.5-2.7,3.8-3.3a4.672,4.672,0,0,0,1-.5,22.376,22.376,0,0,0,6.6-6.4,26.987,26.987,0,0,0,4-9c1.7-7.1,1.3-16.2-1.2-27.1v-.1H77c2.5,10.9,2.9,20,1.2,27.1a28.418,28.418,0,0,1-4,9.1,24.068,24.068,0,0,1-6.7,6.4,4.672,4.672,0,0,1-1,.5c-1.2.7-3.3,1.6-3.8,3.3Z" transform="translate(2487.938 -1870.4)"/><path class="c" d="M62.2,210.9c0,.3.2.6.4.6h0c.7-.5-.2-1.2.8-3.6A4.714,4.714,0,0,0,62.2,210.9Z" transform="translate(2487.938 -1870.4)"/><path class="b" d="M63,201.1c-1.2-2.7-.1-6.1-1.3-8-1.5-2.4-4-.6-6.9-3.9-2.4-2.8-.7-6.7-6.2-9.5a2.883,2.883,0,0,0-4.3,1.5c-.8,1.8.5,4.3,1,6.1.6,1.5,1.2,2.5,1,4.2v.1c-.3,1.2-1.1,1.9-.7,3.4.9,3.6,6,3.2,8.5,5.5,1.8,1.6.2,3.4,1.9,5.8s2.6-.2,5.8,5.4a.481.481,0,0,0,.6.2h0a.52.52,0,0,0,.2-.4C62.2,205.1,64.8,205,63,201.1Z" transform="translate(2487.938 -1870.4)"/><path class="c" d="M49,187.6h0a4.761,4.761,0,0,1-3-3.7h.1a4.754,4.754,0,0,0,2.9,3.7Z" transform="translate(2487.938 -1870.4)"/><path class="c" d="M51.8,193.9a6.785,6.785,0,0,1-4.4-2.1v-.1h0s2.6,3,5.8,1.8h.1A2.41,2.41,0,0,1,51.8,193.9Z" transform="translate(2487.938 -1870.4)"/><path class="c" d="M57.7,196.7h0c1.4-1.6-.5-4.8-.6-4.8v-.1h.1a14.167,14.167,0,0,1,.8,1.8c.5,1.4.4,2.5-.3,3.1Z" transform="translate(2487.938 -1870.4)"/><path class="c" d="M59.4,203.6h0c1.9-1.5.8-5.5.8-5.5V198h.1c0,.1,1.2,4.1-.9,5.6Z" transform="translate(2487.938 -1870.4)"/><path class="c" d="M51.2,191.5h0c1.4-1.6-.3-5.7-.3-5.8v-.1H51a15.457,15.457,0,0,1,.7,2.3c.3,1.8.2,2.9-.5,3.6Z" transform="translate(2487.938 -1870.4)"/><path class="c" d="M58.6,200.1a7.113,7.113,0,0,1-4-1.1,4.036,4.036,0,0,1-1.3-1.3v-.1h.1s1.6,2.5,5.8,2.3h0v.1A1.268,1.268,0,0,1,58.6,200.1Z" transform="translate(2487.938 -1870.4)"/><path class="c" d="M60.9,206.5h0a6.182,6.182,0,0,1-3.9-1.8,2.666,2.666,0,0,1-.7-1.4v-.1h0s.5,2.6,4.6,3.1c0,.1.1.1,0,.2Z" transform="translate(2487.938 -1870.4)"/><path class="c" d="M62.2,211.4h0a10.833,10.833,0,0,0-1.9-5.8,5.431,5.431,0,0,1-1.2-3.4c.1-2.7-.1-4.9-3.1-6.7-5.4-3.2-7.5-6.6-8.6-13.5v-.1h.1c1,6.8,3.2,10.2,8.5,13.4,3,1.8,3.2,4.2,3.1,6.8a4.971,4.971,0,0,0,1.2,3.3,9.529,9.529,0,0,1,1.9,6Z" transform="translate(2487.938 -1870.4)"/><rect class="b" width="64.6" height="81.1" transform="translate(2716.238 -1729.6)"/><rect class="c" width="57.8" height="18.9" transform="translate(2719.538 -1726.3)"/><rect class="c" width="57.8" height="18.9" transform="translate(2719.538 -1704.1)"/><rect class="c" width="57.8" height="18.9" transform="translate(2719.538 -1681.2)"/><path class="b" d="M262.6,148.2a2,2,0,1,1-2-2A2.006,2.006,0,0,1,262.6,148.2Z" transform="translate(2487.938 -1870.4)"/><path class="b" d="M262.6,170.3a2,2,0,1,1-2-2A2.006,2.006,0,0,1,262.6,170.3Z" transform="translate(2487.938 -1870.4)"/><path class="b" d="M262.6,193a2,2,0,1,1-2-2A2.006,2.006,0,0,1,262.6,193Z" transform="translate(2487.938 -1870.4)"/><path class="k" d="M211.2,173.5c0,.3-.5.6-1,.6s-1-.3-1-.6.5-.6,1-.6S211.2,173.2,211.2,173.5Z" transform="translate(2487.938 -1870.4)"/><line class="l" x2="8.1" y2="4.6" transform="translate(2700.038 -1695.7)"/><path class="m" d="M158.1,178.1c-.1,3.8-2.9,2.1-2.6.6s-1.1-2.2-3.2-2.9a3.681,3.681,0,0,1-2.1-2.3l1.6-1.4a5.938,5.938,0,0,0,2.9,1.8C156.3,174.1,158.2,174.3,158.1,178.1Z" transform="translate(2487.938 -1870.4)"/><path class="n" d="M152.3,172.3l-.2.1-1.6,1.4-.2.2h-.1s-1.5-1-3.7-2.4h0c-5.1-3.4-13.8-9.4-15.9-12.6a16.84,16.84,0,0,1-2-4.8c-.1-.3-.1-.5-.2-.8h0a53.973,53.973,0,0,1-1-5.8c2.5-2.3,4.6-4.4,5.3-5.1l.2-.2.3.3c0-.1.1-.3.1-.4v.5h0c0,.5.1,1,.1,1.5,0,.4.1.7.1,1.1h0c0,.5.1.9.1,1.4,0,.4.1.8.1,1.2.3,3.3.8,6,1.5,7.3C139.2,159.4,152.3,172.3,152.3,172.3Z" transform="translate(2487.938 -1870.4)"/><g transform="translate(2487.938 -1870.4)"><g class="o" transform="translate(87.728 66.545)"><path class="p" d="M39.3,78.7s1.9,8.4,4.3,11.7,10.6,10.7,13,12a47.278,47.278,0,0,1,5.7,4.3s-.1,1.1-.7,1-3.5-1.2-5.8-1.9a14.926,14.926,0,0,1-4-1.5c-1.5-.9,2.2,1.5-3-2.2s-4.3-2.6-5.9-5.5-2.2-1.6-2.3-4.3-.1-3.6-.6-4.6"/></g></g><path class="n" d="M97.9,247.3a6.623,6.623,0,0,0-3.1,4.4c-.8,3.5-1,4.2-1.1,4.2-.1.1.7.7.7.7s.6-2.1,2.1-2.7,1,4.4.8,4.7,5,4.9,7.4,6l-3.2-6.8h0C99.1,257.1,98.1,249.3,97.9,247.3Z" transform="translate(2487.938 -1870.4)"/><path class="m" d="M120.4,219.1l-5.7-4.2a16.761,16.761,0,0,0-3,4c.1,2.2.3,8.5.3,12.4C116.4,224.7,120.4,219.1,120.4,219.1Z" transform="translate(2487.938 -1870.4)"/><path class="m" d="M101.8,241.8a24.369,24.369,0,0,1,.1-2.7c-1.9,4.4-3.2,7.6-3.2,7.6l-.2.4-.3.2c-.1,0-.2.1-.3.1.2,2,1.2,9.8,3.5,10.5a40.251,40.251,0,0,0,0-8.5.367.367,0,0,0-.1-.3h0a25.569,25.569,0,0,1,1.1-2.4h0C102.2,245,102,243.4,101.8,241.8Z" transform="translate(2487.938 -1870.4)"/><path class="q" d="M111.6,218.9c-3.1,5.2-7,13.9-9.8,20.2a24.369,24.369,0,0,0-.1,2.7,41.284,41.284,0,0,0,.7,4.9h0c2-3.9,5.9-9.9,9.5-15.3C111.9,227.3,111.7,221.1,111.6,218.9Z" transform="translate(2487.938 -1870.4)"/><path class="n" d="M107.1,272.4c-.6-.3-6.1-3.9-4.9-5.7a6.7,6.7,0,0,0,.7-1.8c1.2,1.8,4.1,4.7,7.1,0l.3,1.1C112.2,267.7,107.1,272.4,107.1,272.4Z" transform="translate(2487.938 -1870.4)"/><path class="m" d="M107.3,255.4c-.9-6,4.3-39.3,4.3-39.3l-6.7-2.9-.3-1.2-1.7,11.9c-1.7,11.9,1.5,30.7,1.5,30.7s-.1,1-.2,2.4c-.3,2.7-.7,5.3-1.2,7.9,1.2,1.8,4.1,4.7,7.1,0l-2.3-8Z" transform="translate(2487.938 -1870.4)"/><path class="n" d="M103.1,171.8l-3.7,1.4s-7.2,11.2,4.3,42.3c0,0,11.5,3.6,14.7,1.5s6.6-44.4,6.6-44.4l-8.4-.8Z" transform="translate(2487.938 -1870.4)"/><path class="m" d="M128.2,111.8s0,1-.1,2.4c-.3,4-1.4,11.3-5.5,10.1a8.864,8.864,0,0,1-1.7-.8c-.6-.5-1.3-.9-1.9-1.4a5.171,5.171,0,0,1-1.5-1.8,2.836,2.836,0,0,1-.4-1.3,2.712,2.712,0,0,1-1.9-1.4c-.5-1.3.1-3.7,1.8-2.7a4.071,4.071,0,0,0,1.2-1.4c.7-1.1,8.5-1.2,8.5-3.2Z" transform="translate(2487.938 -1870.4)"/><path class="r" d="M131.8,110c0,4.4-2.5,4.2-2.5,4.2h-.9l-.2.1c.1-1.4.1-2.4.1-2.4l-1.5-1.5c.1,2-7.7,2.1-8.5,3.2a5.263,5.263,0,0,1-1.2,1.4c-1.7-1-2.2,1.4-1.8,2.7a2.191,2.191,0,0,0,1.9,1.4,6.468,6.468,0,0,0,.4,1.3,6.549,6.549,0,0,0,1.5,1.8l-.6,2.5c-.1-.1-.2-.1-.4-.2-2.3-.9-5.1-.4-6.8,2.9a6.506,6.506,0,0,1-2.6,2.6,8.264,8.264,0,0,1-1.3.7l-1.5.6a10.259,10.259,0,0,1-1.4.4,11.678,11.678,0,0,1-4.9.4c-3-.6-11.2-4.6-15.2.4-4.1,5-11.3,5.8-19.7,2.1S63,114.4,71,116.3s11.2-6.4,18.5-9.9,10.2,1.8,15.7,2.3,3.2-4.9,12.6-7.8S131.8,105.6,131.8,110Z" transform="translate(2487.938 -1870.4)"/><g transform="translate(2487.938 -1870.4)"><g class="s" transform="translate(20.981 24.733)"><path class="t" d="M44.8,112.4c1.5,0,2.8,1.1,4.3.8a6.644,6.644,0,0,0,3.7-1.7,34.675,34.675,0,0,0,2.5-2.9c.8-1.1,1.3-2.3,2.5-3a7.779,7.779,0,0,1,4-.8c1.1,0,3.2,0,3.4-1.4a.891.891,0,0,0,.8-.5c.3-.1.4-.1.7-.2v-.2a5.327,5.327,0,0,1,3.6,1.3,3.673,3.673,0,0,1,1.8.1,26.153,26.153,0,0,0,2.8,0,9.81,9.81,0,0,0,4.5-.9,11.218,11.218,0,0,0,3.3-2A3.772,3.772,0,0,1,86,99.6a14.919,14.919,0,0,1,2.1.2c1.1,1.2,4.1-1.9,4.4-2.9h.1a2.994,2.994,0,0,1,.4-.8c.6,0,1.8-.4,1.5-1.3-.2-.4-1.2-.8-1.5-1.2-1.2-1.3,0-2.8.7-4a8.247,8.247,0,0,0,2.6-1,6.356,6.356,0,0,1,2.2-1.4,16.471,16.471,0,0,1,3.2-.6,17.677,17.677,0,0,0,3.1-.8v-.1l.6-.3c.3-.4.5-.7.8-1.1a2.022,2.022,0,0,0,1.8,1.8v.2c.3.1.4.4.6.6.9,1-.3,3.4-.3,4.4a31.533,31.533,0,0,0,.6,6.1c.2,1.2.8,2.3,1.1,3.6a20.073,20.073,0,0,1,.5,4.2c0,2.9-1.9,5.1-4.4,6.5a55.7,55.7,0,0,1-6.8,3.7,79.422,79.422,0,0,1-10.9,2.9,60.086,60.086,0,0,1-9.5,1.1c-4,.3-8,.5-12,.7-3.8.2-7.6.6-11.4.6a26.751,26.751,0,0,1-4.9-.1c-2.2-.4-6.7-2.3-5.3-5.4"/></g></g><path class="u" d="M134.5,145.3v.4a9.826,9.826,0,0,1-.5,2.2c-.5,1.7-1.6,3.7-3.7,4.3h-.2a3.11,3.11,0,0,0-1.6,1.2h0a13.057,13.057,0,0,0-2.1,3.6,30.959,30.959,0,0,0-1.5,14.8c0,.3.1.6.1.8,0,0-14.7,7-26.6.6-.1,0-.1-.1-.2-.1,0,0,.2-.3.7-.9h0a1.756,1.756,0,0,1,.4-.5h0c2.5-3.7,8.8-13.3,8.1-19.7-.4-3.4-1.3-7.5-1.8-11.2-.6-4-.8-7.6.4-9.5l1.5-.6c.1.1.3.1.4.2,3.8,2.1,7,20.3,9.8,24.9,1.8-.9,6.2-4.8,9.8-8.2,2.5-2.3,4.6-4.4,5.3-5.1.1.3.3.6.4.9h0c.1.3.3.5.4.8.3.3.5.7.9,1.1Z" transform="translate(2487.938 -1870.4)"/><g transform="translate(2487.938 -1870.4)"><path class="v" d="M134.5,145.3v.4a9.826,9.826,0,0,1-.5,2.2c-.5,1.7-1.6,3.7-3.7,4.3h-.2a3.11,3.11,0,0,0-1.6,1.2h0a13.057,13.057,0,0,0-2.1,3.6,30.959,30.959,0,0,0-1.5,14.8c0,.3.1.6.1.8,0,0-14.7,7-26.6.6-.1,0-.1-.1-.2-.1,0,0,.2-.3.7-.9h0a1.756,1.756,0,0,1,.4-.5h0c2.5-3.7,8.8-13.3,8.1-19.7-.4-3.4-1.3-7.5-1.8-11.2-.6-4-.8-7.6.4-9.5l1.5-.6c.1.1.3.1.4.2,3.8,2.1,7,20.3,9.8,24.9,1.8-.9,6.2-4.8,9.8-8.2,2.5-2.3,4.6-4.4,5.3-5.1.1.3.3.6.4.9h0c.1.3.3.5.4.8.3.3.5.7.9,1.1Z"/><g class="w" transform="translate(58.44 55.024)"><path class="p" d="M82.7,94a10.869,10.869,0,0,0-1.8.1,15.985,15.985,0,0,1-2.1.5c-2.4.2-4.9.1-7.3.2a60.086,60.086,0,0,0-7.3.7,28.985,28.985,0,0,0-4.8,1.4c-1.5.5-2.9.6-3.4,2.2a16.96,16.96,0,0,0-.6,3.1c-.2,1.4-.6,2.7-.9,4.1-.6,2.2-1.5,4.3-2.2,6.4-.5,1.8-1,3.6-1.6,5.3-.3.8-.5,1.6-.8,2.4-.2.5-.4,1-.6,1.6-.1.6-.2.9.4,1.1a35.972,35.972,0,0,0,5.6.8c2.2.2,4.5.2,6.8.2a45.585,45.585,0,0,0,6.4-.1,31.75,31.75,0,0,0,6.1-1.4,11.118,11.118,0,0,0,3.4-1.8c1.6-1.5,2.4-3.6,3.3-5.4a47.974,47.974,0,0,0,2.6-5.7,14.549,14.549,0,0,0,1.2-4.2,3.673,3.673,0,0,0-.1-1.8"/></g></g><path class="v" d="M132.9,142.5c-.7.7-2.8,2.7-5.3,5.1-3.6,3.4-8,7.3-9.8,8.2-2.8-4.6-6-22.8-9.8-24.9-.1-.1-.3-.1-.4-.2a8.264,8.264,0,0,0,1.3-.7l7.1-1.2c.3.5,3.6,4.9,7.8.4a3.039,3.039,0,0,1-.5-.7h.2l4.6-.2,2.4-.1a38.416,38.416,0,0,1,1.5,9.5A11.985,11.985,0,0,0,132.9,142.5Z" transform="translate(2487.938 -1870.4)"/><g transform="translate(2487.938 -1870.4)"><g class="x" transform="translate(67.697 52.42)"><path class="p" d="M68.2,96.7c-.4-.1-.9.2-1.3.2H65.4a23.079,23.079,0,0,1-3.7-.3,5.482,5.482,0,0,0-2.5-.4c-.8.1-1.4.4-2.2.5a5.854,5.854,0,0,1-1.7,1,11.919,11.919,0,0,1-2,.8c-1.1.2-2.3.1-3.4.3a17.853,17.853,0,0,0-2.3.2,7.8,7.8,0,0,0-.3,2.2,15.525,15.525,0,0,1-.4,2.1c-.1.7-.5,1.3-.6,2a12.5,12.5,0,0,1-.3,1.9"/></g></g><path class="n" d="M133.5,142.1c0,.1-.1.3-.1.4l-.3-.3-.2.2a16.445,16.445,0,0,1-1-4.9,43.742,43.742,0,0,0-1.5-9.5C132.2,129.1,133,135.7,133.5,142.1Z" transform="translate(2487.938 -1870.4)"/><path class="c" d="M151.7,143.8l-16.3,3.3,6.8-27.9,16.3-3.3Z" transform="translate(2487.938 -1870.4)"/><path class="m" d="M142.7,142c-1.6,1.3-4.4,1.4-5.4,1.4a2.1,2.1,0,0,0-1.1.4,3.915,3.915,0,0,0-1,.8h0c-.3.2-.5.5-.7.6a1.2,1.2,0,0,0-.4.4l-.3-.4h0l-.5-.8v-1.1h0c0-.3.1-.6.1-.8,0-.1.1-.3.1-.4a2.827,2.827,0,0,1,1.4-1.8,5.022,5.022,0,0,1,2.1-.2c1.7.1,3.5.6,4.5-.6C142.9,137.8,144.3,140.7,142.7,142Z" transform="translate(2487.938 -1870.4)"/><path class="q" d="M122.6,124.3a8.864,8.864,0,0,1-1.7-.8c-.6-.5-1.3-.9-1.9-1.4l-.6,2.5c-.1-.1-.2-.1-.4-.2a9,9,0,0,1-.3,1.6,43.09,43.09,0,0,1,4.6-.5A2.663,2.663,0,0,0,122.6,124.3Z" transform="translate(2487.938 -1870.4)"/><path class="m" d="M117.9,126a3.749,3.749,0,0,1-2,2.7h0c.3.5,3.6,4.9,7.8.4a3.039,3.039,0,0,1-.5-.7,5.087,5.087,0,0,1-.6-3A39.413,39.413,0,0,0,117.9,126Z" transform="translate(2487.938 -1870.4)"/><path class="n" d="M135.3,144.2l-.2.3h0a9.015,9.015,0,0,1-.7,1.1l-.6.9c-.9,1.5-2.2,3.5-3.7,5.6-.5.6-.9,1.3-1.4,1.9-.7,1-1.5,1.9-2.3,2.9-4.4,5.1-9.4,8.8-12.3,4.2-2.7-4.3-6.5-13.6-8.6-20.4-.6-4-.8-7.6.4-9.5l1.5-.6c.1.1.3.1.4.2,3.8,2.1,7,20.3,9.8,24.9,1.8-.9,6.2-4.8,9.8-8.2,2.5-2.3,4.6-4.4,5.3-5.1l.2-.2.3.3.2.1h0Z" transform="translate(2487.938 -1870.4)"/><g transform="translate(2487.938 -1870.4)"><g class="y" transform="translate(65.274 55.028)"><path class="p" d="M38,78.9c.5.7,1.4,1.2,1.9,1.8s.9,1.6,1.5,2c.3,1.4.8,2.9,1.1,4.3a38.1,38.1,0,0,0,1.3,4.5c.8,2.5,1.7,5,2.7,7.4.5,1,.9,1.9,1.4,2.8.4.7.8,1.3,1.2,2.1h.2v.2c1.1.8,1.8,1.6,3.1,1.7a4.665,4.665,0,0,0,3.4-1.1c.9-.7,1.7-1.5,2.6-2.2a12.266,12.266,0,0,0,2.3-2.8,2.286,2.286,0,0,0,.7-1c.8-.3,1.5-1.6,2.2-2.2.7-.5,1.7-1.5,2.6-1.5v-.1c.2-.1.1,0,.3-.2.5-.1,1.2-.5,1.8-.1.5.3.6,1.5.7,2.1a16.675,16.675,0,0,1-1.2,6.2,29.258,29.258,0,0,1-3.7,6.7,25.386,25.386,0,0,1-7.3,7.3,34.042,34.042,0,0,1-6.5,2.9,13.666,13.666,0,0,1-4.5.7c-3.2-.2-5.6-2.6-7-5.3-3-6.2-1.1-13-1.1-19.6,0-5.9.1-11.9.1-17.8"/></g></g><path class="z" d="M192.7,160.6h-1.2s-2.5,1.4-2.5,2.1a1.16,1.16,0,0,1-.4,1,10.679,10.679,0,0,0,2.5-.3,2.934,2.934,0,0,1,1.6-.4h1.4c.4,0,.5-.2.9-.1s.6-.4.8-.8.6-.7.5-.9a10.054,10.054,0,0,0-2.5-.4" transform="translate(2487.938 -1870.4)"/><path class="n" d="M224.5,126.2a4.951,4.951,0,0,1,1.3-.4l.5-8.8-.7-1.1s-11,16.2-19.9,26.8c-9.2,10.9-14.3,17.9-14.3,17.9a5.853,5.853,0,0,0,2.7,1.4c3.7-4,16.8-18.1,18-19.9C213.5,140,224.5,126.2,224.5,126.2Z" transform="translate(2487.938 -1870.4)"/><path class="aa" d="M213,145.1,225.6,129l.2-3.2a6.468,6.468,0,0,0-1.3.4s-11,13.8-12.4,15.8c-1.2,1.7-14.3,15.9-18,19.9.2,0,.5.1.7.1l2,.4C201.4,158.2,211.6,147,213,145.1Z" transform="translate(2487.938 -1870.4)"/><path class="z" d="M225.6,252a15.913,15.913,0,0,1-2.4,2c-.1,0-.1.1-.2.1-.4,2.9,5,1,7.5,0V253a.6.6,0,0,0-.1-.4A4.464,4.464,0,0,1,225.6,252Z" transform="translate(2487.938 -1870.4)"/><path class="z" d="M229.8,251.3l-2.6-.9s-.7.8-1.6,1.7a4.851,4.851,0,0,0,4.9.7l-.3-1.4Z" transform="translate(2487.938 -1870.4)"/><path class="n" d="M230.9,258.4a1.606,1.606,0,0,1-.5,1.1c-.1.1-.1.1-.2,0H215.4a3.7,3.7,0,0,1,1.4-3.2c1.5-1,4.8-1.4,6.3-2.2-.4,2.9,5,1,7.5,0A22.745,22.745,0,0,1,230.9,258.4Z" transform="translate(2487.938 -1870.4)"/><path class="ab" d="M230.5,259.5v.9H215.4v-.9h14.8s.1.1.3,0Z" transform="translate(2487.938 -1870.4)"/><path class="z" d="M251.9,253.5a31.205,31.205,0,0,1-1.5,3.9v1c1.6-1.7,3.1.6,3.1.6,1.2-.4,2.3-2.5,2.9-3.8h0a13.78,13.78,0,0,0-.6-1.6A3.664,3.664,0,0,1,251.9,253.5Z" transform="translate(2487.938 -1870.4)"/><path class="z" d="M255.8,253.5a10.378,10.378,0,0,0-.3-1.2,3.749,3.749,0,0,1-.1-1.1l-.6.4h-2.5a3.2,3.2,0,0,1-.1.7h0a10.378,10.378,0,0,0-.3,1.2A3.469,3.469,0,0,0,255.8,253.5Z" transform="translate(2487.938 -1870.4)"/><path class="n" d="M257.3,259.3a5.48,5.48,0,0,1-1.8,1.6c-1.4.8-.6.7-2.5,3.6-1.5,2.2-5.7.3-7.5-.6a2.432,2.432,0,0,1,1.3-2.4,12.856,12.856,0,0,0,3.6-4.1v1c1.6-1.7,3.1.6,3.1.6,1.2-.4,2.3-2.5,2.9-3.8.1.2.1.4.2.5A9.223,9.223,0,0,1,257.3,259.3Z" transform="translate(2487.938 -1870.4)"/><path class="ab" d="M257.3,259.3a3,3,0,0,1-1.6,2.6c-1.5.9-1.1,2.8-2.9,4.3s-7.2-.5-7.3-1.3c0-.3-.1-.6-.1-1,1.8,1,6,2.8,7.5.6,1.9-2.9,1.2-2.8,2.5-3.6A4.944,4.944,0,0,0,257.3,259.3Z" transform="translate(2487.938 -1870.4)"/><path class="ab" d="M230.3,251.6l-5.1-.6c-3.2-12.8-4-25.8-6-38.6.5-24.2,7.4-44.5,8.7-49.1,11.2,8.6,24.6,2.4,24.9,2.3-13.8,11.2-19.7,30.5-21.9,48C230.9,233.6,230.3,251.6,230.3,251.6Z" transform="translate(2487.938 -1870.4)"/><path class="ab" d="M229.6,161.2l-1.1,1.6s5.8,5.7,16.2,52.2c2.3,10.3,3.5,22.5,6.3,37.2h4.6s3.1-31-2.6-40.9c1-19.1,1.3-34.9,0-45.8,0,0-9.8-3.4-10.3-3.4S229.6,161.2,229.6,161.2Z" transform="translate(2487.938 -1870.4)"/><g transform="translate(2487.938 -1870.4)"><path class="n" d="M255.2,252.2h-.4c.6-10.1-15.4-89.4-15.6-90.2l.4-.1C239.8,162.7,255.8,242,255.2,252.2Z"/><path class="n" d="M229.1,251.4a164.27,164.27,0,0,1-2.1-29.7,149.565,149.565,0,0,1,2.4-23.1,104.272,104.272,0,0,1,5.8-20.3l.4.2a101.125,101.125,0,0,0-5.7,20.2,152.346,152.346,0,0,0-.4,52.6Z"/></g><path class="ac" d="M253.4,170.5c-.2.1-15,6-26.2-2.7a2.182,2.182,0,0,1-.5-.4,44.857,44.857,0,0,0,2.9-20.8c-.1-.9-.3-1.9-.4-2.9a32.074,32.074,0,0,0-1.5-5.3c-.2-.5-.4-1.1-.6-1.6-.3-.8-5.9-11.8-1.3-21l7.2.2,3.4-.2,1.3.9s8.4.4,12.6,3a7.939,7.939,0,0,1,2.2,1.9l.1.1s.1.9.2,2.5c.3,5.6.9,20.2.4,41.2Z" transform="translate(2487.938 -1870.4)"/><path class="z" d="M240.7,106.3c-.5,2.2-2.2,1.6-2.2,1.6l-.3.3-.5.5a15.916,15.916,0,0,1-2.2,1.3,13.564,13.564,0,0,1-2.9.6c-5.6.1-3.5-7.5-2-11.5a23.942,23.942,0,0,1,1-2.4,6.672,6.672,0,0,0,5.3,1.1c.3,1.6,2.4,2.2,2.4,2.2l-.4,5.1s.4-.6.7-.7S241.1,104.1,240.7,106.3Z" transform="translate(2487.938 -1870.4)"/><path class="r" d="M248,100c-.8.7-1.8,2.6-1.2,3.6s-1,2.6-2.4,2.6-1.1,1.6-1.2,2-1.6,2.4-2.8,2.1-2.2-.4-2.4.3v.1a6.279,6.279,0,0,1-.3-1.9,1.205,1.205,0,0,0,.5-.5l.3-.3s1.8.6,2.2-1.6-.8-1.9-1.1-1.8-.7.7-.7.7l.4-5.1s-2.1-.6-2.4-2.2a6.591,6.591,0,0,1-5.3-1.1s-.4,1-1,2.4c0,0-2.7-1.2-2.3-3.8s1.6-2.3,1.8-3.2-.5-1.7.2-3a3.19,3.19,0,0,1,4.6-1.2c1.9,1.3,3.2,1,3.6.6s5.2-3.3,7.5,1.7a3.58,3.58,0,0,0,2,2.6C248.6,93.2,252.5,95.8,248,100Z" transform="translate(2487.938 -1870.4)"/><path class="z" d="M204.1,103.6l5.2,4.7,2.6,8.6-2.3,1.5s-2.8-6.9-4.8-7.9S200.6,105,204.1,103.6Z" transform="translate(2487.938 -1870.4)"/><path class="ad" d="M237.2,112.6c.1-.3.1-.5.2-.8.2-.5.3-.8.4-1.1a5.945,5.945,0,0,1-.3-1.9,15.916,15.916,0,0,1-2.2,1.3,13.564,13.564,0,0,1-2.9.6l-.1.2c.1.6.2,1.1.3,1.7A5.3,5.3,0,0,1,237.2,112.6Z" transform="translate(2487.938 -1870.4)"/><path class="ae" d="M237.2,112.6a5.843,5.843,0,0,0-4.5-.1,8.1,8.1,0,0,1-.3,3.8v.1h0c-.9,2.1,3.4,3.1,5.4,1.2a4.418,4.418,0,0,1-.6-1.6A9.709,9.709,0,0,1,237.2,112.6Z" transform="translate(2487.938 -1870.4)"/><path class="n" d="M252.2,121.7c-3.1,3.2-16.2,17-19.8,19.6-1.4,1-2.4,1.9-3.4,2.5-1.9,1.1-3.3,1.1-6-1.7-3.5-3.7-11.9-21.9-14.2-26.9l2.3-1.2c.7,3.2,14.9,25.6,14.9,25.6a14.987,14.987,0,0,0,1.6-1c5.3-3,15.2-14,19.5-17.4a5.149,5.149,0,0,1,2.9-1.3A4.89,4.89,0,0,1,252.2,121.7Z" transform="translate(2487.938 -1870.4)"/><path class="ab" d="M252.6,125.8c-2.4,4.3-14.3,17-22,21.5-2,1.2-4.5,1.7-5.5,1.3-5.3-2-17.6-32.7-17.6-32.7l1.4-.8c2.3,4.9,10.7,23.2,14.2,26.9,2.7,2.8,4.1,2.8,6,1.7,1-.6,2-1.5,3.4-2.5,3.6-2.5,16.7-16.4,19.8-19.6l.1.1A41,41,0,0,0,252.6,125.8Z" transform="translate(2487.938 -1870.4)"/><path class="af" d="M245.4,191.5h-.2c0-1-.8-2.1-2.3-3L202,164.9a17.721,17.721,0,0,0-12.4-1.4L98.2,191.4c-2,.6-3,1.7-3,2.9h-.1v8.9h.1c-.1,1,.6,2.2,2,3.2L141,237.9a13.876,13.876,0,0,0,11.9,1.5l89.7-35.8c.3-.1.6-.3.9-.4h.2l.1-.2a2.806,2.806,0,0,0,1.6-2.3l.2-.2Z" transform="translate(2487.938 -1870.4)"/><path class="ag" d="M243,188.5c3.2,1.9,3.1,4.5-.4,5.9l-89.7,35.8a13.919,13.919,0,0,1-11.9-1.5L97.2,197.2c-3-2.2-2.6-4.9,1-6l91.4-27.9a18.285,18.285,0,0,1,12.4,1.4Z" transform="translate(2487.938 -1870.4)"/><path class="g" d="M102.8,193.4l48.7,34.4,86.3-34.6-47.4-27.5Z" transform="translate(2487.938 -1870.4)"/><path class="ah" d="M194.5,138.6a55.668,55.668,0,0,1-19-6.1.75.75,0,0,0-.9,0,56.006,56.006,0,0,1-19.6,6.1c-.4.1-.6.2-.6.6.2,4.4.4,8.8.5,13.1a41.522,41.522,0,0,0,.7,7c2.4,10.8,8.7,19,19,24.3a1.1,1.1,0,0,0,.8,0,34.5,34.5,0,0,0,11.4-9,33.99,33.99,0,0,0,8-19.1c.2-2.7.3-5.3.4-8h0l.3-7.8C195.6,138.7,195.6,138.8,194.5,138.6Z" transform="translate(2487.938 -1870.4)"/><path class="ai" d="M192.8,140.6a58.256,58.256,0,0,1-17.3-5.5.908.908,0,0,0-1,0,58.255,58.255,0,0,1-17.3,5.5c-.3.1-.4.2-.4.5l.3,6.9h.1v3.2a42.923,42.923,0,0,0,1.2,10.1,33.051,33.051,0,0,0,16.2,20.2.6.6,0,0,0,.8,0,25.939,25.939,0,0,0,3.9-2.5,32.014,32.014,0,0,0,13.3-24c.3-4.6.4-9.2.6-13.8C193.3,140.6,193.1,140.6,192.8,140.6Z" transform="translate(2487.938 -1870.4)"/><path class="aj" d="M190.4,142.3a62.026,62.026,0,0,1-15.1-4.9.854.854,0,0,0-.7,0,61.289,61.289,0,0,1-15,4.9c-.4.1-.5.2-.4.5.1,2.5.2,5.1.3,7.6a48.657,48.657,0,0,0,.6,7.6,30.577,30.577,0,0,0,14.6,20.7.483.483,0,0,0,.7,0,29.724,29.724,0,0,0,6.5-5.2,29.421,29.421,0,0,0,8.2-16.7,64.883,64.883,0,0,0,.4-7.2c.1-2.7.2-4.8.3-6.9C190.9,142.5,190.8,142.4,190.4,142.3Z" transform="translate(2487.938 -1870.4)"/><path class="d" d="M175,164.9h-4.7a.749.749,0,0,1-.5-.1.792.792,0,0,1-.5-.8v-8.7a.9.9,0,0,1,.9-.9h9.6a1.268,1.268,0,0,1,.6.1.67.67,0,0,1,.4.7V164a.882.882,0,0,1-.8.9h-5Zm-.6-4.3v.8c0,.4.2.7.6.7s.7-.2.7-.6v-1.8c0-.1,0-.2.1-.2a1.643,1.643,0,0,0,.7-1.6,1.492,1.492,0,0,0-2.9.7,1.691,1.691,0,0,0,.7,1c.1,0,.1.1.1.2v.8Z" transform="translate(2487.938 -1870.4)"/><path class="d" d="M179.6,153.6h-1.8v-2.7a2.8,2.8,0,0,0-2.8-2.8,2.757,2.757,0,0,0-2.8,2.6,22.551,22.551,0,0,0,0,2.6v.4h-1.8v-2.9a4.673,4.673,0,0,1,4.8-4.5,4.722,4.722,0,0,1,4.3,3.3,5.066,5.066,0,0,1,.2,1.3v2.6Z" transform="translate(2487.938 -1870.4)"/><path class="ak" d="M161.1,181.8h0c.1-.6-.3-1.2-1.1-1.7l-13.3-8.5a7.575,7.575,0,0,0-5.9-.6l-15.3,5.8c-1,.4-1.4.9-1.4,1.5v2.3a1.878,1.878,0,0,0,1.1,1.6l13.3,8.5a7.575,7.575,0,0,0,5.9.6l15.3-5.8a1.939,1.939,0,0,0,1.4-1.4h0Z" transform="translate(2487.938 -1870.4)"/><path class="al" d="M160,180.1c1.5,1,1.4,2.3-.3,3l-15.3,5.8a7.574,7.574,0,0,1-5.9-.6l-13.3-8.5c-1.5-1-1.4-2.3.3-3l15.3-5.8a7.574,7.574,0,0,1,5.9.6Z" transform="translate(2487.938 -1870.4)"/><g transform="translate(2487.938 -1870.4)"><path class="am" d="M134.5,181.4c0,.4.1.8.1,1.2q0,.15-.3.3c-.2,0-.4-.1-.4-.2a7.79,7.79,0,0,1,.5-4.3c.8-2.1,3.7-3.6,7.2-3.9,4.5-.4,8.6,1.3,9.7,3.9a3.312,3.312,0,0,1,0,2.4,1.939,1.939,0,0,0,.3,1.8c.1.2.1.3-.1.4a.365.365,0,0,1-.5-.2,2.157,2.157,0,0,1-.3-2.2c.9-2.6-1.9-5.2-6.3-5.7-4.3-.5-8.4,1.2-9.3,3.8A6.264,6.264,0,0,0,134.5,181.4Z"/><path class="am" d="M137.8,181.4a6.65,6.65,0,0,0,.9,3.4.1.1,0,0,0,.1.1c0,.1-.1.2-.2.3-.2,0-.3,0-.4-.1a3.552,3.552,0,0,1-.4-.9,6.375,6.375,0,0,1,0-5.4c.6-1.4,2.8-2.4,5.2-2.4,2.6,0,4.7,1.1,5.2,2.6a2.917,2.917,0,0,1-.1,1.6,3.387,3.387,0,0,0,1.2,3.6c.2.2.2.3,0,.4s-.4,0-.6-.2a3.755,3.755,0,0,1-1.2-4.2c.6-1.6-1.2-3.1-3.9-3.4-2.4-.2-4.7.8-5.2,2.2A5.325,5.325,0,0,0,137.8,181.4Z"/><path class="am" d="M141.1,181.2a6.1,6.1,0,0,0,1.5,4.1l.1.1c.1.1,0,.2-.2.3s-.3,0-.5-.1c-.2-.3-.4-.5-.6-.8a5.953,5.953,0,0,1-1.1-3.9,7.492,7.492,0,0,1,.4-1.6c.2-.7,1.3-1.1,2.4-.9,1,.1,1.7.8,1.5,1.4a7.613,7.613,0,0,0-.3,2.1A5.32,5.32,0,0,0,146,185l.1.1c.1.1.1.2-.1.3a.44.44,0,0,1-.5-.1,10.593,10.593,0,0,1-1-1.2,4.548,4.548,0,0,1-.8-3.6c.1-.3.1-.5.2-.8.2-.5-.3-.9-1-1a1.658,1.658,0,0,0-1.6.6A11.074,11.074,0,0,1,141.1,181.2Z"/><path class="am" d="M142.7,173.4a24.585,24.585,0,0,1,2.8.2q.45,0,.3.3c-.1.2-.2.2-.5.1a14.306,14.306,0,0,0-9.5,1.5.6.6,0,0,1-.4.1.158.158,0,1,1-.1-.3,15.95,15.95,0,0,1,2.7-1.2A16.241,16.241,0,0,1,142.7,173.4Z"/><path class="am" d="M153.2,179.6c-.1.4-.2.9-.3,1.3,0,.2-.2.2-.4.2a.265.265,0,0,1-.3-.3,3.314,3.314,0,0,0-.4-3.2,5.814,5.814,0,0,0-1.7-1.8.1.1,0,0,1-.1-.1.187.187,0,0,1,0-.3.454.454,0,0,1,.5,0c.2.2.5.3.7.5a5.305,5.305,0,0,1,2,3.7Z"/><path class="am" d="M135.4,181.4c.1-.6.2-1.1.3-1.7a.349.349,0,0,1,.1-.2h.4a.215.215,0,0,1,.2.2.9.9,0,0,1-.1.5,6.608,6.608,0,0,0,0,2.8c.1.4.2.7.3,1.1v.1c0,.1-.1.2-.3.2s-.3,0-.4-.2a6.89,6.89,0,0,1-.3-.8,12.311,12.311,0,0,1-.2-2Z"/><path class="am" d="M136,178.6c0-.1.1-.2.1-.3.8-1.4,2.4-2.4,4.8-2.8h.1c.2,0,.3,0,.4.1s0,.2-.2.3l-1.2.3a4.912,4.912,0,0,0-3.3,2.5v.1c-.1.1-.3.2-.4.1A.265.265,0,0,1,136,178.6Z"/><path class="am" d="M138.8,181.9v-.3c0-.2.1-.2.3-.3s.3.1.4.2a2.2,2.2,0,0,0,.1.8,9.612,9.612,0,0,0,1.1,2.8l.1.1c.1.1,0,.2-.2.3a.44.44,0,0,1-.5-.1c-.2-.4-.5-.8-.7-1.2A8.647,8.647,0,0,1,138.8,181.9Z"/><path class="am" d="M143.2,175.4a8.659,8.659,0,0,1,5.4,1.9c.1.1.1.3-.1.3a.44.44,0,0,1-.5-.1,6.936,6.936,0,0,0-3.6-1.6,4.868,4.868,0,0,0-1.2-.1h-.3c-.2,0-.3-.1-.2-.2s.1-.2.3-.2Z"/><path class="am" d="M142.1,181.4a5.663,5.663,0,0,1,.3-1.8.215.215,0,0,1,.2-.2h.3c.1,0,.1.1.1.2a1.422,1.422,0,0,1-.2.6,4.926,4.926,0,0,0,.1,2.7q.15.3-.3.3c-.2,0-.4,0-.4-.2C142.2,182.5,142.1,182,142.1,181.4Z"/><path class="am" d="M149.9,179.5a3.553,3.553,0,0,0-.2,1c-.1.3-.1.5-.2.8,0,.1-.2.2-.4.2s-.3-.1-.3-.2c.1-.4.1-.7.2-1a2.5,2.5,0,0,0-.1-1.7c-.1-.2,0-.3.2-.3a.365.365,0,0,1,.5.2h0C149.7,178.8,149.8,179.2,149.9,179.5Z"/><path class="am" d="M147.9,184.9c-.1.1-.2.1-.2.2a.6.6,0,0,1-.4-.1l-.3-.3a5.328,5.328,0,0,1-1.3-2c-.1-.1,0-.3.2-.3s.3,0,.4.2a5.957,5.957,0,0,0,1.4,2.1C147.8,184.8,147.9,184.8,147.9,184.9Z"/><path class="am" d="M135.1,176.1c0,.1-.1.1-.2.2a4.26,4.26,0,0,0-1.5,2,.4.4,0,0,1-.4.2.265.265,0,0,1-.3-.3,6.914,6.914,0,0,1,1.6-2.2.6.6,0,0,1,.4-.1A.52.52,0,0,1,135.1,176.1Z"/><path class="am" d="M146.4,179c0,.1-.1.2-.3.2a.6.6,0,0,1-.4-.1l-.1-.1a3.037,3.037,0,0,0-2.1-1.2c-.2,0-.4-.1-.3-.2,0-.1.2-.2.5-.2a3.758,3.758,0,0,1,2.6,1.4C146.3,178.9,146.3,179,146.4,179Z"/><path class="am" d="M144.2,185.7a.349.349,0,0,1-.2-.1,10.918,10.918,0,0,1-1.3-1.7c-.1-.1,0-.2.2-.3a.365.365,0,0,1,.5.2,6.1,6.1,0,0,0,1.2,1.6C144.7,185.6,144.6,185.7,144.2,185.7Z"/><path class="am" d="M145.4,181.4c.1-.5.2-.9.3-1.4,0-.2.2-.2.4-.2s.3.1.2.3a3.21,3.21,0,0,0-.2,1.7v.1c0,.1-.2.2-.3.2s-.3-.1-.3-.2a.9.9,0,0,1-.1-.5Z"/><path class="am" d="M138.8,180.7c.1-.5.3-1.1.4-1.6,0-.1.2-.2.4-.2a.265.265,0,0,1,.3.3c-.1.5-.3,1.1-.4,1.6,0,.2-.2.3-.4.3s-.3-.1-.3-.4Z"/><path class="am" d="M149.6,175c0,.2-.2.3-.5.2-.1,0-.1,0-.2-.1a14.272,14.272,0,0,0-2.2-.8.349.349,0,0,1-.2-.1c0-.1,0-.2.1-.2s.3-.1.4,0l1.8.6.6.3C149.5,174.9,149.5,174.9,149.6,175Z"/><path class="am" d="M150.6,183.7c-.1.1-.2.1-.2.2a.6.6,0,0,1-.4-.1c-.1-.1-.2-.1-.2-.2a3.924,3.924,0,0,1-.8-1.4q0-.15.3-.3c.2,0,.4,0,.4.2a4.194,4.194,0,0,0,.9,1.4C150.5,183.5,150.5,183.6,150.6,183.7Z"/><path class="am" d="M140.2,178.6c-.1,0-.2-.1-.3-.1-.1-.1,0-.2.1-.2a5.225,5.225,0,0,1,1.5-.7,4.331,4.331,0,0,1,.5-.1c.2,0,.3,0,.4.1s0,.2-.2.3a4.418,4.418,0,0,0-1.6.6A.584.584,0,0,0,140.2,178.6Z"/></g><path class="an" d="M187.9,200.6h0c.1-.6-.3-1.2-1.1-1.7l-13.3-8.5a7.575,7.575,0,0,0-5.9-.6l-15.3,5.8c-1,.4-1.4.9-1.4,1.5v2.4a1.878,1.878,0,0,0,1.1,1.6l13.3,8.5a7.575,7.575,0,0,0,5.9.6l15.3-5.8a1.939,1.939,0,0,0,1.4-1.4h0Z" transform="translate(2487.938 -1870.4)"/><path class="al" d="M186.8,198.9c1.5,1,1.4,2.3-.3,3l-15.3,5.8a7.574,7.574,0,0,1-5.9-.6L152,198.6c-1.5-1-1.4-2.3.3-3l15.3-5.8a7.574,7.574,0,0,1,5.9.6Z" transform="translate(2487.938 -1870.4)"/><g transform="translate(2487.938 -1870.4)"><path class="g" d="M175.1,196.4l4,2.6a22.629,22.629,0,0,1,2,1.3c.5.3.6.7.1,1-.1,0-.1.1-.2,0-3.1-.6-6.2-1.2-9.4-1.7-.4-.1-.7-.1-1.1-.2a3.7,3.7,0,0,1-1.8-.8,2.092,2.092,0,0,1-.4-.6c-.2-.8-.4-1.7-.6-2.5l-.6-3c0-.1,0-.1.1-.1a3.194,3.194,0,0,1,1.9.3l3.3,2.1,2.7,1.6Z"/><path class="g" d="M163.9,200.5l-4.2-2.7-1.5-.9c-.5-.3-.5-.7-.1-1h.2c3,.6,6,1.1,9,1.7.1,0,.1,0,.2.1.1.2.1.5.3.7a3.158,3.158,0,0,0,2.2,1.3,3.6,3.6,0,0,0,1.1.2c.1,0,.1,0,.1.1.3,1.6.7,3.2,1.1,4.8a.1.1,0,0,1-.1.1,2.965,2.965,0,0,1-1.9-.3c-1.1-.7-2.3-1.5-3.4-2.2Z"/><path class="g" d="M180.4,201.6l-7.5,2.9c-.3-1.5-.7-3-1-4.5Z"/><path class="g" d="M166.4,192.6c.3,1.5.7,3,1,4.5l-8.5-1.6Z"/></g><path class="ao" d="M217.8,189.3h0c.1-.6-.3-1.2-1.1-1.7l-13.3-8.5a7.575,7.575,0,0,0-5.9-.6l-15.3,5.8c-1,.4-1.4.9-1.4,1.5v2.4a1.878,1.878,0,0,0,1.1,1.6l13.3,8.5a7.575,7.575,0,0,0,5.9.6l15.3-5.8a1.939,1.939,0,0,0,1.4-1.4h0Z" transform="translate(2487.938 -1870.4)"/><path class="al" d="M216.8,187.6c1.5,1,1.4,2.3-.3,3l-15.3,5.8a7.574,7.574,0,0,1-5.9-.6L182,187.3c-1.5-1-1.4-2.3.3-3l15.3-5.8a7.574,7.574,0,0,1,5.9.6Z" transform="translate(2487.938 -1870.4)"/><path class="ap" d="M208.8,184.1c0,1.2-1.6,2.2-3.5,2.2s-3.5-1-3.5-2.2,1.6-2.2,3.5-2.2S208.8,182.8,208.8,184.1Z" transform="translate(2487.938 -1870.4)"/><path class="ap" d="M193.9,191.5l-3.7-2.2a.72.72,0,0,1,.1-1.3l8.8-3.4a.471.471,0,0,1,.6.1l3.7,2.2a.72.72,0,0,1-.1,1.3l-8.8,3.4A.614.614,0,0,1,193.9,191.5Z" transform="translate(2487.938 -1870.4)"/><path class="aq" d="M213.8,137.7l-26.4-7.4V90.2l26.4,7.4Z" transform="translate(2487.938 -1870.4)"/><path class="ar" d="M197.9,106.2l-9.4-2.6V92.1l9.4,2.6Z" transform="translate(2487.938 -1870.4)"/><path class="as" d="M196.5,99c.1,2.4-1.3,4.3-3.1,4.4s-3.3-1.8-3.4-4.2,1.3-4.3,3.1-4.4S196.4,96.6,196.5,99Z" transform="translate(2487.938 -1870.4)"/><path class="as" d="M212.3,101.7l-13.8-3.9v-.9l13.8,3.9Z" transform="translate(2487.938 -1870.4)"/><path class="as" d="M212.3,104.3l-13.8-3.9v-.9l13.8,3.9Z" transform="translate(2487.938 -1870.4)"/><path class="as" d="M212.3,106.9,198.5,103v-.9l13.8,3.9Z" transform="translate(2487.938 -1870.4)"/><path class="as" d="M212.3,109.5l-13.8-3.9v-.9l13.8,3.9Z" transform="translate(2487.938 -1870.4)"/><path class="as" d="M211.1,116.2l-9.1-2.5v-.9l9.1,2.5Z" transform="translate(2487.938 -1870.4)"/><path class="as" d="M211.1,119.4l-9.1-2.5V116l9.1,2.5Z" transform="translate(2487.938 -1870.4)"/><path class="as" d="M211.1,122.7l-9.1-2.5v-.9l9.1,2.5Z" transform="translate(2487.938 -1870.4)"/><path class="as" d="M211.1,125.9l-9.1-2.5v-.9l9.1,2.5Z" transform="translate(2487.938 -1870.4)"/><g class="at" transform="translate(2637.33 -1837.299)"><path class="au" d="M46.2,76.5a5.853,5.853,0,0,1,1.3.2,6.141,6.141,0,0,1,3.9,4.1,9.462,9.462,0,0,1,.5,3.3,7.719,7.719,0,0,1-.2,1.5v.1h-.1c-.1,0-.2-.1-.3-.1-.2-.1-.5-.2-.7-.3-.1-.1-.1-.1-.1-.2a3.812,3.812,0,0,0,.1-1.5,6.284,6.284,0,0,0-1.2-3.7A4.63,4.63,0,0,0,47,78.2a1.949,1.949,0,0,0-.8-.1c-.1,0-.2,0-.2-.2V76.6C46.2,76.6,46.2,76.5,46.2,76.5Z"/><path class="av" d="M41,80.7c0-.1,0-.1-.1-.2a1.645,1.645,0,0,1-.2-1,1.05,1.05,0,0,1,.5-.9.854.854,0,0,1,.7,0H42c.1,0,.1.1.2.1l.2.2c0,.1.1.2.1.3a1.472,1.472,0,0,1-.6,1.7.638.638,0,0,1-.6,0C41.2,80.9,41.1,80.8,41,80.7Z"/><path class="aw" d="M43,77.7a1.465,1.465,0,0,1,.2-1.1.8.8,0,0,1,1.1-.3l.1.1c.1.1.1.2.2.2a.764.764,0,0,1,.2.5,1.344,1.344,0,0,1-.6,1.4,1,1,0,0,1-1.2-.4h0c.1,0,0-.1,0-.2v-.2Z"/><path class="ax" d="M46.5,75.6a5.683,5.683,0,0,1,3.8,1.8l.5.5c0,.1.1.1,0,.2-.2.2-.2.2-.4,0a5,5,0,0,0-3.4-2c-.2,0-.4-.1-.6-.1-.1,0-.1,0-.1-.1C46.2,75.6,46.2,75.6,46.5,75.6Z"/><path class="ay" d="M40.8,84.8v.3c0,.2,0,.2-.2.2a.908.908,0,0,1-.7-.3.367.367,0,0,1-.1-.3V83a.764.764,0,0,1,.2-.5c.1-.1.2-.1.4-.1.1,0,.1,0,.1-.1.1.1.2,0,.3,0h.1c.1,0,.1,0,.2.1.1,0,.2.1.3.1.2.1.3.2.3.6v.5h0v-.4c-.1.1-.1.2-.2.2a.9.9,0,0,1-.5.1c-.1,0-.1.1-.1.2V84c0,.1-.1,0-.1,0a1.135,1.135,0,0,1-.8-.3c0,.1.1.1.1.2v.3c0,.1.1.2.2.3a.1.1,0,0,0,.1-.1v-.3a.749.749,0,0,1,.5.1v.5a.1.1,0,0,1-.1.1,1.613,1.613,0,0,1-.9-.3c0,.1.1.1.1.2v.2c0,.2,0,.2.1.3s.1,0,.1-.1v-.3Z"/><path class="az" d="M50.9,88.8c-.1.1-.2.3-.3.4,0,.1-.1.1-.2,0h0c-.1-.1-.1-.2-.2-.2a1.38,1.38,0,0,1-.3-.4c-.1-.1-.1-.2-.2-.2,0-.1-.1-.1-.1-.2v-.8a.1.1,0,0,1,.1-.1h.1c0,.1.1.1.1.2v.1c0,.1,0,.2.1.1h.1c.1,0,.1.1.1.2A3.514,3.514,0,0,1,50.9,88.8Z"/><path class="ba" d="M50.9,88.8h0c-.3-.4-.6-.7-.9-1.1l-.1-.1a.215.215,0,0,0-.2-.2c-.1,0-.1-.1-.2-.2a.1.1,0,0,1,.1-.1h.5c.2,0,.3.1.4.3.1.1.2.3.3.4l.2.3a.188.188,0,0,1,0,.3C51.1,88.6,51,88.7,50.9,88.8Z"/><path class="bb" d="M50.9,87.8a1.38,1.38,0,0,1-.3-.4v-.1l.6-1.5c0-.1,0-.1.1-.1s.2.1.4.1a5.782,5.782,0,0,1-.5,1.4C51.2,87.4,51,87.6,50.9,87.8Z"/><path class="bc" d="M44.8,77.2c0-.2-.1-.3-.2-.5a5.16,5.16,0,0,1,1.1-.2h.4V77s-.1.1-.1,0a5.019,5.019,0,0,0-1.2.2Z"/><path class="bd" d="M41,82.4c-.1.1-.2.1-.4,0v-.1l.3-1.5c0-.1,0-.1.1-.2.1,0,.1,0,.1.1.1.1.2.1.2.2V81L41,82.2C41,82.3,41,82.4,41,82.4Z"/><path class="be" d="M43,77.7c0,.2.1.3.2.5a.1.1,0,0,1-.1.1,4.349,4.349,0,0,0-.6.7.1.1,0,0,1-.1.1h-.1l-.3-.3a9.958,9.958,0,0,1,1-1.1C42.9,77.8,43,77.8,43,77.7Z"/><path class="bf" d="M49.4,84h-.9c-.1,0-.1,0-.1.1a5.782,5.782,0,0,1-.5,1.4,2.663,2.663,0,0,0-.3,1.2,6.752,6.752,0,0,0,.2,1.4c0,.1,0,0,.1,0H45.1V88c-.1-.2-.2-.2-.4-.2a1.268,1.268,0,0,1-.6-.1c-.2,0-.3-.1-.5-.2a.6.6,0,0,1-.1-.4v-.3c0-.1,0-.2-.1-.2-.1-.1,0-.1,0-.2,0,0,.1,0,0-.1s0,0-.1,0-.1-.1-.1-.2V86c.1-.3,0-.4-.2-.4h-.1c-.2-.1-.2-.3-.1-.5.2-.3.3-.5.5-.8a.638.638,0,0,0,0-.6c0-.1-.1-.3,0-.4.1-.4.1-.8.2-1.2.1-.2.2-.5.3-.7a2.586,2.586,0,0,1,1.4-1.1,2.2,2.2,0,0,1,.8-.1.9.9,0,0,1,.5.1c.1,0,.1,0,.1-.1v-.6c.1,0,0,.1,0,.1v2.2c0,.1,0,.2-.1.2h-.1c.3,0,.2,0,.2-.3V80.3a1.6,1.6,0,0,1,.9.7l.3.6a.1.1,0,0,0,.1.1c-.1.1-.1.2-.2.3a5.546,5.546,0,0,0-.6.8c-.1.1-.2.2-.3.2h.1c.1,0,.2,0,.2-.1a8.745,8.745,0,0,0,.8-1l.1-.1c0,.2.1.4.1.7v1.3h-.7a7.881,7.881,0,0,0,2,.2Z"/><path class="bg" d="M41.5,80.3c.1-.2-.1-.4-.2-.6-.1-.1-.1-.2-.2-.4v-.1h1v.1a2.186,2.186,0,0,1-.3.5.6.6,0,0,0-.1.4v.2a.1.1,0,0,1-.1.1c-.1,0,0-.1,0-.1A.1.1,0,0,1,41.5,80.3Z"/><path class="bh" d="M43.4,78.1c.1-.1.1-.2.2-.3a.367.367,0,0,0,.1-.3.481.481,0,0,1,.2-.6.365.365,0,0,1,.5.2v.1a.663.663,0,0,1-.2.7.3.3,0,0,1-.4,0h-.1c-.1.1-.1.2-.2.3A.1.1,0,0,0,43.4,78.1Z"/><path class="bi" d="M41.7,84.9c-.1.2-.2.3-.4.3-.1,0-.2.1-.3.1-.3.1-.3.1-.3-.3v-.2h0a.6.6,0,0,0,.4-.1c.2,0,.3-.1.4-.3,0,0,.1-.1.1,0C41.7,84.6,41.8,84.8,41.7,84.9Z"/><path class="bj" d="M40.8,84.8a.749.749,0,0,1-.5-.1.367.367,0,0,1-.3-.1c-.1-.1-.2-.2-.1-.3a1.086,1.086,0,0,0,.9.4h0s0,.1,0,.1Z"/><path class="bk" d="M40.8,83.4a1.854,1.854,0,0,1-.7-.2.6.6,0,0,1-.1-.4l.1-.1a.764.764,0,0,1,.5-.2,1.7,1.7,0,0,1,.7.1c.1.1.2.1.2.3,0,.1,0,.3-.2.3A.764.764,0,0,1,40.8,83.4Z"/><path class="bl" d="M40.8,84v-.4c0-.1,0-.1.1-.1a1.268,1.268,0,0,0,.6-.1l.3-.3v.5a.349.349,0,0,1-.1.2,1.486,1.486,0,0,1-.9.2Z"/><path class="bm" d="M40.8,84.7v-.5h0c.2-.1.3,0,.5-.1.1,0,.2-.1.3-.2,0,0,.1-.1.1,0v.4c0,.1,0,.1-.1.2a1.549,1.549,0,0,1-.8.2Z"/><path class="bn" d="M40.8,84.2a.749.749,0,0,1-.5-.1c-.1,0-.2-.1-.3-.2,0-.1-.1-.1-.1-.3a1.086,1.086,0,0,0,.9.4h0s0,.1,0,.2Z"/><path class="bo" d="M40.8,84.1v-.2a.952.952,0,0,0,.7-.2c.1-.1.2-.1.2-.2h0v.2a.1.1,0,0,0-.1.1.764.764,0,0,1-.5.2C41,84.1,40.9,84.2,40.8,84.1Z"/><path class="bp" d="M40.3,83.6c0,.3,0,.3-.2.2l-.1-.1v-.3h.1c.1,0,.1.1.2.1C40.3,83.4,40.2,83.5,40.3,83.6Z"/><path class="bq" d="M40,84.6l.3.1V85c0,.1,0,.1-.1.1h0c-.1,0-.1,0-.2-.1s-.1-.2,0-.4Z"/><path class="br" d="M40,83.9l.3.2v.4a.451.451,0,0,1-.3-.3Z"/><path class="bs" d="M49.8,87.4c.1,0,.2,0,.2.2-.1.1-.1.1-.2,0Z"/><path class="bt" d="M48.8,81.3a3.459,3.459,0,0,0-1-1.1c-.1,0-.1-.1,0-.2.1-.3.2-.5.3-.8,0-.1.1-.1.1,0a4.263,4.263,0,0,1,1.1,1.2,4.851,4.851,0,0,1,.8,2.1c0,.2.1.2-.1.2-.2.1-.4.1-.6.2-.1,0-.1,0-.1-.1a3.942,3.942,0,0,0-.5-1.4c0-.1.1-.2.2-.3h.1V81a.1.1,0,0,0-.1-.1l-.1.1c.2.1.1.2-.1.3Z"/><path class="bu" d="M49.4,83.9v-.7c0-.1,0-.1.1-.1.2,0,.5-.1.7-.1.1,0,.1,0,.1.1a6.079,6.079,0,0,1-.1,1.9c0,.2,0,.2-.2.1a1.421,1.421,0,0,0-.6-.2c-.1,0-.1-.1-.1-.2a1.7,1.7,0,0,0,.1-.7h0a.188.188,0,0,1,.3,0c.1.1.1.1.1,0v-.1c0-.1-.1-.1-.1,0s-.1.1-.3,0C49.5,84,49.4,84,49.4,83.9Z"/><path class="au" d="M47,79.7a1.483,1.483,0,0,0-.7-.1c-.1,0-.1,0-.1-.1v-.9c0-.1,0-.1.1-.1a4.191,4.191,0,0,1,1.5.4c.1,0,.1.1.1.2-.1.3-.2.5-.3.8a.1.1,0,0,1-.1.1c-.2-.1-.3-.2-.5-.3a1.087,1.087,0,0,1,.1-.5h0v-.1H47v.1a.6.6,0,0,1,.1.4Z"/><path class="bv" d="M48.4,82c-.3.4-.6.7-.9,1.1,0,.1-.1.1-.2.1H45.1a.1.1,0,0,1-.1-.1c0-.1,0-.1.1-.1h2.2c.1,0,.2-.1.3-.1a1.38,1.38,0,0,0,.3-.4l.5-.5a1.024,1.024,0,0,1,.5-.6h0Z"/><path class="bw" d="M47,79.7c0-.2.1-.3,0-.5V79s.1-.1.1,0h0a.139.139,0,0,1,0,.2.9.9,0,0,0-.1.5h0l.1.7V82c0,.1,0,.1-.1.1h-.1c.1,0,.1,0,.1-.1V79.8s0,0,0-.1Z"/><path class="bx" d="M49.4,84h0Z"/><path class="by" d="M48.8,81.4h0c.1-.2.2-.3.2-.5,0-.1,0-.1.1-.1a.1.1,0,0,1,.1.1.31.31,0,0,1-.1.2V81a.1.1,0,0,0-.1-.1h0V81h.1c-.1.1-.1.3-.3.4Z"/><path class="bz" d="M49.4,84h0c.1-.1.2,0,.3-.1,0-.1.1,0,.2,0v.2c-.1.1-.1.1-.2,0l-.1-.1Z"/><path class="ay" d="M41.7,83.8v1.1h0V83.8Z"/><path class="bx" d="M47.5,84H45.2v-.1h.4l1.9.1Z"/><path class="ca" d="M42.1,79.4a2.186,2.186,0,0,1-.3.5c-.1.1-.1.2-.1.4v.2a1.884,1.884,0,0,0-.2-.8c-.1-.1-.1-.2-.2-.3Z"/><path class="cb" d="M44,77.7c-.2,0-.3-.2-.3-.4s.1-.4.3-.4h0c.2,0,.3.2.3.5.1.1,0,.3-.3.3Z"/><path class="cc" d="M41.7,84.3v.2a1.086,1.086,0,0,1-.9.4v-.2a2.354,2.354,0,0,0,.8-.2A.349.349,0,0,1,41.7,84.3Z"/><path class="cd" d="M49.2,81.1a.1.1,0,0,1-.1-.1v-.1h.1c.1.1,0,.1,0,.2Z"/><path class="ce" d="M49.9,84c0,.1,0,.1-.1.1h-.1V84c0-.1,0-.1.1-.1h0C49.9,83.9,49.9,83.9,49.9,84Z"/><path class="cf" d="M44.3,77.4c0-.1,0-.1-.1-.2,0-.1-.1-.1-.2-.2h0C44.2,76.9,44.4,77.1,44.3,77.4Z"/></g><path class="as" d="M212.3,135.7l-23.8-6.4v-7.4l23.8,6.4Z" transform="translate(2487.938 -1870.4)"/><path class="b" d="M261.1,91.2l29.3.4-.8,22.5-29.3-.8Z" transform="translate(2487.938 -1870.4)"/><path class="c" d="M285.2,93.4l-8.6-5.8-10.8,5.7-.3-.4,11.1-5.8,8.9,6Z" transform="translate(2487.938 -1870.4)"/><path class="c" d="M275.2,86.9v.2a1.16,1.16,0,1,0,2.3.3v-.3c.1.3,0,.1,0,0v-.2a1.165,1.165,0,0,0-1.1-1,1.126,1.126,0,0,0-1.2,1Z" transform="translate(2487.938 -1870.4)"/><path class="d" d="M263.5,94.1l23.3-.8.5,17.9-23.3.5Z" transform="translate(2487.938 -1870.4)"/><path class="c" d="M263.8,105.8l5.6-6,6.1,6,5.8-4.4,7.1,4.4v6.7H262.9l-.6-5.6Z" transform="translate(2487.938 -1870.4)"/></g></svg>