<svg xmlns="http://www.w3.org/2000/svg" width="67.275" height="70.943" viewBox="0 0 67.275 70.943"><defs><style>.a{fill:#fff;}.b{fill:#fea356;}.c,.e{fill:#21445b;}.d{fill:#fc585f;}.e{font-size:4px;font-family:Krungthep;}.f{fill:#f3f5f6;}</style></defs><g transform="translate(0 2.077)"><path class="a" d="M71.07,383.09H10.1a2.109,2.109,0,0,1-2.1-2.1V366.9a2.109,2.109,0,0,1,2.1-2.1H71.07a2.109,2.109,0,0,1,2.1,2.1v14.086A2.108,2.108,0,0,1,71.07,383.09Z" transform="translate(-6.949 -315.276)"/><path class="b" d="M0,0H56.763V9.881H0Z" transform="translate(5.255 53.729)"/><g transform="translate(17.975 2.642)"><path class="a" d="M182.869,21.034a13.034,13.034,0,0,0-26.069,0V26.29H161V21.034a8.83,8.83,0,0,1,17.66,0V26.29h4.2Z" transform="translate(-154.172 -8)"/><rect class="a" width="31.325" height="24.387" transform="translate(0 18.29)"/></g><g transform="translate(0 1.591)"><path class="c" d="M64.121,356.8H3.153A3.1,3.1,0,0,0,0,359.953v14.086a3.1,3.1,0,0,0,3.153,3.153H64.121a3.1,3.1,0,0,0,3.153-3.153V359.953A3.162,3.162,0,0,0,64.121,356.8Zm1.051,17.239a.993.993,0,0,1-1.051,1.051H3.153A.993.993,0,0,1,2.1,374.039V359.953A.993.993,0,0,1,3.153,358.9H64.121a.993.993,0,0,1,1.051,1.051Z" transform="translate(0 -309.918)"/><path class="c" d="M162.227,18.29H159.6v-4.2a14.086,14.086,0,1,0-28.171,0v4.2H128.8V44.78h33.427Zm-28.7-4.2a11.983,11.983,0,1,1,23.967,0v4.2h-2.1v-4.2a9.881,9.881,0,0,0-19.762,0v4.2h-2.1Zm19.762,0v4.2H137.735v-4.2a7.779,7.779,0,1,1,15.557,0Zm6.833,28.592H130.9V20.393h29.222Z" transform="translate(-111.876)"/></g><path class="d" d="M0,0H22.915V15.978H0Z" transform="translate(22.179 25.137)"/><g transform="translate(31.115 29.132)"><circle class="a" cx="2.523" cy="2.523" r="2.523"/><rect class="a" width="2.102" height="4.625" transform="translate(1.472 3.364)"/></g><text class="e" transform="translate(10.033 60.656)"><tspan x="0" y="0">A</tspan></text><text class="e" transform="translate(15.033 60.656)"><tspan x="0" y="0">F</tspan></text><text class="e" transform="translate(19.033 60.656)"><tspan x="0" y="0">3</tspan></text><text class="e" transform="translate(24.033 60.656)"><tspan x="0" y="0">5</tspan></text><text class="e" transform="translate(29.033 60.656)"><tspan x="0" y="0">T</tspan></text><text class="e" transform="translate(33.033 60.656)"><tspan x="0" y="0">Q</tspan></text><rect class="f" width="11.9" height="5.67" transform="translate(41.086 0.047) rotate(112)"/></g></svg>