<svg xmlns="http://www.w3.org/2000/svg" width="58.039" height="58.039" viewBox="0 0 58.039 58.039"><defs><style>.a{fill:#fff;}.b{fill:#fea356;}.c{fill:#21445b;}.d{fill:#fe5a61;}</style></defs><path class="a" d="M204.654,450.8H189.6l1.542-6.8h11.971Z" transform="translate(-168.107 -393.669)"/><rect class="a" width="54.971" height="40.907" transform="translate(1.534 1.534)"/><rect class="a" width="54.971" height="8.907" transform="translate(1.534 41.534)"/><rect class="b" width="48.971" height="37.907" transform="translate(4.534 4.534)"/><path class="c" d="M1.814,0A1.814,1.814,0,1,1,0,1.814,1.814,1.814,0,0,1,1.814,0Z" transform="translate(27.206 44.074)"/><path class="a" d="M95.472,100.178V73.516L90.847,68.8H72.8v31.378Z" transform="translate(-64.548 -61.001)"/><path class="d" d="M232,73.516V68.8l4.625,4.716Z" transform="translate(-205.701 -61.001)"/><path class="d" d="M264.584,168.284l-8.706,15.87a1.642,1.642,0,0,0,1.451,2.449h17.5a1.642,1.642,0,0,0,1.451-2.449l-4.149-7.564-4.557-8.307A1.708,1.708,0,0,0,264.584,168.284Z" transform="translate(-226.677 -148.424)"/><path class="c" d="M58.039,51.238V0H0V51.238H21.855l-1.088,4.988H19.044v1.814H39V56.226H37.272l-1.088-4.988ZM1.814,49.424V1.814H56.226v47.61Zm33.554,6.8h-12.7l1.088-4.988H34.37Z"/><path class="c" d="M270.486,176.43l-8.706-15.87a2.569,2.569,0,0,0-4.534,0l-8.706,15.87a2.54,2.54,0,0,0,0,2.539,2.484,2.484,0,0,0,2.267,1.27h17.5a2.7,2.7,0,0,0,2.267-1.27A2.791,2.791,0,0,0,270.486,176.43Zm-1.632,1.632a.845.845,0,0,1-.635.363h-17.5a.692.692,0,0,1-.635-.363.677.677,0,0,1,0-.725l8.706-15.87a.671.671,0,0,1,.635-.363.609.609,0,0,1,.635.363l8.706,15.87A.569.569,0,0,1,268.854,178.063Z" transform="translate(-220.064 -141.153)"/><circle class="c" cx="0.907" cy="0.907" r="0.907" transform="translate(38.542 33.826)"/><path class="c" d="M335.882,207.2a1.5,1.5,0,0,0-1.542,1.632l.453,6.529a1.092,1.092,0,0,0,2.177,0l.453-6.529A1.609,1.609,0,0,0,335.882,207.2Z" transform="translate(-296.433 -183.712)"/><rect class="c" width="1.814" height="1.814" transform="translate(20.677 44.981)"/><rect class="c" width="1.814" height="1.814" transform="translate(35.549 44.981)"/><rect class="c" width="13.24" height="1.814" transform="translate(12.968 31.468)"/><rect class="c" width="13.24" height="1.814" transform="translate(12.968 19.863)"/><rect class="c" width="13.24" height="1.814" transform="translate(12.968 22.863)"/><rect class="c" width="1.814" height="1.814" transform="translate(12.968 27.243)"/><rect class="c" width="1.814" height="1.814" transform="translate(18.613 27.243)"/><rect class="c" width="1.814" height="1.814" transform="translate(24.395 27.243)"/><g transform="translate(16.493 10.499)"><path class="c" d="M74.915,271.2A2.93,2.93,0,0,0,72,274.158h5.831A2.93,2.93,0,0,0,74.915,271.2Z" transform="translate(-72 -267.228)"/><circle class="c" cx="1.606" cy="1.606" r="1.606" transform="translate(1.31)"/></g></svg>