<svg xmlns="http://www.w3.org/2000/svg" xmlns:xlink="http://www.w3.org/1999/xlink" width="53.077" height="51.025" viewBox="0 0 53.077 51.025"><defs><style>.a{fill:#fff;}.b{fill:#fea356;}.c{clip-path:url(#a);}.d{fill:#fc585f;}.e,.f{fill:#193651;}.f{fill-rule:evenodd;}.g{fill:#082f49;}</style><clipPath id="a"><rect class="a" width="53.077" height="51.025"/></clipPath></defs><g transform="translate(-444 -514.135)"><path class="b" d="M0,0H50.588V25.673H0Z" transform="translate(445 520.327)"/><g class="c" transform="translate(444 514.135)"><path class="a" d="M135.356,10.26H103.12V34.274h32.236Z" transform="translate(-92.558 -9.209)"/><path class="d" d="M138.255,93.347h.007a.771.771,0,0,0,.77-.764c0-.362.009-1.1.015-2.012h.437a.77.77,0,0,0,0-1.536h-.427c.014-2.328.024-4.928,0-5.27a1.44,1.44,0,0,0-.945-1.3,1.346,1.346,0,0,0-1.482.558c-.533.655-3.192,5.458-3.719,6.415a.77.77,0,0,0,.674,1.142h3.927c-.005.709-.011,1.391-.016,2a.772.772,0,0,0,.764.777Zm-3.362-4.316c1.052-1.889,2.114-3.752,2.64-4.6.007.892,0,2.716-.01,4.6Z" transform="translate(-119.212 -73.967)"/><path class="d" d="M218.54,86.35V90.7a3.49,3.49,0,0,0,6.979,0V86.35a3.49,3.49,0,0,0-6.979,0Zm5.438,0V90.7a1.946,1.946,0,0,1-3.892,0V86.35a1.946,1.946,0,1,1,3.892,0Z" transform="translate(-196.156 -74.373)"/><path class="d" d="M303.591,83.016c-.533.653-3.192,5.457-3.719,6.414a.77.77,0,0,0,.674,1.142h3.927c0,.709-.011,1.391-.016,2a.772.772,0,0,0,.764.777h.007a.771.771,0,0,0,.77-.764c0-.362.009-1.1.015-2.012h.437a.77.77,0,1,0,0-1.536h-.427c.014-2.327.024-4.928-.005-5.269a1.44,1.44,0,0,0-.945-1.306,1.345,1.345,0,0,0-1.482.559Zm.892,6.016h-2.625c1.052-1.889,2.114-3.752,2.64-4.6C304.5,85.322,304.494,87.146,304.483,89.032Z" transform="translate(-269.071 -73.968)"/><path class="e" d="M93.15,4.862V2.825a1.285,1.285,0,0,1,1.284-1.283h28.558a1.285,1.285,0,0,1,1.284,1.283V4.862h1.536V2.825A2.828,2.828,0,0,0,122.989,0H94.435A2.828,2.828,0,0,0,91.61,2.825V4.862h1.536" transform="translate(-82.227)"/><path class="e" d="M74.766,62.52H73.23V80.363H71.842a.77.77,0,0,0,0,1.536h36.976a.77.77,0,1,0,0-1.536h-1.384V62.52H105.9V80.363H74.766Z" transform="translate(-63.843 -56.116)"/><path class="a" d="M222.628,359.12H212.8v7.306h9.828Z" transform="translate(-191.004 -322.337)"/><path class="a" d="M158.934,428.45H132.76v6.321h26.174Z" transform="translate(-119.162 -384.565)"/><path class="f" d="M201.45,352.08h11.811v8.26H201.45Zm1.639,1.639V358.7h8.533v-4.982Z" transform="translate(-180.816 -316.018)"/><path class="f" d="M120.286,419.159a.847.847,0,0,0-.847.847v3.288a.847.847,0,0,0,.847.847h23.975a.847.847,0,0,0,.847-.847v-3.288a.847.847,0,0,0-.847-.847Zm-2.486.847a2.486,2.486,0,0,1,2.486-2.486h23.975a2.486,2.486,0,0,1,2.486,2.486v3.288a2.486,2.486,0,0,1-2.486,2.486H120.286a2.486,2.486,0,0,1-2.486-2.486Z" transform="translate(-105.734 -374.755)"/><path class="a" d="M59.437,303.04H8v5.842H59.437Z" transform="translate(-7.181 -272.001)"/><path class="f" d="M0,296.45H53.076v7.338H0Zm1.639,1.639v4.06h49.8v-4.06Z" transform="translate(0 -266.086)"/><path class="b" d="M438.439,326.264a.915.915,0,1,1-.268-.646.914.914,0,0,1,.268.646Z" transform="translate(-391.89 -292.026)"/><path class="d" d="M474.557,326.264a.914.914,0,1,1-.268-.646A.914.914,0,0,1,474.557,326.264Z" transform="translate(-424.31 -292.026)"/><path class="f" d="M3.336,48.619a1.7,1.7,0,0,0-1.7,1.7h0V72.888h49.8V50.315h0a1.7,1.7,0,0,0-1.7-1.7H42.05V46.98h7.691a3.336,3.336,0,0,1,3.336,3.335V74.527H0V50.315A3.336,3.336,0,0,1,3.336,46.98h7.59v1.639Z" transform="translate(0 -42.168)"/><path class="g" d="M434.779,322.25a1.229,1.229,0,1,0,.869.36,1.23,1.23,0,0,0-.869-.36Zm0,1.844a.6.6,0,1,1,.236-.045.615.615,0,0,1-.236.045Z" transform="translate(-389.143 -289.243)"/><path class="g" d="M470.879,322.25a1.229,1.229,0,1,0,.869.36,1.23,1.23,0,0,0-.869-.36Zm0,1.844a.6.6,0,1,1,.236-.045.615.615,0,0,1-.236.045Z" transform="translate(-421.545 -289.243)"/></g></g></svg>