<svg xmlns="http://www.w3.org/2000/svg" xmlns:xlink="http://www.w3.org/1999/xlink" width="218.668" height="191.943" viewBox="0 0 218.668 191.943"><defs><style>.a{fill:#a9c4f3;}.b{fill:#718bc6;}.c{fill:#9bb8ea;}.d{fill:url(#a);}.e{fill:url(#b);}.f{fill:url(#c);}.g{fill:url(#d);}.h{fill:#7098de;}.i{fill:#cedffd;}.j{fill:#7199d3;}.k{fill:#88ade5;}.l{fill:url(#e);}.m{fill:#1bce6b;}.n{fill:#0cce6b;}.o{opacity:0.7;}.p{fill:#d4eaff;}.q{fill:#ffa457;}.r{fill:#ff5a61;}.s{fill:url(#f);}.t{fill:url(#g);}.u{fill:url(#h);}.v{fill:url(#i);}.w{fill:#ffd3c7;}.x{clip-path:url(#j);}.y{fill:#f4bdb0;}.z{fill:#062133;}.aa{fill:#21445b;}.ab{fill:#133951;}.ac{fill:#082f49;}.ad{fill:#142656;}.ae{fill:#0069fa;}.af{fill:#303030;}.ag{fill:#b7b7b7;}.ah{fill:#fff;}.ai{fill:#e5e3f0;}.aj,.al{fill:none;}.aj{stroke:#e5e3f0;stroke-linecap:round;stroke-linejoin:round;stroke-width:2px;}.ak{fill:#0d6bf1;}.am{fill:#9bb4c9;}.an{fill:#859ad0;}.ao{fill:#ceddf4;}.ap{fill:#cddefc;}.aq{fill:#b9ceed;}.ar{fill:#d3deef;}.as{fill:#e4edfe;}.at{fill:#bacdf7;}.au{fill:#fffefd;stroke:#fff;stroke-miterlimit:10;stroke-width:0.756px;}</style><linearGradient id="a" x1="-4.48" y1="209.251" x2="-4.436" y2="209.251" gradientUnits="objectBoundingBox"><stop offset="0" stop-color="#cddcfd"/><stop offset="1" stop-color="#e7f0ff"/></linearGradient><linearGradient id="b" x1="-4.476" y1="208.162" x2="-4.433" y2="208.162" xlink:href="#a"/><linearGradient id="c" x1="-4.476" y1="207.073" x2="-4.433" y2="207.073" xlink:href="#a"/><linearGradient id="d" x1="-4.473" y1="205.984" x2="-4.429" y2="205.984" xlink:href="#a"/><linearGradient id="e" x1="-4.423" y1="21.856" x2="-4.423" y2="21.879" gradientUnits="objectBoundingBox"><stop offset="0" stop-color="#ccc"/><stop offset="1" stop-color="#fff"/></linearGradient><linearGradient id="f" x1="-4.457" y1="210.137" x2="-4.428" y2="210.137" xlink:href="#a"/><linearGradient id="g" x1="-4.454" y1="209.05" x2="-4.425" y2="209.05" xlink:href="#a"/><linearGradient id="h" x1="-4.454" y1="207.985" x2="-4.425" y2="207.985" xlink:href="#a"/><linearGradient id="i" x1="-4.451" y1="206.919" x2="-4.422" y2="206.919" xlink:href="#a"/><clipPath id="j"><path d="M-245.8,177.9a2.556,2.556,0,0,1-3,.2c-.1,0-.2-.1-.3-.1h0a8.46,8.46,0,0,0,.9-4.1l-.5-1.9a1.422,1.422,0,0,0,.6-.2,4.254,4.254,0,0,0,2.3,1.4A12.385,12.385,0,0,0-245.8,177.9Z"/></clipPath></defs><g transform="translate(-80 -709.8)"><g transform="translate(408.938 630.6)"><path class="a" d="M-279.3,131.5h-.3l-18.3-1.8a5.855,5.855,0,0,1-5.3-5.8V100.4a5.911,5.911,0,0,1,5.9-5.9h.6l18.3,1.8a5.855,5.855,0,0,1,5.3,5.8v23.5a5.89,5.89,0,0,1-5.8,5.9Zm-4.9-5.8Zm-8-6.5,8,.8V106.8l-8-.8Z"/></g><path class="b" d="M-124.1,170a3.682,3.682,0,0,1-3.4,3.9h-.8L-261,158.4a5.321,5.321,0,0,1-4.5-4.9l-2.4-70.3a3.8,3.8,0,0,1,3.6-4h.6l132.4,10.5a5.026,5.026,0,0,1,4.5,4.7Z" transform="translate(408.938 630.6)"/><path class="c" d="M-126.4,172.3a3.682,3.682,0,0,1-3.4,3.9h-.8l-132.6-15.5a5.321,5.321,0,0,1-4.5-4.9l-2.4-70.3a3.8,3.8,0,0,1,3.6-4h.6L-133.5,92a5.026,5.026,0,0,1,4.5,4.7Z" transform="translate(408.938 630.6)"/><path class="d" d="M-233.2,125.8l-28.3-2.7v-1.8l28.3,2.7Z" transform="translate(408.938 630.6)"/><path class="e" d="M-233.3,130.7l-28.3-2.7v-1.8l28.3,2.7Z" transform="translate(408.938 630.6)"/><path class="f" d="M-233.3,135.6l-28.3-2.7v-1.8l28.3,2.7Z" transform="translate(408.938 630.6)"/><path class="g" d="M-233.4,140.5l-28.3-2.7V136l28.3,2.7Z" transform="translate(408.938 630.6)"/><rect class="h" width="3.4" height="54.6" transform="translate(213.838 833.6)"/><rect class="h" width="3.4" height="54.6" transform="translate(134.238 825)"/><rect class="h" width="3.4" height="54.6" transform="translate(244.038 819.2)"/><path class="a" d="M-244.8,175.2-277,192l.2,3.5h0l-.2.1,84.3,10.1,32.2-16.7v-3.6Z" transform="translate(408.938 630.6)"/><path class="i" d="M-192.7,202.1-277,192l32.2-16.7,84.3,10.1Z" transform="translate(408.938 630.6)"/><path class="j" d="M-244,178.5l-9.9,5.6v1.4l26.1,3.6,9.1-5.9v-1.4Z" transform="translate(408.938 630.6)"/><path class="a" d="M-244,178.5l25.3,3.2-9.1,5.9-26.1-3.5Z" transform="translate(408.938 630.6)"/><path class="k" d="M-243.8,179.2l22.7,2.9-7.3,4.7-23.3-3.2Z" transform="translate(408.938 630.6)"/><path class="l" d="M-195.6,125.6a58.009,58.009,0,0,1-16.3-7.7.755.755,0,0,0-.8-.1,45.813,45.813,0,0,1-16.8,2.6c-.4,0-.5.1-.5.4.2,3.8.3,7.5.4,11.3a31.533,31.533,0,0,0,.6,6.1c2.1,9.6,7.5,17.3,16.3,23.3a.661.661,0,0,0,.6.1,23.9,23.9,0,0,0,9.8-6.1,24.316,24.316,0,0,0,6.9-15.2c.2-2.2.2-4.5.3-6.8h0l.3-6.6C-194.6,125.9-194.6,125.9-195.6,125.6Z" transform="translate(408.938 630.6)"/><path class="m" d="M-199,128.3a66.63,66.63,0,0,1-12.9-6.2.661.661,0,0,0-.6-.1,47.033,47.033,0,0,1-12.9,2.1c-.3,0-.4.1-.4.4.1,2.2.2,4.4.3,6.5a46.231,46.231,0,0,0,.5,6.5c1.5,7.8,5.7,14.3,12.5,19.6a.471.471,0,0,0,.6.1,25.044,25.044,0,0,0,5.6-3.5,21.1,21.1,0,0,0,7.1-13.1c.3-2.1.2-4.4.4-6,.1-2.3.2-4.1.3-5.8A.642.642,0,0,0-199,128.3Z" transform="translate(408.938 630.6)"/><g transform="translate(460.32 643.005)"><path class="n" d="M-296.3,106.8l-31.3-3.3a.56.56,0,0,1-.5-.6l-.8-23.2a.576.576,0,0,1,.6-.6h.1l31.3,3.3a.56.56,0,0,1,.5.6l.8,23.2a.749.749,0,0,1-.7.6Z"/></g><g class="o" transform="translate(553.101 691.137)"><path class="p" d="M-297.1,110.7l-31.4-3.9a.56.56,0,0,1-.5-.6V79.8a.645.645,0,0,1,.6-.6h.1l30.8,3.9a.56.56,0,0,1,.5.6l.6,26.4c0,.3-.3.5-.7.6Z"/></g><g transform="translate(461.429 684.732)"><path class="q" d="M-299.9,101.3l-27.6-3.5a.536.536,0,0,1-.5-.5l-1-17.5a.56.56,0,0,1,.5-.6h.1l27.7,3.2a.536.536,0,0,1,.5.5l.8,17.8c.1.4-.1.6-.5.6Z"/></g><g class="o" transform="translate(543.784 644.774)"><path class="p" d="M-300.8,101.5l-27.7-3.4a.56.56,0,0,1-.5-.6V79.8a.645.645,0,0,1,.6-.6h.1l27.7,2.8a.56.56,0,0,1,.5.6V101c0,.3-.3.5-.7.5Z"/></g><g class="o" transform="translate(547.444 671.786)"><path class="p" d="M-316.1,93.6l-12.3-1.3a.56.56,0,0,1-.5-.6V79.8a.645.645,0,0,1,.6-.6h.1l12.3,1.3a.56.56,0,0,1,.5.6V93a.749.749,0,0,1-.7.6Z"/></g><g transform="translate(589.868 671.345)"><path class="r" d="M-291.9,126.1l-35.5-4.5a.56.56,0,0,1-.5-.6L-329,79.7a.576.576,0,0,1,.6-.6h.1l35.9,4.6a.56.56,0,0,1,.5.6l.7,41.2c0,.4-.3.6-.7.6Z"/></g><path class="s" d="M-197.8,101.3l-34.6-2.8V96.7l34.6,2.8Z" transform="translate(408.938 630.6)"/><path class="t" d="M-197.9,106.3l-34.6-2.8v-1.8l34.6,2.8Z" transform="translate(408.938 630.6)"/><path class="u" d="M-197.9,111.2l-34.6-2.8v-1.8l34.6,2.8Z" transform="translate(408.938 630.6)"/><path class="v" d="M-198,116.1l-34.6-2.8v-1.8l34.6,2.8Z" transform="translate(408.938 630.6)"/><path class="w" d="M-243.2,173.1a5.721,5.721,0,0,1-2.6.1,3.344,3.344,0,0,1-2.3-1.4,1.421,1.421,0,0,1-.6.2.6.6,0,0,1-.4-.1,1.779,1.779,0,0,1-.7-.8c-.6-1.4-.2-2,.3-2.1,0,0,2.3-1.5,2.7-3a4.7,4.7,0,0,0,2.6-1.9l.5,1C-242.5,167.4-240.4,172.4-243.2,173.1Z" transform="translate(408.938 630.6)"/><path class="w" d="M-245.8,177.9a2.556,2.556,0,0,1-3,.2c-.1,0-.2-.1-.3-.1h0a8.46,8.46,0,0,0,.9-4.1l-.5-1.9a1.422,1.422,0,0,0,.6-.2,4.254,4.254,0,0,0,2.3,1.4A12.385,12.385,0,0,0-245.8,177.9Z" transform="translate(408.938 630.6)"/><g transform="translate(408.938 630.6)"><g class="x" transform="translate(79.896 92.649)"><path class="y" d="M-330.2,80.2s3.9.5,5,2.6,3.7-3.3,2.4-4.9-1.8-2.6-3.5-2.4-3.6.9-3.8,1.9a3.75,3.75,0,0,0,0,2.1"/></g></g><path class="z" d="M-245.2,210s6-2.5,9.3-2.8,6.2.4,7.1,2.8.4,33.5,1.2,34.2-.8,1.2-2.7.9c0,0-4.5-9.7-3.6-15.2s-3.2-15.7-3.2-15.7Z" transform="translate(408.938 630.6)"/><path class="aa" d="M-244.6,245.4l-.8.4a6.128,6.128,0,0,0-1.5,5.9c1,3.7,1,3.8,1,3.8h.3l.1-4.3,1.9,4.3s4.8.7,6.6-1.2l-4.8-2.8s-.9-3.5-1.2-5.3S-244.6,245.4-244.6,245.4Z" transform="translate(408.938 630.6)"/><path class="aa" d="M-228.9,244.2l-.8.4a6.128,6.128,0,0,0-1.5,5.9c1,3.7,1,3.8,1,3.8h.3l.1-4.3,1.9,4.3s4.8.8,6.6-1.2l-4.8-2.8s-.9-3.5-1.2-5.3S-228.9,244.2-228.9,244.2Z" transform="translate(408.938 630.6)"/><path class="ab" d="M-252.8,234.1v9h3.2V235A6.2,6.2,0,0,0-252.8,234.1Z" transform="translate(408.938 630.6)"/><circle class="ac" cx="2.5" cy="2.5" r="2.5" transform="translate(143.638 885.3)"/><path class="ac" d="M-248.6,259.4a2.454,2.454,0,0,1-2.5,2.4,2.454,2.454,0,0,1-2.4-2.5,2.456,2.456,0,0,1,2.5-2.4,2.523,2.523,0,0,1,2.4,2.5Z" transform="translate(408.938 630.6)"/><path class="ac" d="M-237,257.2a2.454,2.454,0,0,1-2.5,2.4,2.454,2.454,0,0,1-2.4-2.5,2.456,2.456,0,0,1,2.5-2.4,2.456,2.456,0,0,1,2.4,2.5Z" transform="translate(408.938 630.6)"/><path class="ab" d="M-253.4,243.1a6.641,6.641,0,0,1,4.4,0l.1,2.9,11.2,8.6v2H-241V255l-8.5-6.2.1,7.8-.4,1.8H-252l-.4-1.8-.1-7.6-8.5,5.9v1.5h-3.1v-2.1l10.9-8.3v-1.7Z" transform="translate(408.938 630.6)"/><path class="ad" d="M-226.1,191.9a2.457,2.457,0,0,1,1.7-2.5,4.158,4.158,0,0,1,4,.6s.5.5-1,1.1S-225.8,192.8-226.1,191.9Z" transform="translate(408.938 630.6)"/><path class="w" d="M-228.4,190.4l.1-.4s2.8-2.4,3.2-2.7a8.129,8.129,0,0,1,3.8.4c1.6.4,1.9,1.9-1.8,2.2s-3.7,1.6-3.8,2S-228.4,190.4-228.4,190.4Z" transform="translate(408.938 630.6)"/><path class="z" d="M-230.6,227.1c-4.9,8.7-11.3,19.3-12.4,19.8-1.8.8-2.7-1.6-2.7-1.6.8-2.4,2.2-6.4,3.7-10.1a11.4,11.4,0,0,0,1.9-1,86.379,86.379,0,0,0,8.5-6A5.241,5.241,0,0,0-230.6,227.1Z" transform="translate(408.938 630.6)"/><path class="z" d="M-224.7,216.1c-.4,1-2.7,5.3-5.6,10.5a3.079,3.079,0,0,0,.3-1.9,15.263,15.263,0,0,0-.3-3l-2.6-.5.5-.5-.9.4-1.1.4c-11.7,10.3-23.8,6.2-26.2,3.8-1.2-1.2-1.3-3.3-1.1-5.1a19.423,19.423,0,0,1,.7-3.3l.4-.3,21.6-5.5a48.265,48.265,0,0,1,9.3-2.1C-225.9,208.4-223.6,213.4-224.7,216.1Z" transform="translate(408.938 630.6)"/><path class="ab" d="M-230.3,226.6a2.186,2.186,0,0,1-.3.5,4.741,4.741,0,0,1-1,1,81.7,81.7,0,0,1-8.5,6,11.4,11.4,0,0,1-1.9,1c-3.5,1.6-5.6.7-5.6.7s-12.4-1.5-16.3-2.2-5.8-2.3-5.8-6.4,3.2-4.6,3.2-4.6l3.8-2.2,1-.2c-.2,1.8-.1,3.9,1.1,5.1,2.4,2.4,14.5,6.4,26.2-3.8l1.1-.4.4.1,2.6.5a15.263,15.263,0,0,1,.3,3A3.08,3.08,0,0,1-230.3,226.6Z" transform="translate(408.938 630.6)"/><path class="ae" d="M-247.4,177.5s6.5,2.3,6.6,2.3,2.8,6.6-.2,16c-1.2,5-1.7,7.9-1.3,9.9a43.231,43.231,0,0,0,2.5,7.7,12.2,12.2,0,0,1-10,5.3,26.919,26.919,0,0,1-11.2-1.8s1.5-7.7,1.5-7.9,3.5-11,3.5-11l1.3-9.4,1.1-10.2Z" transform="translate(408.938 630.6)"/><path class="af" d="M-243.6,165.1h0l-.5-1a4.7,4.7,0,0,1-2.6,1.9c-.4,1.5-2.7,3-2.7,3-.6,0-.9.7-.3,2.1a1.779,1.779,0,0,0,.7.8c.1.1.2.1.4.1l.5,1.9a9.782,9.782,0,0,1-.9,4.1h0c-.7,1.4-.7,2.1-.6,4.2s1.6,1.7,1.4,4.7-3.8,2.3-4.4,3.1-.2,3.2-.2,3.4a27.961,27.961,0,0,1-2.5,3.5c-.4.4-8.9-1.9-12.5-3.3s-1.6-9.3-.8-9.4,5.3-2.8,3-4.9,1.9-5.4,2.6-5.5,1.5-1-.2-2.7,1.2-4.2,2-4.1,2.2-1,1.3-1.9-.7-4.3,1.7-4.9,1.4-.5,5-3.2,6.4.1,7.2,1,2.5,1.2,3.4,3.4A3.279,3.279,0,0,1-243.6,165.1Z" transform="translate(408.938 630.6)"/><path class="ab" d="M-262.8,214.4l4.1.7v10.3a5.487,5.487,0,0,0,3.9,4.6l-5.5-.7s-2.4-.1-2.4-3.6V214.4Z" transform="translate(408.938 630.6)"/><path class="ab" d="M-263.9,214.2l4.1.7v10.3a5.487,5.487,0,0,0,3.9,4.6l-5.5-.8s-2.4-.1-2.4-3.6Z" transform="translate(408.938 630.6)"/><path class="ab" d="M-272.8,197.2v11.3a5.179,5.179,0,0,0,2.9,4.6c3,1.5,7.3,3.5,18.7,3.1a5.776,5.776,0,0,0,5-5.5V199.9s-1.1-5-5.1-6.6-11.9-4.4-18.6-.7A5.719,5.719,0,0,0-272.8,197.2Z" transform="translate(408.938 630.6)"/><path class="aa" d="M-243.8,179.4a8.025,8.025,0,0,1,3,.6c1.2.6,2.9,7,3.5,8.7s3.1,6.9,3.1,6.9l5.7-5.9,2.2,1.5s-4.8,11.3-8.1,12.1-10.9-17-11.1-20.3S-244.1,179.4-243.8,179.4Z" transform="translate(408.938 630.6)"/><path class="ag" d="M-202.7,196.6l-13.8-6.1,18.3-6.9,13.9,5.6Z" transform="translate(408.938 630.6)"/><path class="ah" d="M-203.1,197.3l-13.8-6.1,18.3-6.9,13.9,5.6Z" transform="translate(408.938 630.6)"/><path class="ai" d="M-196.4,192.4l-5-2,6.8-2.5,4.8,2Z" transform="translate(408.938 630.6)"/><line class="aj" x2="9" y2="3.7" transform="translate(201.738 819.9)"/><line class="aj" x2="4.1" y2="1.7" transform="translate(203.338 819)"/><line class="aj" x2="4.1" y2="1.7" transform="translate(205.038 818.3)"/><line class="aj" x2="4.1" y2="1.7" transform="translate(206.738 817.7)"/><line class="aj" x2="4.1" y2="1.7" transform="translate(208.438 817)"/><line class="aj" x2="4.1" y2="1.7" transform="translate(209.838 816.6)"/><line class="aj" x2="9" y2="3.8" transform="translate(199.938 820.5)"/><line class="aj" x2="9" y2="3.7" transform="translate(198.338 821.4)"/><line class="aj" x2="9" y2="3.8" transform="translate(196.638 822.1)"/><path class="ak" d="M-202.8,196.6l-13.8-6.1,18.3-6.9,13.9,5.6Z" transform="translate(408.938 630.6)"/><path class="ag" d="M-203.1,197.3l-13.8-6.1,18.3-6.9,13.9,5.6Z" transform="translate(408.938 630.6)"/><path class="ag" d="M-196.4,192.4l-5-2,6.8-2.5,4.8,2Z" transform="translate(408.938 630.6)"/><line class="al" x2="9" y2="3.7" transform="translate(201.738 819.9)"/><line class="al" x2="4.1" y2="1.7" transform="translate(203.338 819)"/><line class="al" x2="4.1" y2="1.7" transform="translate(205.038 818.3)"/><line class="al" x2="4.1" y2="1.7" transform="translate(206.738 817.7)"/><line class="al" x2="4.1" y2="1.7" transform="translate(208.438 817)"/><line class="al" x2="4.1" y2="1.7" transform="translate(209.838 816.6)"/><line class="al" x2="9" y2="3.8" transform="translate(199.938 820.5)"/><line class="al" x2="9" y2="3.7" transform="translate(198.338 821.4)"/><line class="al" x2="9" y2="3.8" transform="translate(196.638 822.1)"/><path class="ah" d="M-203.2,197.3l-13.8-6.1,18.3-6.9,13.9,5.6Z" transform="translate(408.938 630.6)"/><path class="ai" d="M-196.5,192.4l-5-2,6.8-2.5,4.8,2Z" transform="translate(408.938 630.6)"/><line class="aj" x2="9" y2="3.7" transform="translate(201.538 819.9)"/><line class="aj" x2="4.1" y2="1.7" transform="translate(203.238 819)"/><line class="aj" x2="4.1" y2="1.7" transform="translate(204.838 818.3)"/><line class="aj" x2="4.1" y2="1.7" transform="translate(206.638 817.7)"/><line class="aj" x2="4" y2="1.7" transform="translate(208.338 817)"/><line class="aj" x2="4.1" y2="1.7" transform="translate(209.638 816.6)"/><line class="aj" x2="9" y2="3.8" transform="translate(199.838 820.5)"/><line class="aj" x2="9" y2="3.7" transform="translate(198.138 821.4)"/><line class="aj" x2="9" y2="3.8" transform="translate(196.538 822.1)"/><path class="am" d="M-194.3,159.8l-1.1,1.5a3.789,3.789,0,0,0-2.3-1.8l1.6-1.2a1.268,1.268,0,0,1,.6.1,1.8,1.8,0,0,1,1.2,1.2Z" transform="translate(408.938 630.6)"/><path class="ae" d="M-178.9,172.8a1.538,1.538,0,0,1-1.5,1.5h-.3a1.557,1.557,0,0,1-1.2-1.8,1.557,1.557,0,0,1,1.8-1.2,1.593,1.593,0,0,1,1.2,1.5Z" transform="translate(408.938 630.6)"/><path class="ae" d="M-192.5,158.2a1.538,1.538,0,0,1-1.5,1.5h-.3a1.8,1.8,0,0,0-1.2-1.2,1.645,1.645,0,0,1,1.2-1.8,1.645,1.645,0,0,1,1.8,1.2v.3Z" transform="translate(408.938 630.6)"/><path class="am" d="M-181.3,171.6a1,1,0,0,0-.4.5l-6.5-7.2-1.4-1.5-2-2.2-1.6-1.7c.2-.1.3-.3.4-.4l1.9,2.1,1.3,1.5,1.4,1.5Z" transform="translate(408.938 630.6)"/><path class="ae" d="M-178.1,189.5h0a13.25,13.25,0,0,0-9.6,0A22.2,22.2,0,0,0-178.1,189.5Z" transform="translate(408.938 630.6)"/><path class="an" d="M-187.8,189.5h0v1.1a19.9,19.9,0,0,0,9.7,0v-1.1A22.665,22.665,0,0,1-187.8,189.5Z" transform="translate(408.938 630.6)"/><path class="am" d="M-180.1,174.3l-2.3,13-.3,1.7v.2l-.6-.1V189l.3-1.8,2.3-12.9h.6Z" transform="translate(408.938 630.6)"/><path class="ae" d="M-195.2,162.1l-1.5,3.4-.3.6-2.3-2-2.1-1.9-1.3-1.2.4-.4h0l3.9-1.6c.2,0,.4.1.6.1a3.788,3.788,0,0,1,2.3,1.8.6.6,0,0,1,.1.4A3.091,3.091,0,0,1-195.2,162.1Z" transform="translate(408.938 630.6)"/><path class="an" d="M-201.1,164.9c-1.5-1.4-2.2-3.2-1.5-4s2.5-.2,4.1,1.3,2.2,3.2,1.5,4S-199.5,166.3-201.1,164.9Z" transform="translate(408.938 630.6)"/><path class="ah" d="M-213.3,140.8l.9-.9,4.2-4.4a15.935,15.935,0,0,1,1.3-1.3,2.459,2.459,0,0,1,3.3.2,2.337,2.337,0,0,1,.5,2.1,2.925,2.925,0,0,1-.7,1.2c-1.5,1.5-3,3.1-4.4,4.6-1.2,1.3-2.5,2.6-3.7,3.8a2.452,2.452,0,0,1-3.2.4,2.361,2.361,0,0,1-.8-.9c-1.1-1.8-2.1-3.7-3.2-5.5a2.285,2.285,0,0,1,.7-3.2,2.307,2.307,0,0,1,2.4-.1,3.179,3.179,0,0,1,1.1,1.2A25.436,25.436,0,0,0-213.3,140.8Z" transform="translate(408.938 630.6)"/><path class="ah" d="M-181.1,125.7a6.707,6.707,0,0,0-.9-1.4c0-.1-.1-.1-.1,0-.1.3-.3.5-.4.8,0,.1-.1.1-.1,0a2.725,2.725,0,0,0-1.2-.6,1.975,1.975,0,0,0-2.1,1.5c-.1.2-.1.2-.2.1-.1,0-.1-.1,0-.2.1-.2.2-.5.3-.7a2.12,2.12,0,0,1,2.8-.9c.1,0,.1.1.2.1,0,0,.1.1.1,0,.1-.2.1-.4.2-.6v-.1c-.2-.1-.3-.2-.5-.3h-.1a1.962,1.962,0,0,0-1.5-.1,2.826,2.826,0,0,0-1.7,1.3,6.154,6.154,0,0,0-.7,2.3c0,.1,0,.1.1.1.3,0,.5.1.8.1.1,0,.1,0,.1.1a2.768,2.768,0,0,0,.1.9,3.2,3.2,0,0,0,2.5,2.7c.2,0,.2,0,.2.2,0,.1,0,.1-.1.1a2.694,2.694,0,0,1-1.5-.5,3.929,3.929,0,0,1-1.5-2.8c0-.1,0-.1-.1-.1h-.5c-.1,0-.1,0-.1.1a2.663,2.663,0,0,0,.3,1.2.1.1,0,0,0,.1.1,4.142,4.142,0,0,0,2.8,2.8,2.193,2.193,0,0,0,1.6-.2c.1,0,.1-.1,0-.2a3.552,3.552,0,0,0-.4-.9v-.2l.3-.3a1.794,1.794,0,0,0,.5-.7h0a4.034,4.034,0,0,0-.1-3.4c-.1-.2-.1-.2,0-.3h.1a4.075,4.075,0,0,1,.5,1.8,4.133,4.133,0,0,1-.2,1.9l-.1.3-.1.2c-.1.1-.2.3-.3.4l-.1.1-.1.1v.1l.3.6s0,.1.1,0l.2-.2h0a.85.85,0,0,0,.3-.5c.1-.1.1-.1.1-.2l.1-.1c0-.1.1-.1.1-.2h0a5.867,5.867,0,0,0,.4-2.3A5.341,5.341,0,0,0-181.1,125.7Zm-2.6,4.4a2.325,2.325,0,0,1-2-2.4c-.1-1.3.6-2.3,1.6-2.3.9,0,1.8,1.1,2,2.3.1,1.3-.6,2.4-1.6,2.4Z" transform="translate(408.938 630.6)"/><path class="ah" d="M-182.6,127.4v-.1h0a1.9,1.9,0,0,0-.7-1.1,1.215,1.215,0,0,0-1.6,0l-.2.2a2.55,2.55,0,0,0,0,2.4,1.375,1.375,0,0,0,1,.8h.5a1.539,1.539,0,0,0,1-1.5A.854.854,0,0,0-182.6,127.4Zm-1,.3v.2a.9.9,0,0,0,.1.5c.1.2-.1.3-.2.3s-.2-.1-.2-.3v-.3h0V128a.367.367,0,0,0-.1-.3.483.483,0,0,1,0-.7.3.3,0,0,1,.4,0l.1.1a1.759,1.759,0,0,1-.1.6Z" transform="translate(408.938 630.6)"/><path class="ah" d="M-252.6,108h0l-2.4-3.4a4.594,4.594,0,0,1-.7-1.6,3.91,3.91,0,0,1,.3-3,3.162,3.162,0,0,1,2.5-1.7,4.839,4.839,0,0,1,4.9,3.5,4.27,4.27,0,0,1,.1,2.5c-.1.2-.2.5-.3.7-.9,1.9-1.8,3.8-2.6,5.8v.1l-.1-.1c-.3-.4-.6-.9-.9-1.3l-.1-.1a4.012,4.012,0,0,0-1.5.3c-.2.1-.5.2-.7.3-.1,0-.1.1-.2.1a2.186,2.186,0,0,0,.5.3,5.732,5.732,0,0,0,1.4.4,16.413,16.413,0,0,0,2.3.2,4.767,4.767,0,0,0,2-.4c.1-.1.3-.1.4-.2.1,0,.1-.1.2-.2-.1-.1-.1-.1-.2-.1a3.552,3.552,0,0,0-.9-.4,6.373,6.373,0,0,0-.7-.2h-.1c0-.1.1-.1.1-.2l.4-.9s0-.1.1,0a4.714,4.714,0,0,1,1.5.6,2.336,2.336,0,0,1,.7.7,1.217,1.217,0,0,1,0,1.6c-.2.2-.5.4-.7.6a4.191,4.191,0,0,1-1.5.4,11.109,11.109,0,0,1-2.6.1,10.266,10.266,0,0,1-2.4-.5,5.388,5.388,0,0,1-1.3-.7,1.374,1.374,0,0,1-.5-.8,1.389,1.389,0,0,1,.2-1.1,2.178,2.178,0,0,1,.9-.7,4.707,4.707,0,0,1,1.6-.4C-252.7,108-252.6,108-252.6,108Zm.6-7.8a1.473,1.473,0,0,0-1.5,1.5v.3a2.13,2.13,0,0,0,1.9,1.9,1.473,1.473,0,0,0,1.5-1.5v-.3a1.965,1.965,0,0,0-1.9-1.9Z" transform="translate(408.938 630.6)"/><path class="ah" d="M-258.1,97.4l-16.8-1.8V94.4l16.8,1.8Z" transform="translate(408.938 630.6)"/><path class="ah" d="M-258.1,100.6l-16.8-1.8V97.6l16.8,1.8Z" transform="translate(408.938 630.6)"/><path class="ah" d="M-258.1,103.7l-16.8-1.8v-1.2l16.8,1.8Z" transform="translate(408.938 630.6)"/><path class="ah" d="M-258.1,106.9l-16.8-1.8v-1.2l16.8,1.8Z" transform="translate(408.938 630.6)"/><path class="ah" d="M-267.1,114.3l-6.9-.7-.1-6.9,6.9.7Z" transform="translate(408.938 630.6)"/><path class="ah" d="M-259.2,115.1l-6.9-.7-.1-6.9,6.9.7Z" transform="translate(408.938 630.6)"/><path class="ah" d="M-180,97.4l5.5.5,2.7.3a1.594,1.594,0,0,1,1.4,1.3c0,.1,0,.2-.1.2-2.4,1.5-4.8,3-7.3,4.6a5.582,5.582,0,0,0-.8.5,2.332,2.332,0,0,1-2,.2,3.128,3.128,0,0,1-1-.5l-3.6-3c-1.4-1.2-2.8-2.4-4.3-3.6-.1,0-.1-.1-.1-.2a1.246,1.246,0,0,1,1.4-1c1.5.1,3,.3,4.5.4l3.7.3Z" transform="translate(408.938 630.6)"/><path class="ah" d="M-180.6,111.2c-1.7-.2-3.8-.4-5.8-.6-.7-.1-1.3-.1-2-.2a1.706,1.706,0,0,1-1.4-1.3c0-.1,0-.1.1-.2,2.3-1.5,4.7-2.9,7-4.4a.139.139,0,0,1,.2,0,10.474,10.474,0,0,0,1.1.8,3.283,3.283,0,0,0,2.9.2,4.053,4.053,0,0,0,.9-.5h.2c2.3,1.9,4.6,3.8,6.9,5.8.1,0,.1.1.1.2a1.174,1.174,0,0,1-1.4,1c-1.6-.2-3.1-.3-4.7-.4Z" transform="translate(408.938 630.6)"/><path class="ah" d="M-170.4,100.4c-.1,3.2-.1,6.3-.2,9.5l-6.4-5.4Z" transform="translate(408.938 630.6)"/><path class="ah" d="M-189.6,98.6l6.4,5.4-6.6,4.1C-189.8,104.9-189.7,101.8-189.6,98.6Z" transform="translate(408.938 630.6)"/><g class="o" transform="translate(558.658 657.112)"><path class="p" d="M-300.4,101.8l-28-3.7a.56.56,0,0,1-.5-.6V79.8a.645.645,0,0,1,.6-.6h.1l27.7,3.7a.56.56,0,0,1,.5.6l.3,17.8a.666.666,0,0,1-.7.5Z"/></g><path class="ah" d="M-169.4,116.6l4.8-1a.215.215,0,0,0,.2-.2,1.085,1.085,0,0,1,.8-.8c.1,0,.1-.1.2-.1a4.277,4.277,0,0,1,3.4-2.7,4.491,4.491,0,0,1,5.1,3.7,4.51,4.51,0,0,1-1.9,4.4,4.4,4.4,0,0,1-4.8.2c-.3-.2-.5-.4-.8-.6-.1,0-.1-.1-.2-.1a1.19,1.19,0,0,1-1.1-.4c-.1-.1-.1-.1-.2-.1-.8.2-1.6.3-2.3.5-.2.1-.3,0-.4-.2V119a.1.1,0,0,0-.1-.1.481.481,0,0,0-.6.2v.1c-.1.5-.5.5-.9.6-.1,0-.1,0-.2-.1-.1,0-.1-.1-.2-.2a.481.481,0,0,0-.6-.2h0a.1.1,0,0,0-.1.1c0,.1-.1.2-.1.3a.55.55,0,0,1-.5.3c-.1,0-.1,0-.2-.1a.52.52,0,0,0-.4-.2c-.2,0-.5.2-.5.4a.67.67,0,0,1-.7.4c-.1,0-.1,0-.2-.1l-.4-.4a.471.471,0,0,0-.6.1v.1c0,.1-.1.2-.3.2a1.183,1.183,0,0,1-1-.1c-.4-.2-.8-.3-1.2-.5-.3-.1-.3-.2-.1-.5.4-.6.7-1.1,1.1-1.7,0-.1.1-.1.2-.1C-172.6,117.3-171,116.9-169.4,116.6Zm12.3.2a1.235,1.235,0,0,0,.9-1.4,1.235,1.235,0,0,0-1.4-.9,1.156,1.156,0,0,0-.9,1.4h0a1.056,1.056,0,0,0,1.4.9Z" transform="translate(408.938 630.6)"/><path class="ah" d="M-166.3,156a26.2,26.2,0,0,1,.1,2.8,15.567,15.567,0,0,1-1.7,6.2,21.284,21.284,0,0,1-1.6,2.5c-.1.1-.1.2-.3.1-.1,0-.2-.2-.2-.3a.1.1,0,0,1,.1-.1l.9-1.2a13.907,13.907,0,0,0,2.3-7.1v-2.1a24.521,24.521,0,0,0-.2-2.7,2.286,2.286,0,0,0-2.4-2.3h-.1a2.215,2.215,0,0,0-1.8,2.4,21.117,21.117,0,0,0,.2,2.6,10.188,10.188,0,0,1-.4,3.9c0,.1,0,.1-.1.1-.1.2-.2.2-.3.2s-.2-.2-.1-.4.1-.4.2-.6a9.262,9.262,0,0,0,.3-3.3c-.1-.8-.1-1.7-.2-2.5a2.972,2.972,0,0,1,1.7-2.9,2.457,2.457,0,0,1,3,1.2,2.976,2.976,0,0,1,.5,1.5C-166.4,154.6-166.3,155.1-166.3,156Z" transform="translate(408.938 630.6)"/><path class="ah" d="M-163.9,155.5c0,.9.1,1.8.1,2.8a13.934,13.934,0,0,1-.4,3.5c0,.2-.2.3-.3.2a.52.52,0,0,1-.2-.4,17.523,17.523,0,0,0,.3-5.1c-.1-.9-.1-1.8-.2-2.6a5.02,5.02,0,0,0-4.2-4.8,4.5,4.5,0,0,0-4.9,4.1v.4a8.6,8.6,0,0,0,.1,1.6,2.768,2.768,0,0,0,.1.9c0,.1-.1.2-.2.3-.1,0-.2-.1-.3-.2v-.1a20.9,20.9,0,0,1-.1-2.5,5.215,5.215,0,0,1,2.9-4.7c2.9-1.4,6.3.6,7,4.1.1.6.1,1.2.2,1.8,0,.3.1.5.1.7Z" transform="translate(408.938 630.6)"/><path class="ah" d="M-167.5,156.1a12.187,12.187,0,0,1,0,2.7c0,.2-.1.4-.2.4s-.2-.1-.2-.4v-1.9a24.521,24.521,0,0,0-.2-2.7,1.028,1.028,0,0,0-1.1-1h0a1.172,1.172,0,0,0-.9,1.1h0c.1.9.1,1.8.2,2.7a11.071,11.071,0,0,1-2.6,8,9.429,9.429,0,0,1-1,1,.1.1,0,0,0-.1.1.187.187,0,0,1-.3,0h0a.247.247,0,0,1,.1-.4l.9-.9a10.8,10.8,0,0,0,2.6-6.2v-1.9a19.42,19.42,0,0,0-.2-2.4,1.435,1.435,0,0,1,1-1.6,1.268,1.268,0,0,1,1.6.8,2.353,2.353,0,0,1,.2.8A7.449,7.449,0,0,1-167.5,156.1Z" transform="translate(408.938 630.6)"/><path class="ah" d="M-174.7,155.4a16.232,16.232,0,0,1,.1,2.1A5.183,5.183,0,0,1-177,162a.187.187,0,0,1-.3,0h0c-.1-.1,0-.3.1-.4h0a4.772,4.772,0,0,0,2-3,9.7,9.7,0,0,0,.1-1.7c-.1-1-.1-1.9-.2-2.9a6.5,6.5,0,0,1,4.5-6.6,5.608,5.608,0,0,1,4.2.5.215.215,0,0,1,.2.2c0,.1-.1.2-.2.3h-.2c-.4-.2-.8-.3-1.2-.5-3.4-.9-6.7,1.7-6.9,5.5C-174.8,154.1-174.8,154.9-174.7,155.4Z" transform="translate(408.938 630.6)"/><path class="ah" d="M-169.8,143.2a9.517,9.517,0,0,1,7.3,3,.367.367,0,0,1,.1.3.215.215,0,0,1-.2.2.367.367,0,0,1-.3-.1,8.642,8.642,0,0,0-2.9-2.1,8.528,8.528,0,0,0-10.8,3.1,10.389,10.389,0,0,0-1.5,3.4v.1a.215.215,0,0,1-.2.2h0c-.1,0-.2-.2-.2-.3v-.2a9.875,9.875,0,0,1,6.8-7.3C-171.1,143.4-170.4,143.3-169.8,143.2Z" transform="translate(408.938 630.6)"/><path class="ah" d="M-170,144.6h.2a.215.215,0,0,1,.2.2c0,.1-.1.2-.2.3h0a2.2,2.2,0,0,0-.8.1,7.807,7.807,0,0,0-4.8,2.9,9.211,9.211,0,0,0-1.9,4.8v1.7a21.054,21.054,0,0,0,.2,2.5,2.825,2.825,0,0,1-.9,2.4.367.367,0,0,1-.3.1.6.6,0,0,1-.1-.4l.1-.1a2.589,2.589,0,0,0,.7-1.1,2.768,2.768,0,0,0,.1-.9c0-1-.2-2-.2-3a9.821,9.821,0,0,1,2.5-6.9,7.446,7.446,0,0,1,4.3-2.4,2.919,2.919,0,0,1,.9-.2Z" transform="translate(408.938 630.6)"/><path class="ah" d="M-163.2,155.7c0-.6-.1-1.2-.1-1.8a6.865,6.865,0,0,0-2.3-4.8c-.1-.1-.2-.3-.1-.4a.188.188,0,0,1,.3,0,7.5,7.5,0,0,1,2.4,4.1,4.1,4.1,0,0,1,.1,1.1c.1,1.1.2,2.3.2,3.4a19.216,19.216,0,0,1-1.6,8.5,5.939,5.939,0,0,1-.4.8c-.1.2-.2.2-.3.2s-.2-.2-.1-.4a17.943,17.943,0,0,0,1.7-6,17.851,17.851,0,0,0,.1-4c.2-.2.1-.5.1-.7Z" transform="translate(408.938 630.6)"/><path class="ah" d="M-160.3,155.5c0,1,0,2.1.1,3.1v.2c0,.2-.1.2-.2.2s-.2-.1-.2-.3v-.8a7.568,7.568,0,0,0-.1-1.5c-.1-.9-.1-1.9-.2-2.8a9.352,9.352,0,0,0-5.3-7.9,8.3,8.3,0,0,0-2.1-.6.319.319,0,0,1-.3-.3h0c0-.2.1-.2.3-.2a9.433,9.433,0,0,1,7.5,7.1,6.279,6.279,0,0,1,.3,1.9c.1.7.1,1.3.2,1.9Z" transform="translate(408.938 630.6)"/><path class="ah" d="M-170,145.9a7.956,7.956,0,0,1,8,5.6v.1a.192.192,0,0,1-.1.3c-.1,0-.3,0-.3-.2h0a3.552,3.552,0,0,0-.4-.9,7.229,7.229,0,0,0-5.7-4.4,6.272,6.272,0,0,0-5.7,2.2l-.1.1a.187.187,0,0,1-.3,0h0a.3.3,0,0,1,0-.4c.1-.2.3-.3.4-.4A7.212,7.212,0,0,1-170,145.9Z" transform="translate(408.938 630.6)"/><path class="ah" d="M-170.4,150.5c0,.1-.1.2-.2.3a3.282,3.282,0,0,0-1.5,1.8,2.966,2.966,0,0,0-.2,1.6c.1.9.1,1.8.2,2.7a8.031,8.031,0,0,1-3.2,7.3c-.2.1-.3.1-.4,0s0-.3.2-.4a7.38,7.38,0,0,0,2.7-4,6.548,6.548,0,0,0,.3-2.8c-.1-.9-.1-1.8-.2-2.8a4.268,4.268,0,0,1,1.4-3.5,4.233,4.233,0,0,1,.7-.5c.1-.1.2,0,.3.1C-170.5,150.4-170.4,150.5-170.4,150.5Z" transform="translate(408.938 630.6)"/><path class="ah" d="M-168.7,155.9a14.044,14.044,0,0,1,0,2.9,12.594,12.594,0,0,1-2,5.9,15.583,15.583,0,0,1-1.6,2,.1.1,0,0,1-.1.1.187.187,0,0,1-.3,0h0a.3.3,0,0,1,0-.4l.2-.2a11.482,11.482,0,0,0,3.3-7.2,8.1,8.1,0,0,0,0-2.2c-.1-.8-.1-1.6-.2-2.4v-.1c0-.2.1-.3.2-.3s.2.1.2.3a2.2,2.2,0,0,0,.1.8A1.077,1.077,0,0,1-168.7,155.9Z" transform="translate(408.938 630.6)"/><path class="ah" d="M-161.5,155.6c.1,1.2.1,2.3.1,3.5a20.642,20.642,0,0,1-1.2,6c0,.1-.1.2-.1.3-.1.2-.2.2-.3.2s-.2-.2-.1-.4a16.813,16.813,0,0,0,.9-3.2,17.61,17.61,0,0,0,.3-5.6c-.1-.9-.1-1.8-.2-2.7v-.4c0-.2,0-.3.2-.3a.265.265,0,0,1,.3.3c0,.5.1,1.1.1,1.6C-161.6,155.1-161.5,155.4-161.5,155.6Z" transform="translate(408.938 630.6)"/><path class="ah" d="M-174.9,149.6c0,.1-.1.1-.1.2a8.521,8.521,0,0,0-1,4.7c.1.8.1,1.7.2,2.5a4.026,4.026,0,0,1-1.7,3.7.187.187,0,0,1-.3,0,.187.187,0,0,1,0-.3.1.1,0,0,1,.1-.1,4,4,0,0,0,1.3-1.8,4.678,4.678,0,0,0,.2-1.7c-.1-1-.1-2-.2-3a7.612,7.612,0,0,1,1.1-4.4c.1-.1.1-.2.3-.1C-175,149.5-175,149.6-174.9,149.6Z" transform="translate(408.938 630.6)"/><path class="ah" d="M-165,157.4a16.727,16.727,0,0,1-2.1,8.7c-.3.5-.6.9-.9,1.4l-.1.1a.367.367,0,0,1-.3.1h0a.3.3,0,0,1,0-.4l.6-.9a15.688,15.688,0,0,0,2.3-7c.1-.7,0-1.4.1-2,0-.2.1-.3.2-.3s.2.1.2.3Z" transform="translate(408.938 630.6)"/><path class="ah" d="M-159.2,154.8c0,.6.1,1.2.1,1.7a.367.367,0,0,1-.1.3h-.2a.367.367,0,0,1-.1-.3c-.1-.9-.1-1.9-.2-2.8a10.907,10.907,0,0,0-2-5.7c-.1-.1-.1-.2-.2-.3a.3.3,0,0,1,0-.4c.1-.1.2-.1.3.1a9.8,9.8,0,0,1,1.3,2.2,11.221,11.221,0,0,1,1,4,4.869,4.869,0,0,1,.1,1.2Z" transform="translate(408.938 630.6)"/><path class="ah" d="M-165.2,154.7c0,.4.1.7.1,1.1,0,.2-.1.3-.2.3s-.2-.1-.2-.3c0-.6-.1-1.3-.1-1.9a3.649,3.649,0,0,0-3.2-3.5h-.6c-.1,0-.3-.1-.3-.2h0c0-.1.1-.2.2-.3h0a4.041,4.041,0,0,1,3.6,1.8,3.986,3.986,0,0,1,.7,2.4v.6Z" transform="translate(408.938 630.6)"/><path class="ah" d="M-167.6,160.2v.2a12.878,12.878,0,0,1-3.3,6.7h0a.247.247,0,0,1-.4.1.247.247,0,0,1,.1-.4,12.134,12.134,0,0,0,3.2-6.5v-.2a.215.215,0,0,1,.2-.2h0C-167.7,160-167.6,160.1-167.6,160.2Z" transform="translate(408.938 630.6)"/><path class="ah" d="M-173.4,157.9a5.663,5.663,0,0,1-.3,1.8,6.725,6.725,0,0,1-2.5,3.5c-.1,0-.1.1-.2.1a.215.215,0,0,1-.2-.2.367.367,0,0,1,.1-.3,2.7,2.7,0,0,0,.8-.7,5.94,5.94,0,0,0,1.8-4.1v-.1c0-.2.1-.3.2-.3A.319.319,0,0,1-173.4,157.9Z" transform="translate(408.938 630.6)"/><path class="ah" d="M-178.8,155.5V153a1.7,1.7,0,0,1,.1-.7c0-.2.1-.3.3-.2s.2.2.2.3a8.854,8.854,0,0,0,0,2.3c.1.8.1,1.6.2,2.4,0,.2-.1.3-.2.3a.319.319,0,0,1-.3-.3,7.58,7.58,0,0,1-.3-1.6Z" transform="translate(408.938 630.6)"/><path class="ah" d="M-164.5,163v.2a18.03,18.03,0,0,1-1.6,3.8c-.1.1-.1.2-.2.3a.192.192,0,0,1-.3.1h0a.3.3,0,0,1,0-.4,20.443,20.443,0,0,0,1.8-4c0-.1.1-.2.3-.2C-164.6,162.8-164.6,162.9-164.5,163Z" transform="translate(408.938 630.6)"/><path class="ah" d="M-174.7,165.3l-.2-.2c-.1-.1,0-.2.1-.3a5.008,5.008,0,0,0,.8-.7,8.008,8.008,0,0,0,1.5-2.1h0c.1-.2.2-.2.3-.1s.2.3.1.4h0c-.2.3-.4.7-.6,1a10.708,10.708,0,0,1-1.8,1.9C-174.6,165.2-174.6,165.2-174.7,165.3Z" transform="translate(408.938 630.6)"/><path class="ah" d="M-160.3,160.3c0,.3-.1.7-.1,1.1a12.86,12.86,0,0,1-.4,1.9c0,.2-.2.3-.3.2s-.2-.2-.1-.3c.2-1,.4-2,.5-3,0-.2.1-.3.2-.2S-160.3,160.1-160.3,160.3Z" transform="translate(408.938 630.6)"/><path class="ah" d="M-138.6,139.3c-1.7-5.5.9-10.9,5.7-11.9s10.2,2.6,11.9,8c1.7,5.5-.8,10.9-5.8,11.9C-131.5,148.4-136.9,144.8-138.6,139.3Zm16.2,3.6c-.7-.3-1.4-.6-2-.9-1-.5-1.9-1-2.9-1.6-1.1-.8-1.2-1.4-.4-2.3a3.36,3.36,0,0,0,1-1.6,6.54,6.54,0,0,0-.2-3.1,4.055,4.055,0,0,0-3-2.8,2.733,2.733,0,0,0-3.1,1.8,4.935,4.935,0,0,0,.9,5.2c1,1.1.6,1.7-.2,2.1a.1.1,0,0,0-.1.1c-1.2.3-2.4.6-3.6,1a3.6,3.6,0,0,1-1.1.2c1.8,3.1,4.2,5,7.3,5.5a7.126,7.126,0,0,0,7.4-3.6Z" transform="translate(408.938 630.6)"/><path class="ah" d="M-142.8,148.3c.3,0,.4.1.6.1l25.5,3.4c.7.1.8.2.8.9a22.6,22.6,0,0,0,.1,2.6c0,.6-.1.7-.7.7l-17.1-2.3-8.5-1.1c-.6-.1-.8-.2-.8-.9,0-.9-.1-1.9-.1-2.8A1.421,1.421,0,0,1-142.8,148.3Z" transform="translate(408.938 630.6)"/><path class="ah" d="M-115.8,159v.6a19.269,19.269,0,0,0,.1,2.4c0,.7-.1.8-.7.7l-17.5-2.3-8.1-1.1c-.6-.1-.8-.2-.8-.9a21.749,21.749,0,0,0-.1-2.6c0-.6.1-.7.7-.7l20.1,2.7c1.9.2,3.7.5,5.6.7C-116.1,158.5-115.8,158.7-115.8,159Z" transform="translate(408.938 630.6)"/><path class="ao" d="M-126.4,237.4c0,2.3-5.6,4.2-12.4,4.2s-12.4-1.9-12.4-4.2,5.6-4.2,12.4-4.2S-126.4,235.1-126.4,237.4Z" transform="translate(408.938 630.6)"/><path class="ah" d="M-132.2,236.5l1.2-6.5s-2.4-3-5.7-1.8c0,0-.5-3.2-2.7-3.3a3.993,3.993,0,0,0-3.4,1.3,2.248,2.248,0,0,0-2.1-2.4h-.5c-2.7.2-2.4,3.5-2.4,3.5l2.1,9.2Z" transform="translate(408.938 630.6)"/><path class="c" d="M-150.7,214.2a7.719,7.719,0,0,0,1.5.2c6.6-.3,13.3-.1,19.9-.1a3.805,3.805,0,0,0,1.8-.3c3.2-2.1-4-2.2-4.7-2.2h-7.7c-3.5,0-6.3.1-10.4.3-.5,0-1.4,0-1.7.5C-152.4,213.5-151.6,214-150.7,214.2Z" transform="translate(408.938 630.6)"/><path class="c" d="M-146.1,237.2a37.08,37.08,0,0,0,4.7.3h8.8a3.749,3.749,0,0,0,1.1-.1.969.969,0,0,0,.7-.8c.1-1-14.6-1.7-15.9-.6C-147.6,236.7-147.1,237-146.1,237.2Z" transform="translate(408.938 630.6)"/><path class="c" d="M-131.9,236.6l4.3-23.6-.5-.1-4.3,23.6Z" transform="translate(408.938 630.6)"/><path class="c" d="M-146.3,236.6l.5-.1-4.3-23.6-.5.1Z" transform="translate(408.938 630.6)"/><path class="c" d="M-128.7,217.2l.1-.2-7-4.1-.1.2Z" transform="translate(408.938 630.6)"/><path class="c" d="M-129.3,220.5l.1-.2-11.6-6.7-.1.2Z" transform="translate(408.938 630.6)"/><path class="c" d="M-130.1,224.8l.1-.2-16.7-10.5-.1.2Z" transform="translate(408.938 630.6)"/><path class="c" d="M-130.9,229.2l.1-.2-18.7-11.5-.1.2Z" transform="translate(408.938 630.6)"/><path class="c" d="M-131.6,233l.1-.2-16.9-9.1-.1.2Z" transform="translate(408.938 630.6)"/><path class="c" d="M-135,236.6l.1-.2-12.4-7.3-.1.2Z" transform="translate(408.938 630.6)"/><path class="c" d="M-141.2,236.6l.1-.2-5.4-2.9-.1.2Z" transform="translate(408.938 630.6)"/><path class="c" d="M-149.4,217.6l3.3-5.2-.2-.1-3.3,5.2Z" transform="translate(408.938 630.6)"/><path class="c" d="M-148.8,221.1l5.8-8-.2-.1-5.8,8Z" transform="translate(408.938 630.6)"/><path class="c" d="M-148,225.3l8.7-12.2-.2-.1-8.7,12.2Z" transform="translate(408.938 630.6)"/><path class="c" d="M-147.3,229.3l12.4-15.8-.2-.2-12.4,15.8Z" transform="translate(408.938 630.6)"/><path class="c" d="M-146.7,232.4l15.3-18.7-.2-.2-15.3,18.7Z" transform="translate(408.938 630.6)"/><path class="c" d="M-145.9,235.8l18-21.6-.2-.2-18,21.6Z" transform="translate(408.938 630.6)"/><path class="c" d="M-141.7,235.8l12.3-13.6-.2-.2-12.3,13.6Z" transform="translate(408.938 630.6)"/><path class="c" d="M-137.6,236.6l7.3-9.4-.2-.2-7.3,9.4Z" transform="translate(408.938 630.6)"/><path class="c" d="M-134.3,236.6l2.9-3.6-.2-.2-2.9,3.6Z" transform="translate(408.938 630.6)"/><ellipse class="ao" cx="6.9" cy="2.4" rx="6.9" ry="2.4" transform="translate(96.938 850.6)"/><path class="ap" d="M-309.7,191.8a8.537,8.537,0,0,1,1.4-7.4,4.991,4.991,0,0,0,1.1-1.7c.6-1.7-1.2-3.4-1.4-5.2-.2-1.9,1.5-3.4,2.9-4.6a4.2,4.2,0,0,1,2.5-1.2,3.313,3.313,0,0,1,2.7,2c.5,1.1.7,2.3,1.2,3.3.5,1.1,1.3,2,1.9,3.1a4.314,4.314,0,0,1,.6,3.5c-.5,1.5-2.2,2.4-2.7,3.9-.9,2.3,1.2,4.9.2,7.2a3.775,3.775,0,0,1-2.3,2C-305.1,198-308.6,195.4-309.7,191.8Z" transform="translate(408.938 630.6)"/><path class="aq" d="M-303.9,196.3l-.7,8.8h.7l.5-8.8Z" transform="translate(408.938 630.6)"/><path class="aq" d="M-303.3,173.3c-.2,3.6-.5,7.2-.6,10.8-.1,3.7-.5,7.7.2,11.3a.1.1,0,0,0,.1.1l.1-.1c-.5-7.3,0-14.7.4-22.1,0-.2-.2-.2-.2,0Z" transform="translate(408.938 630.6)"/><path class="ar" d="M-305.6,194.1a.215.215,0,0,0,.2-.2.215.215,0,0,0-.2-.2.215.215,0,0,0-.2.2C-305.8,194.1-305.7,194.1-305.6,194.1Z" transform="translate(408.938 630.6)"/><path class="ar" d="M-307.7,192.7c.1,0,.2,0,.2-.1.1-.1,0-.3-.2-.2h0a.1.1,0,0,0-.1.1c0,.2,0,.2.1.2Z" transform="translate(408.938 630.6)"/><path class="ar" d="M-306.2,190.9c.1,0,.2-.1.1-.2a.1.1,0,0,0-.1-.1c-.1,0-.2.1-.1.2C-306.4,190.8-306.3,190.9-306.2,190.9Z" transform="translate(408.938 630.6)"/><path class="ar" d="M-307.7,189.1h0c.1-.1.1-.1,0-.2h0c-.1-.1-.2-.1-.2,0-.1.1-.1.2,0,.2.1.1.2.1.2,0Z" transform="translate(408.938 630.6)"/><path class="ar" d="M-301.4,193.7h0c.1-.1.1-.1.1-.2h0C-301.7,193.3-301.7,193.9-301.4,193.7Z" transform="translate(408.938 630.6)"/><path class="ar" d="M-300.3,193.3a.1.1,0,0,0,.1-.1V193h-.3C-300.6,193.1-300.5,193.4-300.3,193.3Z" transform="translate(408.938 630.6)"/><path class="ar" d="M-306.5,176.4h0c0,.3.3.3.3.1v-.1c0-.1-.1-.1-.2-.1l-.1.1Z" transform="translate(408.938 630.6)"/><path class="ar" d="M-305.8,179.5a.215.215,0,0,0,.2-.2.215.215,0,0,0-.2-.2.215.215,0,0,0-.2.2A.215.215,0,0,0-305.8,179.5Z" transform="translate(408.938 630.6)"/><path class="ar" d="M-304.5,176.9h.2c.1,0,0-.1,0-.1h0c0-.1-.2-.1-.3-.1s0,.2.1.2Z" transform="translate(408.938 630.6)"/><path class="ar" d="M-299.1,182h0a.192.192,0,0,0,.3-.1c.1-.1,0-.2-.1-.3h-.2c-.1.1-.1.2,0,.4Z" transform="translate(408.938 630.6)"/><path class="ar" d="M-300.3,184.7a.215.215,0,0,0,.2-.2c0-.1,0-.2-.1-.2s-.2,0-.2.1h0v.1c0,.1,0,.2.1.2Z" transform="translate(408.938 630.6)"/><path class="ar" d="M-300.9,181.5a.215.215,0,0,0,.2-.2.215.215,0,0,0-.2-.2.215.215,0,0,0-.2.2C-301,181.4-301,181.5-300.9,181.5Z" transform="translate(408.938 630.6)"/><path class="ar" d="M-300,179.7c.1,0,.2-.1.1-.2a.1.1,0,0,0-.1-.1c-.1,0-.2.1-.1.2Z" transform="translate(408.938 630.6)"/><path class="aq" d="M-295.2,193.9a11.429,11.429,0,0,1,3-.9,6.941,6.941,0,0,0,3.4-2.2c1-1.1,1.7-2.6,3.1-3.1,1.5-.6,3.1.1,4.7.1,1.4,0,2.7-.6,4.1-.6.8,0,1.9.4,1.8,1.2-.1.5-.5.8-1,1.1l-2,1.2a8.008,8.008,0,0,0-2.1,1.5c-1,1.1-1.5,2.5-2.5,3.6-1.5,1.5-3.8,1.8-5.8,1.6-1.1-.1-2.4-.3-3.3.4-1.3,1-3.3,3.9-5.1,1.6C-298.1,197.7-296.7,194.8-295.2,193.9Z" transform="translate(408.938 630.6)"/><path class="ap" d="M-296.1,198.2l-.4-.2s-3.7,3.9-3.9,7.4h.8S-300,202.4-296.1,198.2Z" transform="translate(408.938 630.6)"/><path class="ap" d="M-295.8,197.8c3.1-1.6,6.2-3.4,9.3-5.1s6.4-3.1,9.5-4.7a.192.192,0,0,0-.1-.3,99.682,99.682,0,0,0-9.3,4.5,80.342,80.342,0,0,0-9.5,5.4v.1a.1.1,0,0,0,.1.1Z" transform="translate(408.938 630.6)"/><path class="ar" d="M-295.1,195.4a.215.215,0,0,0,.2-.2.215.215,0,0,0-.2-.2.215.215,0,0,0-.2.2C-295.2,195.3-295.2,195.4-295.1,195.4Z" transform="translate(408.938 630.6)"/><path class="ar" d="M-293,195h0c.1-.1.1-.1,0-.2h0c-.1-.1-.2-.1-.2,0v.1a.215.215,0,0,0,.2.2V195Z" transform="translate(408.938 630.6)"/><path class="ar" d="M-294.1,194.3h0a.1.1,0,0,0,.1-.1l-.1-.1h-.1C-294.2,194-294.2,194.3-294.1,194.3Z" transform="translate(408.938 630.6)"/><path class="ar" d="M-287.3,191.7h0c0-.1-.1-.3-.2-.2a.1.1,0,0,0-.1.1.215.215,0,0,0,.2.2h0Z" transform="translate(408.938 630.6)"/><path class="ar" d="M-286.1,189.4l.2.2h.2v-.1c0-.1,0-.2-.1-.2-.1-.1-.1-.1-.2-.1,0-.1-.1,0-.1.2Z" transform="translate(408.938 630.6)"/><path class="ar" d="M-284.6,190.3c0,.1.1.1.2.1s.2-.1.1-.2c0-.1-.1-.1-.2-.1S-284.7,190.2-284.6,190.3Z" transform="translate(408.938 630.6)"/><path class="ar" d="M-283.2,189.5a.1.1,0,0,0,.1-.1c.1-.1,0-.2-.1-.2s-.1,0-.2.1c-.1,0,.1.2.2.2Z" transform="translate(408.938 630.6)"/><path class="ar" d="M-287,195.7h.2a.1.1,0,0,0,.1-.1c0-.1-.1-.1-.1-.2-.3-.1-.5.2-.2.3Z" transform="translate(408.938 630.6)"/><path class="ar" d="M-284.6,196c.1,0,.2,0,.2-.1v-.1c0-.1-.1-.1-.2-.1s-.1.1-.1.2l.1.1Z" transform="translate(408.938 630.6)"/><path class="ar" d="M-284.8,194.4h0c.3-.2,0-.5-.2-.3h0c0,.1,0,.2.1.2C-285,194.5-284.9,194.5-284.8,194.4Z" transform="translate(408.938 630.6)"/><path class="ar" d="M-283.2,193.9a.1.1,0,0,0,.1-.1l-.1-.1-.1.1Z" transform="translate(408.938 630.6)"/><path class="ar" d="M-277.2,188.9a.1.1,0,0,0,.1-.1.1.1,0,0,0-.1-.1.1.1,0,0,0-.1.1C-277.3,188.9-277.3,188.9-277.2,188.9Z" transform="translate(408.938 630.6)"/><path class="ar" d="M-294.9,198.8h0v.1h0c0,.1.1.1.2.1s.1-.1.1-.2a.188.188,0,0,0-.3,0Z" transform="translate(408.938 630.6)"/><path class="ar" d="M-293.5,198.2h0c.1-.1.1-.2,0-.2h0c-.1-.1-.2-.1-.2,0s-.1.2,0,.2C-293.7,198.3-293.6,198.3-293.5,198.2Z" transform="translate(408.938 630.6)"/><path class="ar" d="M-305.6,184.1h0v.1h0c0,.1.1.1.2.1s.1-.1.1-.2-.2-.1-.3,0Z" transform="translate(408.938 630.6)"/><path class="ar" d="M-302.4,187.7a.215.215,0,0,0,.2-.2.215.215,0,0,0-.2-.2.215.215,0,0,0-.2.2A.215.215,0,0,0-302.4,187.7Z" transform="translate(408.938 630.6)"/><path class="as" d="M-311.8,192.4a9.932,9.932,0,0,0-3.8-4.3,20.742,20.742,0,0,1-3.2-1.9c-1.6-1.4-2.3-3.7-4.2-4.5a5.222,5.222,0,0,0-2.1-.4,3.992,3.992,0,0,0-3.3,1,2.706,2.706,0,0,0-.1,3.1c.8,1.2,2.3,1.8,3.2,3,1.6,2,1,5.2,2.7,7,1,1.1,2.6,1.5,3.9,2.2a32.843,32.843,0,0,0,3.1,2C-311.3,201.3-310.6,195.1-311.8,192.4Z" transform="translate(408.938 630.6)"/><path class="ap" d="M-312.9,197.6l-.3.2c4,5,4.4,7.9,4.4,7.9h.9C-308.9,202-312.9,197.6-312.9,197.6Z" transform="translate(408.938 630.6)"/><path class="ap" d="M-326.5,183.3c2.8,1.6,4.9,4.8,7,7.2s3.9,5.3,6.3,7.3h.2v-.2h0c-2.1-2.6-4.3-5.1-6.5-7.7-1.9-2.3-4.1-5.4-6.8-6.8-.1.1-.2.1-.2.2Z" transform="translate(408.938 630.6)"/><path class="ar" d="M-320.2,195c-.1,0-.1-.1,0,0a.139.139,0,0,0-.2,0v.2C-320.3,195.3-320.1,195.1-320.2,195Z" transform="translate(408.938 630.6)"/><path class="ar" d="M-317.9,196.6h0c.1-.1.1-.1,0-.1h0c-.1-.1-.2,0-.2.1S-318,196.7-317.9,196.6Z" transform="translate(408.938 630.6)"/><path class="ar" d="M-318.8,194.4h0c-.1-.1-.1-.1-.2-.1h0C-319.3,194.7-318.7,194.7-318.8,194.4Z" transform="translate(408.938 630.6)"/><path class="ar" d="M-315.9,197.5h0c.1-.1.1-.2,0-.2h0c-.1-.1-.2-.1-.2,0-.1.1-.1.2,0,.2s.1.1.2,0Z" transform="translate(408.938 630.6)"/><path class="ar" d="M-321.3,192.5a.215.215,0,0,0,.2-.2.215.215,0,0,0-.2-.2.215.215,0,0,0-.2.2C-321.5,192.5-321.4,192.5-321.3,192.5Z" transform="translate(408.938 630.6)"/><path class="ar" d="M-322.7,189.9h0c-.1.1-.1.1,0,.2h0c.1.1.1.1.2,0s.1-.1,0-.2-.2-.1-.2,0Z" transform="translate(408.938 630.6)"/><path class="ar" d="M-317.2,188.9a.1.1,0,0,0,.1-.1.1.1,0,0,0-.1-.1.1.1,0,0,0-.1.1A.1.1,0,0,0-317.2,188.9Z" transform="translate(408.938 630.6)"/><path class="ar" d="M-316.2,191.3h0c.1-.1.1-.1.1-.2h0c-.4-.2-.4.4-.1.2Z" transform="translate(408.938 630.6)"/><path class="ar" d="M-314,191.4a.1.1,0,0,0,.1-.1.1.1,0,0,0-.1-.1.1.1,0,0,0-.1.1A.1.1,0,0,0-314,191.4Z" transform="translate(408.938 630.6)"/><path class="ar" d="M-312.9,194.1a.1.1,0,0,0,.1-.1.1.1,0,0,0-.1-.1.1.1,0,0,0-.1.1C-313,194.1-313,194.1-312.9,194.1Z" transform="translate(408.938 630.6)"/><path class="ar" d="M-327.2,184.4a.187.187,0,0,0,.3,0,.1.1,0,0,0,.1-.1h0c-.1-.1-.1-.1-.2-.1C-327.2,184.1-327.3,184.4-327.2,184.4Z" transform="translate(408.938 630.6)"/><path class="ar" d="M-325.6,185.5h0c.2.2.4,0,.2-.2h0c-.1,0-.2,0-.2.1Z" transform="translate(408.938 630.6)"/><path class="ar" d="M-324.6,182.4h0c-.1.1-.1.1-.1.2v.1c.1,0,.1.1.2,0h.1c.2-.1,0-.4-.2-.3Z" transform="translate(408.938 630.6)"/><path class="ar" d="M-327.4,182.5c.1,0,.2.1.3,0v-.1c0-.1-.2-.1-.3-.2-.1,0-.1,0-.2.1C-327.5,182.4-327.5,182.5-327.4,182.5Z" transform="translate(408.938 630.6)"/><path class="at" d="M-312.6,204.2h16s-.3,17.5-7.7,18C-315.5,222.9-312.6,204.2-312.6,204.2Z" transform="translate(408.938 630.6)"/><path class="c" d="M-313.7,204.2h6.2s-3.4,11.3,1.8,18h0s-9.6.5-8-18" transform="translate(408.938 630.6)"/><g transform="translate(408.938 630.6)"><path class="ah" d="M-261.5,152.1h-.9a6.936,6.936,0,0,1-3.6-1.6,9.831,9.831,0,0,1-3.1-4.9c0-.1-.1-.2-.1-.4V145h0l-.1-.8v-.7a7.59,7.59,0,0,1,1.2-4.6,4.909,4.909,0,0,1,3.4-2.2.367.367,0,0,0,.3-.1h1.4a7.2,7.2,0,0,1,4.1,2.2,10.38,10.38,0,0,1,2.5,4.3c0,.1.1.2.1.4v.2h0l.1.8v.1a6.6,6.6,0,0,1,.1,1.4,6.874,6.874,0,0,1-.5,2.4,7.24,7.24,0,0,1-1.1,1.9,6.529,6.529,0,0,1-1.6,1.3A6.308,6.308,0,0,1-261.5,152.1Zm-7.2-7.1v.1c0,.1.1.2.1.3a9.036,9.036,0,0,0,2.9,4.5,6.609,6.609,0,0,0,3.4,1.5h.8c2.7-.1,4.7-2.4,4.9-5.6a5.7,5.7,0,0,0-.1-1.3v-.1h0l-.1-.7v-.1c0-.1-.1-.2-.1-.3a8.134,8.134,0,0,0-2.3-3.9,6.165,6.165,0,0,0-3.8-2h-1.6a4.523,4.523,0,0,0-3.1,2.1,6.993,6.993,0,0,0-1.1,4.2v.6h0Zm6.1-3.2a1.421,1.421,0,0,1-.6-.2.864.864,0,0,1-.3-.6,1.7,1.7,0,0,1,.1-.7.55.55,0,0,1,.5-.3v0a1.421,1.421,0,0,1,.6.2.864.864,0,0,1,.3.6,1.7,1.7,0,0,1-.1.7c-.2.2-.3.3-.5.3Z"/><path class="au" d="M-262.3,144.1v.9a12.1,12.1,0,0,1-.1,1.9v.4a.1.1,0,0,0,.1.1.9.9,0,0,0,.5-.1c.1,0,.1-.1.2-.1s.1,0,.1.1v.6a.1.1,0,0,1-.1.1,2.471,2.471,0,0,1-.9.4h-.4a.961.961,0,0,1-.7-.9v-.9a12.75,12.75,0,0,1,.1-1.9v-.4c0-.1-.1-.2-.2-.1-.2,0-.3.1-.5.1-.1,0-.1,0-.2.1-.1,0-.1,0-.1-.1v-.6a.1.1,0,0,1,.1-.1,2.994,2.994,0,0,1,.8-.4h.5C-262.5,143.4-262.3,143.7-262.3,144.1Z"/></g></g></svg>