<svg xmlns="http://www.w3.org/2000/svg" width="67.241" height="67.032" viewBox="0 0 67.241 67.032"><defs><style>.a{fill:#fea356;}.b{fill:#fff;}.c{fill:#fc585f;}.d{fill:#193651;}</style></defs><g transform="translate(0 -0.8)"><path class="a" d="M25.558,126.148H8.8V112.742a3.151,3.151,0,0,1,3.142-3.142H22.521a3.151,3.151,0,0,1,3.142,3.142v13.406Z" transform="translate(-7.648 -94.556)"/><g transform="translate(4.608 1.847)"><rect class="b" width="7.122" height="11.94" transform="translate(1.362 29.745)"/><path class="b" d="M40.123,8.8h0A4.917,4.917,0,0,0,35.2,13.723h0a4.917,4.917,0,0,0,4.923,4.923h0a4.917,4.917,0,0,0,4.923-4.923h0A4.917,4.917,0,0,0,40.123,8.8Z" transform="translate(-35.2 -8.8)"/></g><path class="c" d="M393.558,158.148H376.8V144.742a3.151,3.151,0,0,1,3.142-3.142h10.474a3.151,3.151,0,0,1,3.142,3.142Z" transform="translate(-327.469 -122.366)"/><g transform="translate(1.152 6.037)"><rect class="b" width="7.122" height="11.94" transform="translate(52.997 29.745)"/><path class="b" d="M408.123,40.8h0a4.917,4.917,0,0,0-4.923,4.923h0a4.917,4.917,0,0,0,4.923,4.923h0a4.917,4.917,0,0,0,4.923-4.923h0A4.917,4.917,0,0,0,408.123,40.8Z" transform="translate(-351.565 -40.8)"/><path class="b" d="M9.324,303.2,8.8,308.227l64.413,6.284.524-5.027Z" transform="translate(-8.8 -268.846)"/><path class="b" d="M196.312,365.6h0a9.119,9.119,0,0,0-9.112,9.112h0a9.119,9.119,0,0,0,9.112,9.112h0a9.119,9.119,0,0,0,9.112-9.112h0A9.119,9.119,0,0,0,196.312,365.6Z" transform="translate(-163.844 -323.077)"/></g><g transform="translate(0 0.8)"><path class="d" d="M33.17,12.74a6.036,6.036,0,0,0,5.97-5.97,5.97,5.97,0,1,0-11.94,0A6.036,6.036,0,0,0,33.17,12.74Zm0-9.845A3.935,3.935,0,0,1,37.045,6.77a3.875,3.875,0,0,1-7.751,0A3.935,3.935,0,0,1,33.17,2.895Z" transform="translate(-23.639 -0.8)"/><path class="d" d="M401.17,44.74a5.97,5.97,0,1,0-5.97-5.97A5.967,5.967,0,0,0,401.17,44.74Zm0-9.845a3.875,3.875,0,1,1-3.875,3.875A3.866,3.866,0,0,1,401.17,34.895Z" transform="translate(-343.46 -28.611)"/><path class="d" d="M67.241,133.335l-4.923-.524v-8.484h4.818V109.979a4.2,4.2,0,0,0-4.189-4.189H52.369a4.2,4.2,0,0,0-4.189,4.189v14.454H53v7.541L14.035,128.1v-7.855h4.923V105.789a4.2,4.2,0,0,0-4.189-4.189H4.294A4.2,4.2,0,0,0,.1,105.789v14.454H4.923v7.017l-4.189-.419L0,133.964l28.174,2.723a10.179,10.179,0,1,0,12.464,1.257l25.975,2.514Zm-16.863-11V109.979a2.1,2.1,0,0,1,2.095-2.095H62.947a2.1,2.1,0,0,1,2.095,2.095v12.359Zm9.845,2.095v8.274l-5.027-.524h0v-7.751ZM2.2,118.148V105.789a2.1,2.1,0,0,1,2.095-2.095H14.873a2.1,2.1,0,0,1,2.095,2.095v12.359Zm9.845,2.095v7.751l-5.027-.524v-7.227Zm29.641,25.032a8.065,8.065,0,1,1-8.169-8.065l1.781.209A8.071,8.071,0,0,1,41.685,145.275Zm22.937-7.122L2.3,132.078l.314-2.933,62.319,6.075Z" transform="translate(0 -88.403)"/><rect class="d" width="2.095" height="2.095" transform="translate(56.663 23.147)"/><rect class="d" width="2.095" height="2.095" transform="translate(56.663 29.326)"/><rect class="d" width="2.095" height="2.095" transform="translate(8.484 18.957)"/><rect class="d" width="2.095" height="2.095" transform="translate(8.484 25.137)"/></g></g></svg>