<svg xmlns="http://www.w3.org/2000/svg" width="57.078" height="57.078" viewBox="0 0 57.078 57.078"><defs><style>.a{fill:#fff;}.b{fill:#193651;}.c{fill:#fea356;}.d{fill:#fc585f;}</style></defs><g transform="translate(0 0)"><circle class="a" cx="13.11" cy="13.11" r="13.11" transform="translate(0.892 0.892)"/><path class="b" d="M14,28.093A14.046,14.046,0,0,1,14,0a14.046,14.046,0,0,1,0,28.093ZM14,1.784A12.3,12.3,0,0,0,1.784,14,12.3,12.3,0,0,0,14,26.22,12.218,12.218,0,0,0,14,1.784Z"/><path class="c" d="M49.543,59.174a9.587,9.587,0,1,1,9.543-9.632A9.63,9.63,0,0,1,49.543,59.174Z" transform="translate(-35.541 -35.541)"/><g transform="translate(0.713)"><path class="b" d="M102.51,74.7A3.2,3.2,0,0,0,99.3,71.486a1.605,1.605,0,1,1,1.605-1.605H102.6a3.163,3.163,0,0,0-2.408-3.121V65.6H98.5v1.159a3.262,3.262,0,0,0-2.408,3.121A3.2,3.2,0,0,0,99.3,73.091,1.605,1.605,0,1,1,97.694,74.7H96a3.163,3.163,0,0,0,2.408,3.121v1.249H100.1V77.818A3.163,3.163,0,0,0,102.51,74.7Z" transform="translate(-86.011 -58.287)"/><path class="b" d="M462.243,6.243h-1.784V1.784H456V0h6.243Z" transform="translate(-405.879)"/><path class="b" d="M6.846,42.8,6.4,41.1l.446-.178.446,1.694Zm2.23-.624L8.54,40.479c.535-.178,1.159-.357,1.694-.535l.535,1.694C10.235,41.817,9.611,41.995,9.076,42.173Zm3.389-1.07-.624-1.694c.535-.178,1.07-.357,1.694-.624l.624,1.694A13,13,0,0,0,12.464,41.1Zm3.389-1.249-.624-1.694c.535-.178,1.07-.446,1.605-.624l.713,1.605C16.924,39.409,16.389,39.587,15.853,39.854Zm3.3-1.427-.713-1.605c.535-.268,1.07-.446,1.605-.713l.713,1.605C20.313,37.982,19.688,38.16,19.153,38.428Zm3.3-1.516-.8-1.605,1.605-.8.8,1.605Zm3.211-1.605-.8-1.605c.535-.268,1.07-.535,1.516-.8l.892,1.605Zm3.121-1.694L27.893,32.1c.535-.268.981-.624,1.516-.892L30.3,32.72C29.855,32.987,29.32,33.255,28.785,33.612Zm3.121-1.873-.892-1.516a14.525,14.525,0,0,0,1.516-.981l.981,1.516A15.513,15.513,0,0,1,31.907,31.739Zm3.032-1.962-.981-1.516c.535-.357.981-.624,1.427-.981l.981,1.427A5.441,5.441,0,0,1,34.939,29.777Zm2.943-1.962L36.9,26.3c.446-.357.981-.713,1.427-1.07l1.07,1.427A17.145,17.145,0,0,1,37.882,27.815Zm2.943-2.14-1.07-1.427c.446-.357.981-.713,1.427-1.07l1.07,1.427C41.806,24.961,41.271,25.318,40.825,25.674Zm2.854-2.23-1.159-1.427a15.5,15.5,0,0,0,1.338-1.159L45.017,22.2A8.563,8.563,0,0,1,43.679,23.445Zm2.765-2.319-1.159-1.338c.446-.357.892-.8,1.338-1.159l1.159,1.338C47.335,20.323,46.889,20.769,46.443,21.126Zm2.676-2.319L47.96,17.469A15.5,15.5,0,0,1,49.3,16.31l1.249,1.338A9,9,0,0,0,49.119,18.807Zm2.586-2.5-1.249-1.249a16.48,16.48,0,0,0,1.249-1.249l1.249,1.249A16.481,16.481,0,0,1,51.705,16.31Zm2.586-2.5-1.249-1.249a16.48,16.48,0,0,1,1.249-1.249l1.249,1.249Zm2.5-2.586L55.451,9.978A15.5,15.5,0,0,0,56.61,8.64L57.948,9.8C57.591,10.246,57.235,10.691,56.789,11.227ZM59.2,8.462,57.859,7.3c.446-.446.8-.981,1.159-1.338l1.338,1.159A15.5,15.5,0,0,1,59.2,8.462ZM61.515,5.7l-1.427-1.07A9.509,9.509,0,0,0,61.159,3.2l1.427,1.07S62.229,4.805,61.515,5.7Z" transform="translate(-6.4 -2.843)"/></g><path class="d" d="M8,408.751h5.529V396.8c-1.784.624-3.657,1.159-5.529,1.694Z" transform="translate(-7.108 -352.565)"/><path class="b" d="M7.313,399.691H0V387.83l.624-.178c1.784-.446,3.567-1.07,5.44-1.694l1.159-.357v14.091Zm-5.529-1.784H5.529V388.1c-1.338.446-2.5.8-3.746,1.159Z" transform="translate(0 -342.613)"/><path class="d" d="M120,368.234h5.529V351.2c-1.784.892-3.657,1.694-5.529,2.5Z" transform="translate(-106.622 -312.048)"/><path class="b" d="M119.224,357.042H112V340.989l.535-.268c1.873-.8,3.657-1.605,5.44-2.5l1.249-.624Zm-5.44-1.784h3.746v-14.8c-1.249.535-2.5,1.159-3.746,1.695Z" transform="translate(-99.514 -299.965)"/><path class="d" d="M231.2,312.08h5.529V288c-1.784,1.159-3.567,2.23-5.529,3.389V312.08Z" transform="translate(-205.426 -255.894)"/><path class="b" d="M230.513,300.177H223.2V278.059l.446-.268c1.873-1.07,3.746-2.23,5.529-3.3l1.338-.892Zm-5.529-1.784h3.746V276.811c-1.249.713-2.5,1.516-3.746,2.23v19.353Z" transform="translate(-198.318 -243.099)"/><path class="d" d="M342.489,238.865h5.44V205.6c-1.694,1.427-3.567,2.854-5.529,4.37v28.9Z" transform="translate(-304.229 -182.68)"/><path class="b" d="M341.713,224.119H334.4V193.886l.357-.268c1.873-1.427,3.746-2.854,5.529-4.37L341.713,188Zm-5.44-1.784h3.657v-30.5l-3.746,2.943v27.558Z" transform="translate(-297.121 -167.042)"/><path class="d" d="M454.4,101.975v39.508h5.529V96A66.062,66.062,0,0,1,454.4,101.975Z" transform="translate(-403.744 -85.298)"/><path class="b" d="M453.713,122.473H446.4V81.627l.268-.268a52.962,52.962,0,0,0,5.44-5.886l1.605-1.873Zm-5.529-1.784h3.746V78.505c-.892.981-2.14,2.319-3.746,3.924Z" transform="translate(-396.636 -65.395)"/></g></svg>