<svg xmlns="http://www.w3.org/2000/svg" width="58.039" height="58.039" viewBox="0 0 58.039 58.039"><defs><style>.a{fill:#ffa457;}.b{fill:#fff;}.c{fill:#fe5a61;}.d{fill:#193651;}</style></defs><path class="a" d="M52.8,64.226V8H21.059L8,20.877V64.226Z" transform="translate(-7.093 -7.093)"/><path class="b" d="M77.544,88.971V40H50.973L40,51.245V88.971Z" transform="translate(-35.466 -35.466)"/><path class="c" d="M50.882,51.245H40L50.882,40Z" transform="translate(-35.466 -35.466)"/><path class="b" d="M205.156,187.2h0A18,18,0,0,0,187.2,205.156h0a18,18,0,0,0,17.956,17.956h0a18,18,0,0,0,17.956-17.956h0A18,18,0,0,0,205.156,187.2Z" transform="translate(-165.979 -165.979)"/><path class="d" d="M51.963,25.392l2.176-2.267L55.41,24.3l1.36-1.36-3.9-3.809L51.51,20.5l1.27,1.179L50.6,23.941a28.371,28.371,0,0,0-3.9-2.086V0H13.6L0,13.422V58.039H46.613V56.5a18.774,18.774,0,0,0,5.351-31.105ZM1.814,56.226V14.238L14.328,1.814H44.8V21.221a19.162,19.162,0,0,0-5.623-.816c-4.534,0-11.336,3.627-11.336,3.627l-2.176-2.267,1.27-1.179-1.36-1.36-3.9,3.809,1.36,1.36,1.27-1.179,2.176,2.267a18.746,18.746,0,0,0,4.806,30.833H1.814Zm37.363,0h0A17.049,17.049,0,1,1,56.226,39.177,17.029,17.029,0,0,1,39.177,56.226Z"/><path class="c" d="M241.391,240.563V238.3c-.091-.272-.091-.544-.181-.907a10.056,10.056,0,0,0-.635-2,13.529,13.529,0,0,0-1.27-2.176,11.343,11.343,0,0,0-2.086-2.086,9.341,9.341,0,0,0-2.811-1.542,13.37,13.37,0,0,0-3.174-.725,14.745,14.745,0,0,0-3.537.272,13.388,13.388,0,0,0-3.174,1.179,11.517,11.517,0,0,0-2.63,1.9,21.05,21.05,0,0,0-1.9,2.267,16.949,16.949,0,0,0-1.088,2.267c-.091.363-.272.725-.363,1a3.991,3.991,0,0,0-.181.907,3.8,3.8,0,0,0-.181,1.27,1.1,1.1,0,0,1-.091.453v-.453a5.789,5.789,0,0,1,0-1.27c0-.272.091-.635.091-.907.091-.363.091-.725.181-1.088a20.181,20.181,0,0,1,.816-2.539,21.593,21.593,0,0,1,1.632-2.721,17.558,17.558,0,0,1,2.63-2.539,14.041,14.041,0,0,1,3.446-1.9,16.447,16.447,0,0,1,3.99-.816,13.136,13.136,0,0,1,4.262.363,14.581,14.581,0,0,1,3.9,1.542,16.98,16.98,0,0,1,3.174,2.358,20.544,20.544,0,0,1,2.267,2.811,26.256,26.256,0,0,1,1.36,2.811,6.679,6.679,0,0,1,.363,1.27c.091.453.181.816.272,1.179,0,.181.091.363.091.544v.363c0,.181.091.363.091.544a1.1,1.1,0,0,0,.091.453Z" transform="translate(-193.327 -200.48)"/><g transform="translate(7.618 9.25)"><path class="d" d="M325.937,327.7V316l-1.451,11.608a2.722,2.722,0,0,0-2.086,2.63,2.63,2.63,0,1,0,5.26,0A2.564,2.564,0,0,0,325.937,327.7Z" transform="translate(29.138 -426.238) rotate(45)"/><rect class="d" width="1.814" height="1.814" transform="translate(25.574)"/><rect class="d" width="1.814" height="1.814" transform="translate(20.223)"/><rect class="d" width="1.814" height="1.814" transform="translate(14.782)"/><rect class="c" width="9.25" height="1.814" transform="translate(0 20.132)"/><rect class="a" width="9.25" height="1.814" transform="translate(0 26.843)"/><rect class="c" width="9.25" height="1.814" transform="translate(0 33.554)"/></g></svg>