<svg xmlns="http://www.w3.org/2000/svg" width="49.1" height="49.1" viewBox="0 0 49.1 49.1"><defs><style>.a{fill:#fff;}.b{fill:#fea356;}.c{fill:#193651;}.d{fill:#f3f5f6;}.e{fill:#d3d7da;}.f{fill:#fc585f;}</style></defs><path class="a" d="M202.335,449.754H189.6L190.9,444h10.127Z" transform="translate(-171.418 -401.421)"/><path class="a" d="M0,0H47.262V41.135H0Z" transform="translate(0.875 0.963)"/><rect class="b" width="41.428" height="32.068" transform="translate(3.836 3.836)"/><circle class="c" cx="1.534" cy="1.534" r="1.534" transform="translate(23.016 37.285)"/><g transform="translate(6.981 6.598)"><path class="d" d="M91.98,95.345V72.789L88.067,68.8H72.8V95.345Z" transform="translate(-72.8 -68.8)"/><path class="e" d="M232,72.789V68.8l3.913,3.989Z" transform="translate(-216.733 -68.8)"/><rect class="c" width="11.201" height="1.534" transform="translate(3.989 20.024)"/><rect class="c" width="11.201" height="1.534" transform="translate(3.989 14.653)"/><rect class="c" width="11.201" height="1.534" transform="translate(3.989 9.36)"/><rect class="c" width="1.534" height="1.534" transform="translate(3.989 3.759)"/><rect class="c" width="1.534" height="1.534" transform="translate(7.135 3.759)"/><rect class="c" width="1.534" height="1.534" transform="translate(10.357 3.759)"/></g><path class="f" d="M263.209,168.148l-7.365,13.426a1.389,1.389,0,0,0,1.228,2.071h14.807a1.389,1.389,0,0,0,1.228-2.071l-7.365-13.426A1.445,1.445,0,0,0,263.209,168.148Z" transform="translate(-231.141 -151.347)"/><path class="c" d="M49.1,43.346V0H0V43.346H18.489l-.921,4.22H16.111V49.1H32.989V47.566H31.531l-.921-4.22ZM1.534,41.812V1.534H47.566V41.812ZM29.92,47.566H19.18l.921-4.22h8.976Z"/><path class="c" d="M267.054,173.777l-7.365-13.426a2.174,2.174,0,0,0-3.836,0l-7.365,13.426a2.149,2.149,0,0,0,0,2.148A2.1,2.1,0,0,0,250.406,177h14.807a2.281,2.281,0,0,0,1.918-1.074A2.362,2.362,0,0,0,267.054,173.777Zm-1.381,1.381a.714.714,0,0,1-.537.307H250.329a.585.585,0,0,1-.537-.307.572.572,0,0,1,0-.614l7.365-13.426a.568.568,0,0,1,.537-.307.515.515,0,0,1,.537.307l7.365,13.426A.482.482,0,0,1,265.673,175.158Z" transform="translate(-224.398 -143.933)"/><circle class="c" cx="0.767" cy="0.767" r="0.767" transform="translate(32.606 28.616)"/><path class="c" d="M335.643,207.2a1.268,1.268,0,0,0-1.3,1.381l.384,5.524a.924.924,0,0,0,1.841,0l.384-5.524A1.361,1.361,0,0,0,335.643,207.2Z" transform="translate(-302.27 -187.33)"/><rect class="c" width="1.534" height="1.534" transform="translate(17.492 38.053)"/><rect class="c" width="1.534" height="1.534" transform="translate(30.074 38.053)"/></svg>