<svg xmlns="http://www.w3.org/2000/svg" width="50.236" height="50.236" viewBox="0 0 50.236 50.236"><defs><style>.a{fill:#fff;}.b{fill:#fea356;}.c{fill:#193651;}.d{fill:#fc585f;}</style></defs><rect class="a" width="49" height="40" transform="translate(1 9.99)"/><rect class="b" width="48" height="40" transform="translate(1 9.99)"/><rect class="a" width="41" height="32" transform="translate(5 13.99)"/><rect class="a" width="49" height="9" transform="translate(1 0.99)"/><g transform="translate(4.945 4.16)"><circle class="c" cx="1.334" cy="1.334" r="1.334"/><circle class="c" cx="1.334" cy="1.334" r="1.334" transform="translate(5.024)"/><circle class="c" cx="1.334" cy="1.334" r="1.334" transform="translate(10.126)"/></g><path class="c" d="M0,0V50.236H50.236V0ZM48.666,48.666H1.57V10.989h47.1ZM1.57,9.419V1.57h47.1V9.419Z"/><g transform="translate(14.164 20.717)"><path class="d" d="M212.764,165.529,195.6,163.2l1.725,9.143h11.558a1.51,1.51,0,0,0,1.294-.863Z" transform="translate(-191.546 -160.612)"/><path class="c" d="M177.752,154.294h-10.7a3.992,3.992,0,0,1-3.968-3.278l-1.9-10.264H158V139.2h3.105a1.657,1.657,0,0,1,1.553,1.208l1.9,10.264a2.577,2.577,0,0,0,2.5,2.07h10.782v1.553Z" transform="translate(-158 -139.2)"/><circle class="c" cx="1.38" cy="1.38" r="1.38" transform="translate(15.094 14.318)"/><circle class="c" cx="1.38" cy="1.38" r="1.38" transform="translate(7.332 14.318)"/></g></svg>