<svg xmlns="http://www.w3.org/2000/svg" xmlns:xlink="http://www.w3.org/1999/xlink" width="64.576" height="32.536" viewBox="0 0 64.576 32.536"><defs><style>.a{fill:#fff;}.b{clip-path:url(#a);}.c{fill:#d3d7da;}.d{fill:#082f49;}.e{fill:#0069fa;}.f{fill:#1bce6b;}.g{fill:#fdbf5e;}.h{fill:#f16051;}</style><clipPath id="a"><rect class="a" width="64.576" height="32.536"/></clipPath></defs><g transform="translate(-1988 1631.759)"><path class="a" d="M14.927,0h31.6A14.927,14.927,0,0,1,61.456,14.927c0,8.244-8,15.167-16.242,15.167a25.524,25.524,0,0,0-13.667-4.155c-7.9,0-14.868,4.613-14.868,4.613C8.436,30.552,0,23.17,0,14.927A14.927,14.927,0,0,1,14.927,0Z" transform="translate(1989.094 -1630.692)"/><g class="b" transform="translate(1988 -1631.759)"><path class="c" d="M103.325,54.95H97V72.31h6.325Z" transform="translate(-83.946 -47.555)"/><path class="d" d="M332.166,32a4.306,4.306,0,1,0,3.045,1.261A4.306,4.306,0,0,0,332.166,32Zm0,6.459a2.153,2.153,0,1,1,1.523-.631A2.153,2.153,0,0,1,332.166,38.459Z" transform="translate(-283.739 -27.694)"/><path class="d" d="M332.166,144a4.307,4.307,0,1,0,3.045,1.261A4.306,4.306,0,0,0,332.166,144Zm0,6.459a2.153,2.153,0,1,1,1.523-.631A2.153,2.153,0,0,1,332.166,150.459Z" transform="translate(-283.739 -124.622)"/><path class="d" d="M276.166,88a4.306,4.306,0,1,0,3.045,1.261A4.306,4.306,0,0,0,276.166,88Zm0,6.459a2.153,2.153,0,1,1,1.523-.631A2.153,2.153,0,0,1,276.166,94.459Z" transform="translate(-235.275 -76.158)"/><path class="c" d="M71.36,96H54v6.459H71.36Z" transform="translate(-46.733 -83.081)"/><path class="d" d="M388.166,88a4.306,4.306,0,1,0,3.045,1.261A4.306,4.306,0,0,0,388.166,88Zm0,6.459a2.153,2.153,0,1,1,1.523-.631A2.153,2.153,0,0,1,388.166,94.459Z" transform="translate(-332.203 -76.158)"/><path class="d" d="M66.162,53.383H61.856V49.077A1.077,1.077,0,0,0,60.779,48H54.319a1.077,1.077,0,0,0-1.077,1.077v4.306H48.937a1.077,1.077,0,0,0-1.077,1.077v6.459A1.077,1.077,0,0,0,48.937,62h4.306V66.3a1.077,1.077,0,0,0,1.077,1.077h6.459A1.077,1.077,0,0,0,61.856,66.3V62h4.306a1.077,1.077,0,0,0,1.077-1.077V54.459a1.077,1.077,0,0,0-1.077-1.077Zm-1.077,6.459H60.779A1.077,1.077,0,0,0,59.7,60.919v4.306H55.4V60.919a1.077,1.077,0,0,0-1.077-1.077H50.013V55.536h4.306A1.077,1.077,0,0,0,55.4,54.459V50.153H59.7v4.306a1.077,1.077,0,0,0,1.077,1.077h4.306Z" transform="translate(-41.419 -41.541)"/><path class="d" d="M48.386.032a1.047,1.047,0,0,0-.135,0h-32.3a.832.832,0,0,0-.135,0A16.266,16.266,0,1,0,27.339,28.024h9.517A16.264,16.264,0,1,0,48.386.032ZM48.14,30.408a14.017,14.017,0,0,1-10.062-4.222,1.077,1.077,0,0,0-.766-.323H26.906a1.077,1.077,0,0,0-.767.323,14.111,14.111,0,1,1-10.171-24,.733.733,0,0,0,.108,0H48.14a.722.722,0,0,0,.108,0,14.111,14.111,0,1,1-.108,28.223Z" transform="translate(0.172 -0.026)"/><path class="e" d="M342.551,161.383a2.691,2.691,0,1,0-2.691-2.691A2.691,2.691,0,0,0,342.551,161.383Z" transform="translate(-294.124 -135.007)"/><path class="f" d="M342.551,49.383a2.691,2.691,0,1,0-2.691-2.691A2.691,2.691,0,0,0,342.551,49.383Z" transform="translate(-294.124 -38.079)"/><path class="g" d="M286.551,106.273a2.691,2.691,0,1,0-2.691-2.691A2.691,2.691,0,0,0,286.551,106.273Z" transform="translate(-245.66 -87.313)"/><path class="h" d="M398.551,106.263a2.691,2.691,0,1,0-2.691-2.691A2.691,2.691,0,0,0,398.551,106.263Z" transform="translate(-342.588 -87.304)"/></g></g></svg>