<svg xmlns="http://www.w3.org/2000/svg" width="63.156" height="63.107" viewBox="0 0 63.156 63.107"><defs><style>.a{fill:#fff;}.b{fill:#193651;}.c{fill:#fc585f;}.d{fill:#e1e6e9;}.e{fill:#fea356;}</style></defs><g transform="translate(0.001 -0.194)"><rect class="a" width="14.396" height="26.032" transform="translate(2.612 36.283)"/><path class="b" d="M28.182,304.367h-14.4a.932.932,0,0,1-.986-.986V277.349a.932.932,0,0,1,.986-.986h14.4a.932.932,0,0,1,.986.986v26.031A.988.988,0,0,1,28.182,304.367Zm-13.41-1.972H27.2V278.335H14.772Z" transform="translate(-11.174 -241.066)"/><rect class="a" width="14.396" height="26.032" transform="translate(46.195 36.283)"/><g transform="translate(0.048 35.297)"><path class="b" d="M371.066,304.367h-14.4a.932.932,0,0,1-.986-.986V277.349a.932.932,0,0,1,.986-.986h14.4a.932.932,0,0,1,.986.986v26.031A.988.988,0,0,1,371.066,304.367Zm-13.41-1.972H370.08V278.335H357.656Z" transform="translate(-310.523 -276.363)"/><path class="b" d="M62.508,483.135H1.373a.986.986,0,0,1,0-1.972H62.508a.986.986,0,0,1,0,1.972Z" transform="translate(-0.387 -455.131)"/></g><path class="c" d="M62.279,177.067H15.146l-7,13.607H69.28Z" transform="translate(-7.111 -154.391)"/><path class="b" d="M62.169,184.888H1.034a1.177,1.177,0,0,1-.887-.493.9.9,0,0,1,0-.986l7-13.607a1.036,1.036,0,0,1,.887-.493H55.069a1.036,1.036,0,0,1,.887.493l7,13.607a1.151,1.151,0,0,1,0,.986A.878.878,0,0,1,62.169,184.888ZM2.612,182.916H60.493L54.478,171.28H8.627Z" transform="translate(0 -147.618)"/><path class="d" d="M138.128,128.528l-18.833-14.3-18.833,14.3Z" transform="translate(-87.693 -99.541)"/><path class="b" d="M131.779,122.574H94.112a.947.947,0,0,1-.887-.69,1.053,1.053,0,0,1,.3-1.085l18.833-14.3a.9.9,0,0,1,1.183,0l18.833,14.3a.934.934,0,0,1,.3,1.085A.947.947,0,0,1,131.779,122.574ZM97.07,120.6H128.92l-15.974-12.03Z" transform="translate(-81.344 -92.602)"/><path class="a" d="M192.776,158.441l7.1-5.423,7.1,5.423Z" transform="translate(-168.274 -133.399)"/><rect class="e" width="29.187" height="29.088" transform="translate(17.008 33.226)"/><path class="b" d="M156.233,283.375H127.046a.932.932,0,0,1-.986-.986V253.3a.932.932,0,0,1,.986-.986h29.187a.932.932,0,0,1,.986.986v29.088A.932.932,0,0,1,156.233,283.375Zm-28.2-1.972h27.215V254.287H128.032Z" transform="translate(-110.038 -220.075)"/><rect class="a" width="21.299" height="24.158" transform="translate(20.982 37.099)"/><rect class="e" width="32.934" height="4.24" transform="translate(15.135 28.986)"/><g transform="translate(14.149 28)"><path class="b" d="M145.241,225.168H112.307a.932.932,0,0,1-.986-.986v-4.24a.932.932,0,0,1,.986-.986h32.934a.932.932,0,0,1,.986.986v4.24A.988.988,0,0,1,145.241,225.168ZM113.293,223.2h30.962v-2.268H113.293Z" transform="translate(-111.321 -218.956)"/><rect class="b" width="1.972" height="1.972" transform="translate(11.142 11.833)"/><rect class="b" width="1.972" height="1.972" transform="translate(16.467 11.833)"/><rect class="b" width="1.972" height="1.972" transform="translate(21.792 11.833)"/></g><path class="d" d="M218.547,387.717v-8.48a5.127,5.127,0,1,0-10.255,0v8.48Z" transform="translate(-181.817 -326.389)"/><g transform="translate(5.373 44.862)"><rect class="c" width="3.648" height="3.648" transform="translate(48.809 5.127)"/><rect class="c" width="3.648" height="3.648" transform="translate(43.583 5.127)"/><rect class="c" width="3.648" height="3.648" transform="translate(48.809)"/><rect class="c" width="3.648" height="3.648" transform="translate(43.583)"/><rect class="c" width="3.648" height="3.648" transform="translate(5.226 5.127)"/><rect class="c" width="3.648" height="3.648" transform="translate(0 5.127)"/><rect class="c" width="3.648" height="3.648" transform="translate(5.226)"/><rect class="c" width="3.648" height="3.648"/></g><path class="b" d="M241.858,15.675a.932.932,0,0,1-.986-.986V1.18a.986.986,0,1,1,1.972,0V14.689A.988.988,0,0,1,241.858,15.675Z" transform="translate(-210.256 0)"/><path class="e" d="M260.068,15.249H248.63v-7.3h11.438L257.11,11.6Z" transform="translate(-217.028 -6.772)"/><path class="b" d="M253.3,9.463H241.858a.932.932,0,0,1-.986-.986V1.18a.932.932,0,0,1,.986-.986H253.3a.948.948,0,0,1,.887.592,1.079,1.079,0,0,1-.1,1.085L251.62,4.828l2.366,2.86a1.119,1.119,0,0,1,.3.789A.988.988,0,0,1,253.3,9.463ZM242.844,7.491h8.381l-1.676-1.972a1.037,1.037,0,0,1,0-1.282l1.676-1.972h-8.381Z" transform="translate(-210.256 0)"/></g></svg>