<svg xmlns="http://www.w3.org/2000/svg" width="60.213" height="60.213" viewBox="0 0 60.213 60.213"><defs><style>.a{fill:#fff;}.b{fill:#fc585f;}.c{fill:#fea356;}.d,.e{fill:#193651;}.e{font-size:8px;font-family:Krungthep;}</style></defs><rect class="a" width="58.331" height="24.744" transform="translate(0.941 0.941)"/><rect class="b" width="50.805" height="17.217" transform="translate(4.704 4.704)"/><path class="a" d="M27,181.6H13.927A5.9,5.9,0,0,0,8,187.527v15.806h4.516v16.182h15.9V203.239h4.516V187.527A5.9,5.9,0,0,0,27,181.6Z" transform="translate(-7.059 -160.243)"/><path class="c" d="M44.516,243.989V227.712H40V215.764a2.129,2.129,0,0,1,2.164-2.164H55.241a2.129,2.129,0,0,1,2.164,2.164v12.043H52.889v16.182Z" transform="translate(-35.296 -188.48)"/><circle class="a" cx="4.798" cy="4.798" r="4.798" transform="translate(8.562 8.656)"/><path class="d" d="M70.539,77.078a5.739,5.739,0,1,1,5.739-5.739A5.7,5.7,0,0,1,70.539,77.078Zm0-9.691A3.857,3.857,0,1,0,74.4,71.245,3.815,3.815,0,0,0,70.539,67.388Z" transform="translate(-57.179 -57.885)"/><path class="d" d="M0,0V26.625H0V44.031H4.516V60.213H22.3V43.937h4.516V26.625h33.4V0ZM24.932,42.055H20.416V58.331H14.395V43.654H12.513V58.331H6.4V42.055H1.882V27.284A5.019,5.019,0,0,1,6.868,22.3H19.946a5.019,5.019,0,0,1,4.986,4.986Zm33.4-17.311H26.249a6.857,6.857,0,0,0-6.3-4.328H6.868A6.973,6.973,0,0,0,1.882,22.58V1.882h56.45Z"/><text class="e" transform="translate(36 16.296)"><tspan x="0" y="0">+18</tspan></text></svg>