<svg xmlns="http://www.w3.org/2000/svg" width="52.281" height="52.362" viewBox="0 0 52.281 52.362"><defs><style>.a{fill:#fff;}.b{fill:#fea356;}.c{fill:#193651;}.d{fill:#fc585f;}</style></defs><g transform="translate(-0.4)"><g transform="translate(1.216 9.869)"><path class="a" d="M53.177,437.348H14.191A5.813,5.813,0,0,1,8.4,431.557V429.6H58.968v1.957A5.813,5.813,0,0,1,53.177,437.348Z" transform="translate(-8.4 -395.671)"/><rect class="a" width="45.103" height="33.929" transform="translate(2.692)"/></g><rect class="b" width="37.11" height="29.241" transform="translate(7.985 13.865)"/><g transform="translate(18.425 46.816)"><rect class="c" width="1.631" height="1.631"/><rect class="c" width="1.631" height="1.631" transform="translate(7.259)"/><rect class="c" width="1.631" height="1.631" transform="translate(14.518)"/></g><path class="a" d="M145.418,13.923c-9.543-1.55-14.11-4.323-14.11-4.323s-4.567,2.773-14.11,4.4c0,0-2.121,23.163,14.11,27.649C147.539,37.168,145.418,13.923,145.418,13.923Z" transform="translate(-104.809 -8.621)"/><path class="c" d="M49.908,42.983V9.053h-8.4A28.385,28.385,0,0,0,41.425,5.3l-.082-.652-.652-.082C31.393,3.018,26.907.326,26.826.326L26.5,0l-.408.245c-.082,0-4.567,2.692-13.865,4.241l-.652.082-.082.652a30.222,30.222,0,0,0-.082,3.752H3.092V42.9H.4v2.855a6.631,6.631,0,0,0,6.606,6.606H46.074a6.631,6.631,0,0,0,6.606-6.606V42.983ZM13.124,6.036C20.872,4.649,25.195,2.61,26.5,1.876c1.3.734,5.628,2.773,13.376,4.16.163,3.67.408,22.185-13.376,26.1C12.8,28.22,12.96,9.706,13.124,6.036Zm-8.4,4.649h6.851c.489,7.34,3.018,19.9,14.681,23.082l.245.082.245-.082c11.663-3.181,14.192-15.741,14.681-23.082h6.851v32.3H4.723ZM50.968,45.756a5,5,0,0,1-4.975,4.975H7.006a4.943,4.943,0,0,1-4.975-4.975V44.614H50.968Z" transform="translate(0)"/><path class="d" d="M160.129,70.558C150.342,67.132,149.2,54.409,149.2,49.026A52.792,52.792,0,0,0,160.129,45.6a48.129,48.129,0,0,0,10.929,3.426C171.058,54.409,169.916,67.132,160.129,70.558Z" transform="translate(-133.63 -40.951)"/><path class="a" d="M199.531,117.985l-2.365-4.4-2.365,1.387,3.344,5.22.9,1.387.9-1.142L207.36,110.4Z" transform="translate(-174.581 -99.145)"/><g transform="translate(14.901 35.51)"><g transform="translate(0 0)"><rect class="a" width="22.93" height="4.576" transform="translate(0 0)"/><g transform="translate(1.632 1.38)"><rect class="c" width="1.851" height="1.851" transform="translate(0 0)"/><rect class="c" width="1.851" height="1.851" transform="translate(3.703 0)"/><rect class="c" width="1.851" height="1.851" transform="translate(7.406 0)"/><rect class="c" width="1.851" height="1.851" transform="translate(11.109 0)"/><rect class="c" width="1.851" height="1.851" transform="translate(14.812 0)"/></g></g></g></g></svg>