<svg xmlns="http://www.w3.org/2000/svg" width="67.708" height="67.709" viewBox="0 0 67.708 67.709"><defs><style>.a{fill:#fea356;}.b{fill:#fff;}.c{fill:#2ea2db;}.d{fill:#4fbf9f;}.e{fill:#193651;}</style></defs><path class="a" d="M36.776,394.4H35.93a11.23,11.23,0,0,1-8.781,4.443,11.23,11.23,0,0,1-8.781-4.443H17.2A9.211,9.211,0,0,0,8,403.6v5.29H46.086V403.6A9.3,9.3,0,0,0,36.776,394.4Z" transform="translate(-6.942 -342.243)"/><g transform="translate(10.791 27.535)"><path class="b" d="M108.645,252.8c0,5.29-3.491,9.521-7.723,9.521S93.2,258.091,93.2,252.8c0-1.9-.529-5.713.212-7.194,1.375-2.645,4.761-2.433,7.406-2.433,2.962,0,6.877-.106,8.146,2.856C109.6,247.405,108.645,251.108,108.645,252.8Z" transform="translate(-91.506 -238.547)"/><path class="b" d="M100.22,213.583a3.255,3.255,0,0,0-2.327-2.751,1.7,1.7,0,0,0-.952-2.222,42.15,42.15,0,0,0-9.522-.212,5.706,5.706,0,0,0-5.713,4.972,4.093,4.093,0,0,1-.106.952h0V219.4l1.693,2.327s.635-8.675,9.733-8.887c0,0,1.058,4.655,5.5,5.078l.423.212-.106,3.491c0-1.27,1.481-2.645,1.481-2.645C100.326,217.709,100.22,213.583,100.22,213.583Z" transform="translate(-81.6 -208.216)"/></g><rect class="c" width="24.65" height="24.65" transform="translate(42 32.056)"/><path class="b" d="M383.829,271.762h1.481V268.8h-1.481a5.943,5.943,0,0,0-6.136,5.819v1.375H376v2.962h1.693v7.511h3.174v-7.511h3.28v-2.962h-3.28v-1.375A2.87,2.87,0,0,1,383.829,271.762Z" transform="translate(-326.277 -233.253)"/><path class="d" d="M277.959,28.313a11.894,11.894,0,1,0-19.149-3.28l-2.01,7.511,7.511-2.01A12.09,12.09,0,0,0,277.959,28.313Z" transform="translate(-222.84 -6.942)"/><path class="e" d="M309.6,234.4v26.766h26.766V234.4Zm24.65,24.65H311.716V236.516H334.25Z" transform="translate(-268.658 -203.402)"/><path class="e" d="M29.834,386.4H28.459l-.317.423a10.24,10.24,0,0,1-7.935,4.126,10.24,10.24,0,0,1-7.935-4.126l-.317-.423H10.262A10.272,10.272,0,0,0,0,396.662v6.348H40.2v-6.348A10.3,10.3,0,0,0,29.834,386.4Zm8.252,14.494H2.116v-4.232a8.15,8.15,0,0,1,8.146-8.146H10.9a12.258,12.258,0,0,0,9.31,4.443,12.258,12.258,0,0,0,9.31-4.443h.423a8.15,8.15,0,0,1,8.146,8.146Z" transform="translate(0 -335.301)"/><path class="e" d="M74.6,215.023v.317c0,5.819,3.914,10.579,8.781,10.579s8.781-4.761,8.781-10.579a2.629,2.629,0,0,1,.106-.846h0a4.277,4.277,0,0,1,1.058-1.8l.317-.317v-.423c.106-1.375,0-5.5,0-5.607a4,4,0,0,0-2.327-3.385,2.621,2.621,0,0,0-1.8-2.539H89.41A32.949,32.949,0,0,0,84.226,200c-2.539,0-4.549.212-4.655.212-2.01,0-5.5.846-6.665,5.607v.106c-.106.212-.106.423-.106,1.375v5.4Zm15.446-.423v.635c0,4.655-2.962,8.464-6.665,8.464s-6.665-3.809-6.665-8.464c0-.106-.106-.635-.106-.635,0-.317.635-7.194,7.829-7.829a7.52,7.52,0,0,0,5.607,4.972v2.645c0,.106,0,.106,0,.212Zm-15.129-7.406v-.952c.635-2.539,2.116-3.914,4.761-3.914,0,0,2.116-.212,4.549-.212a27.426,27.426,0,0,1,4.655.317c.106,0,.423.212.212.952l-.212.952.952.317c.106,0,1.587.423,1.587,1.693,0,.741.106,2.327.106,3.6l-.423-.212h-.212c-3.6-.423-4.549-4.126-4.549-4.338l-.212-.846h-.846a10.232,10.232,0,0,0-10.156,7.406l-.106-.212v-3.28A5.151,5.151,0,0,1,74.916,207.194Z" transform="translate(-63.173 -173.551)"/><path class="e" d="M255.287,24.756a13.247,13.247,0,0,0,5.29,1.164,12.72,12.72,0,0,0,9.1-3.809,12.9,12.9,0,0,0,0-18.3,12.772,12.772,0,0,0-18.2,0A12.8,12.8,0,0,0,248.833,18.2L246.4,27.083Zm-4.443-7.088a10.764,10.764,0,1,1,9.733,6.136,12.457,12.457,0,0,1-4.761-1.058l-.317-.212-6.136,1.693,1.693-6.136Z" transform="translate(-213.815)"/><path class="b" d="M318.351,60.417l-.317.317a.9.9,0,0,1-1.375,0l-3.385-3.385a.9.9,0,0,1,0-1.375l.317-.317a1.285,1.285,0,0,0,0-1.693l-.846-.846a1.285,1.285,0,0,0-1.693,0l-1.058,1.058h0a2.556,2.556,0,0,0,0,3.7l6.03,6.03a2.556,2.556,0,0,0,3.7,0h0l1.058-1.058a1.285,1.285,0,0,0,0-1.693l-.846-.846A1.065,1.065,0,0,0,318.351,60.417Z" transform="translate(-268.31 -45.818)"/><g transform="translate(12.801 60.303)"><rect class="e" width="2.116" height="2.116" transform="translate(0 0)"/><rect class="e" width="2" height="2" transform="translate(6.199 0.337)"/><rect class="e" width="2.116" height="2.116" transform="translate(12.484 0)"/></g></svg>