<svg xmlns="http://www.w3.org/2000/svg" width="58.002" height="58.04" viewBox="0 0 58.002 58.04"><defs><style>.a{fill:#193651;}.b{fill:#fff;}.c{fill:#183651;}.d{fill:#fea356;}.e{fill:#fc585f;}</style></defs><g transform="translate(-0.167)"><path class="a" d="M40.392,70.1c-.635,0-1.27-.091-1.9-.091l.181-1.814a10.975,10.975,0,0,0,1.723.091Zm1.814,0-.091-1.814c.544,0,1.179-.091,1.723-.091l.181,1.814A12.773,12.773,0,0,0,42.205,70.1Zm-5.532-.363a10.7,10.7,0,0,1-1.814-.363l.363-1.814c.544.091,1.179.272,1.723.363Zm9.25-.091-.272-1.814a11.662,11.662,0,0,0,1.723-.363l.453,1.723A7.271,7.271,0,0,1,45.924,69.645Zm-12.968-.725c-.635-.181-1.179-.363-1.814-.544l.635-1.723,1.632.544Zm16.6-.181-.544-1.723c.272-.091.453-.181.725-.272a3.79,3.79,0,0,0,.907-.363l.635,1.723c-.363.091-.635.272-1,.363A1.03,1.03,0,0,1,49.551,68.738ZM29.419,67.65c-.544-.272-1.179-.544-1.723-.816l.816-1.632a12.847,12.847,0,0,0,1.632.725Zm23.669-.181-.725-1.632c.544-.272,1.088-.544,1.542-.816l.907,1.632C54.176,66.924,53.632,67.2,53.088,67.468ZM26.154,65.926a8.985,8.985,0,0,1-1.542-1l1-1.542a12.7,12.7,0,0,0,1.451.907Zm-3.083-2.086c-.453-.363-1-.816-1.451-1.179L22.8,61.3l1.36,1.088Zm-2.811-2.449a17.411,17.411,0,0,1-1.27-1.36l1.36-1.179a16.214,16.214,0,0,0,1.179,1.27ZM17.72,58.581c-.363-.453-.725-1-1.088-1.542l1.542-1c.363.453.635,1,1,1.451ZM15.634,55.5c-.272-.544-.635-1.088-.907-1.632l1.632-.816c.272.544.544,1,.816,1.542Zm50.785-.816-1.632-.816c.272-.544.544-1.088.816-1.542l1.632.725ZM14,52.142a13.222,13.222,0,0,1-.635-1.723l1.723-.544a12.111,12.111,0,0,0,.635,1.632Zm53.959-.816-1.723-.635.544-1.632L68.5,49.6C68.323,50.147,68.142,50.691,67.961,51.326ZM69.049,47.7l-1.723-.453a11.662,11.662,0,0,0,.363-1.723l1.814.272C69.321,46.519,69.14,47.154,69.049,47.7Zm.635-3.627-1.814-.181c.091-.544.091-1.179.181-1.723l1.814.091C69.774,42.8,69.774,43.436,69.684,44.071Zm-1.632-3.718a10.976,10.976,0,0,0-.091-1.723l1.814-.181a13.394,13.394,0,0,1,.091,1.9Zm-.272-3.537a11.663,11.663,0,0,0-.363-1.723l1.814-.363c.091.635.272,1.27.363,1.814Zm-.816-3.355-.544-1.632,1.723-.635a10.6,10.6,0,0,1,.544,1.814Zm-1.179-3.355c-.272-.544-.453-1.088-.725-1.542l1.632-.816c.272.544.544,1.088.816,1.723Zm-1.632-3.083a8.218,8.218,0,0,0-1-1.451l1.451-1a14.771,14.771,0,0,1,1,1.542Zm-2-2.9a15.763,15.763,0,0,0-1.179-1.36l1.36-1.179a9.157,9.157,0,0,1,1.179,1.451ZM59.8,21.58a15.057,15.057,0,0,0-1.27-1.179l1.179-1.36a17.41,17.41,0,0,1,1.36,1.27Zm-2.63-2.267a8.218,8.218,0,0,0-1.451-1l1-1.542c.453.363,1,.725,1.542,1.088Zm-2.993-1.9a5.041,5.041,0,0,0-1.542-.816l.816-1.632a14.673,14.673,0,0,1,1.632.907ZM51,15.867c-.453-.181-1-.363-1.451-.544L50.1,13.6c.544.181,1.088.363,1.542.544Z" transform="translate(-11.704 -12.058)"/><path class="b" d="M43.592,13.989A21.1,21.1,0,1,0,40.872,46l12.515,15.78a5.867,5.867,0,1,0,8.253-8.253L45.86,41.1A21.1,21.1,0,0,0,43.592,13.989Z" transform="translate(-6.561 -6.916)"/><path class="a" d="M55.622,45.978,40.568,34.008a21.867,21.867,0,0,0-2.9-27.569A22.259,22.259,0,0,0,22.068,0,22.083,22.083,0,0,0,6.56,37.635a21.882,21.882,0,0,0,27.569,2.811L46.1,55.5a6.767,6.767,0,0,0,5.26,2.449h0a6.826,6.826,0,0,0,6.8-7.164A6.531,6.531,0,0,0,55.622,45.978ZM54.9,54.684a5.007,5.007,0,0,1-3.537,1.451,4.813,4.813,0,0,1-3.809-1.814L34.583,37.907l-.725.544A20.309,20.309,0,0,1,22.068,42.26,20.178,20.178,0,0,1,7.83,7.8,20.147,20.147,0,0,1,38.573,33.645l-.453.725L54.534,47.339a5.041,5.041,0,0,1,1.814,3.627A4.849,4.849,0,0,1,54.9,54.684Z" transform="translate(0)"/><circle class="b" cx="1.814" cy="1.814" r="1.814" transform="translate(19.438 19.86)"/><g transform="translate(-62.511 5.737)"><path class="b" d="M104.095,31.057l1.946-4.282-2.984-1.687a9.96,9.96,0,0,0,.13-3.374l3.114-1.557-1.557-4.412-3.374.778a10.546,10.546,0,0,0-2.335-2.465l1.038-3.244L95.79,8.869,94.1,11.724a9.961,9.961,0,0,0-3.374-.13L89.173,8.48l-4.412,1.557.778,3.374a10.546,10.546,0,0,0-2.465,2.335L79.7,14.708,77.755,18.99l2.984,1.817a9.961,9.961,0,0,0-.13,3.374L77.5,25.737l1.557,4.412,3.374-.778a10.547,10.547,0,0,0,2.335,2.465L83.723,35.08,88,37.026l1.817-2.984a9.961,9.961,0,0,0,3.374.13l1.557,3.114,4.412-1.557-.779-3.374a10.546,10.546,0,0,0,2.465-2.335Z" transform="translate(-7.082 -7.081)"/><path class="c" d="M87.671,31.5a1.362,1.362,0,0,1-1.168-.649l-1.168-2.335a9.816,9.816,0,0,1-1.946-.13l-1.427,2.206a1.419,1.419,0,0,1-1.687.519l-4.282-1.946a1.145,1.145,0,0,1-.649-1.557l.778-2.465a6.8,6.8,0,0,1-1.3-1.427l-2.6.649a1.48,1.48,0,0,1-1.557-.778l-1.557-4.412a1.145,1.145,0,0,1,.649-1.557L72.1,16.451a9.816,9.816,0,0,1,.13-1.946l-2.206-1.557a1.419,1.419,0,0,1-.519-1.687l1.946-4.282a1.145,1.145,0,0,1,1.557-.649l2.465.778a6.8,6.8,0,0,1,1.427-1.3l-.649-2.6a1.48,1.48,0,0,1,.779-1.557L81.442.1A1.145,1.145,0,0,1,83,.751l1.3,2.335a9.816,9.816,0,0,1,1.946.13L87.671,1.01A1.419,1.419,0,0,1,89.357.491l4.282,1.946a1.145,1.145,0,0,1,.649,1.557L93.38,6.46a6.8,6.8,0,0,1,1.3,1.427l2.6-.649a1.48,1.48,0,0,1,1.557.778l1.557,4.412a1.145,1.145,0,0,1-.649,1.557L97.4,15.153a9.816,9.816,0,0,1-.13,1.946l2.206,1.427A1.419,1.419,0,0,1,100,20.214L98.051,24.5a1.145,1.145,0,0,1-1.557.649l-2.465-.778a6.8,6.8,0,0,1-1.427,1.3l.649,2.6a1.48,1.48,0,0,1-.779,1.557L88.06,31.372A.477.477,0,0,1,87.671,31.5Zm-1.687-5.709a1.362,1.362,0,0,1,1.168.649l1.038,2.076,2.206-.779-.519-2.206a1.544,1.544,0,0,1,.519-1.427A11.058,11.058,0,0,0,92.6,22.03a1.229,1.229,0,0,1,1.427-.389l2.206.649,1.038-2.076-1.946-1.168a1.318,1.318,0,0,1-.649-1.3,11.524,11.524,0,0,0,.13-2.984,1.6,1.6,0,0,1,.649-1.3l2.076-1.038-.779-2.206-2.206.519a1.544,1.544,0,0,1-1.427-.519,11.058,11.058,0,0,0-2.076-2.206,1.229,1.229,0,0,1-.389-1.427L91.3,4.383,89.228,3.345,88.06,5.291a1.318,1.318,0,0,1-1.3.649,11.524,11.524,0,0,0-2.984-.13,1.6,1.6,0,0,1-1.3-.649L81.443,3.085l-2.335.778.519,2.206A1.544,1.544,0,0,1,79.107,7.5,11.058,11.058,0,0,0,76.9,9.573a1.229,1.229,0,0,1-1.427.389l-2.206-.648L72.23,11.39l1.946,1.168a1.318,1.318,0,0,1,.649,1.3,11.523,11.523,0,0,0-.13,2.984,1.6,1.6,0,0,1-.649,1.3L71.97,19.175l.779,2.206,2.206-.519a1.544,1.544,0,0,1,1.427.519,11.058,11.058,0,0,0,2.076,2.206,1.229,1.229,0,0,1,.389,1.427L78.2,27.22l2.076,1.038,1.168-1.946a1.318,1.318,0,0,1,1.3-.649,11.524,11.524,0,0,0,2.984.13Z" transform="translate(0)"/><circle class="d" cx="8.175" cy="8.175" r="8.175" transform="translate(76.641 7.627)"/><circle class="b" cx="3.244" cy="3.244" r="3.244" transform="translate(81.572 12.558)"/><path class="e" d="M141.812,77.428a5.208,5.208,0,0,1-1.946-.389,4.606,4.606,0,0,1-2.336-2.6,4.684,4.684,0,0,1,.13-3.5,4.623,4.623,0,0,1,4.152-2.6,5.208,5.208,0,0,1,1.946.389,4.561,4.561,0,0,1,2.206,5.969A4.664,4.664,0,0,1,141.812,77.428Zm0-6.488A1.957,1.957,0,0,0,140,72.108a1.4,1.4,0,0,0,0,1.427c.259.389.519.908,1.038,1.038a1.944,1.944,0,1,0,1.687-3.5C142.331,71.07,142.071,70.94,141.812,70.94Z" transform="translate(-56.996 -57.085)"/></g></g></svg>