<svg xmlns="http://www.w3.org/2000/svg" width="55.209" height="55.209" viewBox="0 0 55.209 55.209"><defs><style>.a{fill:#fff;}.b{fill:#fea356;}.c{fill:#193651;}.d{fill:#fc585f;}</style></defs><g transform="translate(0.534 6.528)"><path class="a" d="M204.547,450.47H190.4l1.38-6.47h11.387Z" transform="translate(-170.403 -402.651)"/><rect class="a" width="54" height="41" transform="translate(-0.325 0.472)"/></g><rect class="b" width="46.583" height="30.02" transform="translate(4.313 10.352)"/><circle class="c" cx="1.467" cy="1.467" r="1.467" transform="translate(26.138 42.183)"/><g transform="translate(9.23 0.863)"><rect class="a" width="36.663" height="29.244" transform="translate(0 7.419)"/><rect class="a" width="36.663" height="7.419"/></g><path class="c" d="M55.209,48.74V6.039H46.842V0H8.368V6.039H0v42.7H20.876l-1.035,4.745H18.116v1.725H37.094V53.484H35.369L34.333,48.74ZM21.566,53.484,22.6,48.74H32.608l1.035,4.745ZM10.093,9.144H45.03V36.663H10.093S10.093,9.144,10.093,9.144Zm0-7.419H45.03V7.419H10.093S10.093,1.725,10.093,1.725ZM1.725,7.764H8.368V38.388H46.756V7.764h6.729v39.25H1.725Z"/><g transform="translate(15.183 25.534)"><rect class="d" width="7.764" height="6.125" transform="translate(17.08)"/><rect class="d" width="13.112" height="6.125"/></g><g transform="translate(15.183 3.623)"><rect class="c" width="1.725" height="1.725" transform="translate(4.486 39.164)"/><rect class="c" width="1.725" height="1.725" transform="translate(18.633 39.164)"/><rect class="c" width="16.908" height="1.725" transform="translate(0 9.662)"/><rect class="c" width="5.262" height="1.725" transform="translate(19.582 9.662)"/><rect class="c" width="18.288" height="1.725" transform="translate(6.556 15.786)"/><rect class="c" width="3.796" height="1.725" transform="translate(0 15.786)"/><rect class="c" width="1.725" height="1.812" transform="translate(13.63)"/><rect class="c" width="1.725" height="1.812" transform="translate(18.978)"/><rect class="c" width="1.725" height="1.812" transform="translate(24.413)"/></g></svg>