<svg xmlns="http://www.w3.org/2000/svg" width="55.256" height="55.256" viewBox="0 0 55.256 55.256"><defs><style>.a{fill:#fc585f;}.b{fill:#fff;}.c{fill:none;stroke:#193651;stroke-miterlimit:10;stroke-width:2px;}.d{fill:#fea356;}.e{fill:#193651;}</style></defs><path class="a" d="M129.682,8h0A15.255,15.255,0,0,0,114.4,23.282h0a15.255,15.255,0,0,0,15.282,15.282h0a15.255,15.255,0,0,0,15.282-15.282h0A15.255,15.255,0,0,0,129.682,8Z" transform="translate(-102.054 -7.137)"/><path class="b" d="M163.938,69.475a11.138,11.138,0,1,1,11.138-11.138A11.165,11.165,0,0,1,163.938,69.475Z" transform="translate(-136.309 -42.106)"/><line class="c" y2="5.785" transform="translate(27.628 25.729)"/><g transform="translate(39.715 24.347)"><circle class="b" cx="2.849" cy="2.849" r="2.849" transform="translate(4.49)"/><path class="b" d="M379.224,296h-7.77A3.464,3.464,0,0,0,368,299.454v9.324h2.59v9.67H380v-9.583h2.676V299.54A3.483,3.483,0,0,0,379.224,296Z" transform="translate(-368 -288.402)"/></g><path class="d" d="M396.276,338.522v-9.67H393.6v-6.562a.743.743,0,0,1,.691-.691h7.77a.743.743,0,0,1,.691.691v6.562h-2.676v9.584h-3.8Z" transform="translate(-351.122 -286.892)"/><g transform="translate(0.863 24.347)"><circle class="b" cx="2.849" cy="2.849" r="2.849" transform="translate(4.49)"/><path class="b" d="M19.224,296h-7.77A3.464,3.464,0,0,0,8,299.454v9.324h2.676v9.67h9.411v-9.583h2.676V299.54A3.5,3.5,0,0,0,19.224,296Z" transform="translate(-8 -288.402)"/></g><path class="d" d="M36.276,338.522v-9.67H33.6v-6.562a.743.743,0,0,1,.691-.691h7.77a.743.743,0,0,1,.691.691v6.562H40.075v9.584h-3.8Z" transform="translate(-29.974 -286.892)"/><circle class="b" cx="3.54" cy="3.54" r="3.54" transform="translate(24.088 13.382)"/><path class="e" d="M219.6,124.806a4.4,4.4,0,1,1,4.4-4.4A4.422,4.422,0,0,1,219.6,124.806Zm0-6.993a2.676,2.676,0,1,0,2.676,2.676A2.635,2.635,0,0,0,219.6,117.813Z" transform="translate(-191.975 -103.481)"/><path class="b" d="M185.814,211.2h-9.5A4.275,4.275,0,0,0,172,215.517V227h3.281v11.828H186.85V227h3.281V215.517A4.275,4.275,0,0,0,185.814,211.2Z" transform="translate(-153.437 -188.407)"/><path class="e" d="M138.69,16.145a16.145,16.145,0,0,0-32.29,0,15.954,15.954,0,0,0,6.216,12.692v10.62H115.9V51.285h13.3V39.456h3.281V28.923A16.251,16.251,0,0,0,138.69,16.145ZM130.747,37.73h-3.281V49.558h-9.843V37.73h-3.281V27.11a3.464,3.464,0,0,1,3.454-3.454h9.584a3.464,3.464,0,0,1,3.454,3.454V37.73Zm-3.454-15.8h-9.5a5.235,5.235,0,0,0-5.18,4.662,14.344,14.344,0,0,1-4.49-9.584h4.835V15.282h-4.835A14.427,14.427,0,0,1,121.682,1.813V6.648h1.727V1.813a14.508,14.508,0,0,1,13.555,13.555h-4.835v1.727h4.835a14.53,14.53,0,0,1-4.49,9.584A5.179,5.179,0,0,0,127.294,21.93Z" transform="translate(-94.917)"/><path class="e" d="M405.313,225.825a3.713,3.713,0,1,0-3.713-3.713A3.74,3.74,0,0,0,405.313,225.825Zm0-5.785a1.986,1.986,0,1,1-1.986,1.986A2.008,2.008,0,0,1,405.313,220.04Z" transform="translate(-358.258 -194.83)"/><path class="e" d="M372.087,288h-7.77A4.329,4.329,0,0,0,360,292.317V302.5h2.59v9.67h11.138v-9.584H376.4V292.4A4.4,4.4,0,0,0,372.087,288Zm2.59,12.864H372v9.584h-7.684v-9.584H361.64V292.4a2.6,2.6,0,0,1,2.59-2.59H372a2.6,2.6,0,0,1,2.59,2.59v8.461Z" transform="translate(-321.148 -256.918)"/><path class="e" d="M45.313,225.825a3.713,3.713,0,1,0-3.713-3.713A3.8,3.8,0,0,0,45.313,225.825Zm0-5.785a1.986,1.986,0,1,1-1.986,1.986A2.069,2.069,0,0,1,45.313,220.04Z" transform="translate(-37.11 -194.83)"/><path class="e" d="M12.087,288H4.317A4.329,4.329,0,0,0,0,292.317V302.5H2.676v9.67H13.814v-9.584h2.676V292.4A4.422,4.422,0,0,0,12.087,288Zm2.676,12.864H12.087v9.584H4.4v-9.584H1.727V292.4a2.6,2.6,0,0,1,2.59-2.59h7.77a2.6,2.6,0,0,1,2.59,2.59v8.461Z" transform="translate(0 -256.918)"/><path class="d" d="M207.281,264.007V252.093H204v-8.029a.865.865,0,0,1,.863-.863h9.584a.865.865,0,0,1,.863.863v8.029h-3.281v11.828h-4.749Z" transform="translate(-181.984 -216.953)"/><g transform="translate(5.267 29.7)"><rect class="e" width="1.727" height="1.727" transform="translate(38.852 7.598)"/><rect class="e" width="1.727" height="1.727" transform="translate(42.996 7.598)"/><rect class="e" width="1.727" height="1.727" transform="translate(0 7.598)"/><rect class="e" width="1.727" height="1.727" transform="translate(4.144 7.598)"/><rect class="e" width="1.727" height="1.727" transform="translate(19.081)"/><rect class="e" width="1.727" height="1.727" transform="translate(23.916)"/></g></svg>