<svg xmlns="http://www.w3.org/2000/svg" width="49.222" height="49.222" viewBox="0 0 49.222 49.222"><defs><style>.a{fill:#fff;}.b{fill:#fea356;}.c{fill:#082f49;}</style></defs><rect class="a" width="47.684" height="40.147" transform="translate(0.769 8.306)"/><rect class="b" width="41.531" height="33.994" transform="translate(3.845 11.383)"/><g transform="translate(0.769 0.769)"><rect class="a" width="47.684" height="7.537"/><rect class="a" width="32.302" height="8.229" transform="translate(7.691 17.459)"/></g><g transform="translate(4.615 3.769)"><rect class="c" width="1.538" height="1.538"/><rect class="c" width="1.538" height="1.538" transform="translate(4.538)"/><rect class="c" width="1.538" height="1.538" transform="translate(9.075)"/><rect class="c" width="1.538" height="1.538" transform="translate(7.691 17.843)"/><rect class="c" width="1.538" height="1.538" transform="translate(12.229 17.843)"/><rect class="c" width="1.538" height="1.538" transform="translate(16.766 17.843)"/></g><rect class="a" width="14.767" height="11.613" transform="translate(25.611 30.226)"/><path class="c" d="M0,0V49.222H49.222V0ZM47.684,47.684H1.538V9.075H47.684Zm0-40.147H1.538v-6H47.684Z"/><path class="c" d="M98.843,193.6H97.151V206.75h16.3V193.6h-1.692v-2.23h2.077V181.6H80v9.768H98.843Zm13.075,1.538v10.075H98.689V195.136Zm-1.692-3.769v2.23h-9.844v-2.23Zm-9.691-1.538a4.943,4.943,0,0,1,4.768-3.845,4.864,4.864,0,0,1,4.768,3.845Zm-19,0v-6.691H112.3v6.691h-.615a6.476,6.476,0,0,0-12.767,0Z" transform="translate(-72.309 -164.141)"/><path class="c" d="M326.523,348.03v2.461h1.538V348.03a1.749,1.749,0,0,0,.923-1.538,1.692,1.692,0,0,0-3.384,0A1.662,1.662,0,0,0,326.523,348.03Z" transform="translate(-294.298 -311.652)"/></svg>