<svg xmlns="http://www.w3.org/2000/svg" width="59.493" height="59.405" viewBox="0 0 59.493 59.405"><defs><style>.a{fill:#fff;}.b{fill:#193651;}.c{fill:#fc585f;}.d{fill:#fea356;}</style></defs><g transform="translate(0 -0.29)"><g transform="translate(0.922 1.222)"><path class="a" d="M27.4,78.435c0-4.552-4.737-8.163-10.58-8.26-5.843,0-10.677,3.621-10.677,8.173s4.737,8.163,10.58,8.26v4.455l4.64-5.2C24.894,84.463,27.4,81.677,27.4,78.435Z" transform="translate(-6.141 -60.614)"/><path class="a" d="M148.611,14.758c0-4.552-4.737-8.26-10.58-8.26s-10.677,3.621-10.677,8.076c0,4.552,4.737,8.173,10.58,8.26V27.29l4.64-5.2C146.1,20.786,148.514,18,148.611,14.758Z" transform="translate(-109.153 -6.498)"/><path class="a" d="M269.112,67.889c0-4.552-4.737-8.173-10.58-8.26s-10.677,3.621-10.677,8.076c0,4.552,4.737,8.163,10.58,8.26V80.42l4.64-5.2C266.607,73.926,269.112,71.141,269.112,67.889Z" transform="translate(-211.561 -51.65)"/></g><g transform="translate(0 0.29)"><path class="b" d="M55.969,10.968a13.138,13.138,0,0,0-8.076-2.6h-.1A13.342,13.342,0,0,0,41.3,9.949C40.846.106,29.8.291,29.8.291,23.859.291,18.472,3.727,18.2,9.3a10.22,10.22,0,0,0,.369,2.417,15.079,15.079,0,0,0-7.057-1.854C5.193,9.939,0,13.938,0,18.947a8.048,8.048,0,0,0,3.436,6.494,13.336,13.336,0,0,0,7.144,2.6V34.08l6.125-6.872c3.9-1.485,6.494-4.64,6.494-8.076a6.948,6.948,0,0,0-.466-2.417,14.4,14.4,0,0,0,5.941,1.854v6.038L34.8,17.733c.553-.184,1.019-.466,1.485-.65-.553.553.932,9.464,10.58,9.561v6.038L53,25.819c3.9-1.485,6.494-4.64,6.494-8.076A8.493,8.493,0,0,0,55.969,10.968ZM15.589,25.635l-3.155,3.524V26.285a12.579,12.579,0,0,1-7.892-2.223,6.7,6.7,0,0,1-2.689-5.106c0-3.99,4.358-7.144,9.746-7.144s9.658,3.329,9.658,7.319C20.695,24.15,15.589,25.635,15.589,25.635Zm18.1-9.658L30.537,19.5V16.627c-.1.369-6.125-.282-7.892-2.223-1.485-1.67-2.689-3.155-2.689-5.009,0-3.99,4.358-7.144,9.746-7.144S39.361,5.59,39.361,9.58C39.167,12.822,36.944,14.773,33.692,15.977Zm18.19,7.979-3.155,3.533V24.616s-9.746.553-10.58-7.329c.553-5.009,5.29-7.057,9.746-7.144,5.572.1,9.377,3.252,9.658,7.329C57.367,20.151,55.785,22.471,51.883,23.956Z" transform="translate(0 -0.29)"/><rect class="b" width="1.854" height="1.854" transform="translate(43.816 15.589)"/><rect class="b" width="1.854" height="1.854" transform="translate(49.941 15.589)"/><rect class="b" width="1.854" height="1.854" transform="translate(25.713 7.61)"/><rect class="b" width="1.854" height="1.854" transform="translate(31.838 7.61)"/><rect class="b" width="1.854" height="1.854" transform="translate(7.61 17.171)"/><rect class="b" width="1.854" height="1.854" transform="translate(13.735 17.171)"/></g><path class="c" d="M298.01,330.332v-2.417a8.082,8.082,0,0,0-8.076-8.076h0a8.082,8.082,0,0,0-8.076,8.076v2.417Z" transform="translate(-239.537 -271.568)"/><g transform="translate(25.432 35.749)"><circle class="a" cx="4.271" cy="4.271" r="4.271" transform="translate(20.695)"/><circle class="a" cx="4.271" cy="4.271" r="4.271"/></g><path class="d" d="M160.184,330.332v-2.417a8.082,8.082,0,0,0-8.076-8.076h0a8.082,8.082,0,0,0-8.076,8.076v2.417Z" transform="translate(-122.405 -271.568)"/><circle class="a" cx="4.271" cy="4.271" r="4.271" transform="translate(4.737 35.749)"/><path class="c" d="M22.293,330.332v-2.417a8.082,8.082,0,0,0-8.076-8.076h0a8.082,8.082,0,0,0-8.076,8.076v2.417Z" transform="translate(-5.219 -271.568)"/><g transform="translate(0 34.924)"><path class="b" d="M284.66,313.7a9.02,9.02,0,0,0-9.008,9.008v3.339h18.016v-3.339A9.014,9.014,0,0,0,284.66,313.7Zm7.154,10.493h-14.3v-1.485a7.144,7.144,0,0,1,14.288,0v1.485Z" transform="translate(-234.262 -301.273)"/><path class="b" d="M306.235,241.336a5.193,5.193,0,1,0-5.193-5.193A5.187,5.187,0,0,0,306.235,241.336Zm0-8.629a3.339,3.339,0,1,1-3.339,3.339A3.267,3.267,0,0,1,306.235,232.707Z" transform="translate(-255.838 -230.95)"/><path class="b" d="M168.37,241.336a5.193,5.193,0,1,0-5.2-5.193A5.258,5.258,0,0,0,168.37,241.336Zm0-8.629a3.339,3.339,0,1,1-3.339,3.339A3.327,3.327,0,0,1,168.37,232.707Z" transform="translate(-138.667 -230.95)"/><path class="b" d="M146.834,313.7a9.02,9.02,0,0,0-9.008,9.008v3.339h18.006v-3.339A8.944,8.944,0,0,0,146.834,313.7Zm7.144,10.493H139.69v-1.485a7.144,7.144,0,0,1,14.288,0Z" transform="translate(-117.131 -301.273)"/><path class="b" d="M30.544,241.336a5.193,5.193,0,1,0-5.2-5.193A5.252,5.252,0,0,0,30.544,241.336Zm0-8.629a3.339,3.339,0,1,1-3.339,3.339A3.327,3.327,0,0,1,30.544,232.707Z" transform="translate(-21.536 -230.95)"/><path class="b" d="M9.008,313.7A9.014,9.014,0,0,0,0,322.706v3.339H18.006v-3.339A8.951,8.951,0,0,0,9.008,313.7Zm7.144,10.493H1.854v-1.485a7.144,7.144,0,1,1,14.288,0v1.485Z" transform="translate(0 -301.273)"/></g></g></svg>