<svg xmlns="http://www.w3.org/2000/svg" width="62.528" height="62.528" viewBox="0 0 62.528 62.528"><defs><style>.a{fill:#fea356;}.b{fill:#193651;}.c{fill:#fff;}.d{fill:#fc585f;}.e{fill:#e1e6e9;}</style></defs><g transform="translate(-16.29 -32.582)"><rect class="a" width="52.777" height="26.637" transform="translate(21.113 65.428)"/><path class="b" d="M87.405,286.4H30.524a.988.988,0,0,1-1.046-1.046V254.718a.988.988,0,0,1,1.046-1.046H87.3a.988.988,0,0,1,1.046,1.046v30.637A.91.91,0,0,1,87.405,286.4Zm-55.836-2.091H86.255V255.763H31.569Z" transform="translate(-11.41 -191.29)"/><rect class="c" width="48.935" height="22.794" transform="translate(23.16 67.36)"/><path class="b" d="M77.772,483.06H17.336a1.046,1.046,0,1,1,0-2.091H77.772a1.046,1.046,0,1,1,0,2.091Z" transform="translate(0 -387.951)"/><rect class="c" width="60.437" height="4.601" transform="translate(17.336 58.827)"/><path class="b" d="M77.772,226.231H17.336a.988.988,0,0,1-1.046-1.046v-4.6a.988.988,0,0,1,1.046-1.046H77.772a.988.988,0,0,1,1.046,1.046v4.6A.988.988,0,0,1,77.772,226.231ZM18.381,224.14H76.727V221.63H18.381Z" transform="translate(0 -161.758)"/><rect class="d" width="24.545" height="7.502" transform="translate(35.334 49.325)"/><path class="b" d="M164.467,147.8H136.027a.988.988,0,0,1-1.046-1.046v-11.5a.988.988,0,0,1,1.046-1.046h28.545a.988.988,0,0,1,1.046,1.046v11.5A1.14,1.14,0,0,1,164.467,147.8Zm-27.4-2.091h26.454V136.3H137.072Z" transform="translate(-102.693 -87.926)"/><rect class="c" width="20.703" height="3.764" transform="translate(37.208 51.193)"/><path class="d" d="M165.694,49.348c-.169-5.02-5.232-9.008-11.477-9.008s-11.309,3.988-11.478,9.008Z" transform="translate(-106.405 -4.302)"/><path class="b" d="M164.468,48.371H136.028a.949.949,0,0,1-.732-.314,1.129,1.129,0,0,1-.314-.732,15.275,15.275,0,0,1,30.532,0,.949.949,0,0,1-.314.732A.815.815,0,0,1,164.468,48.371Zm-27.4-2.091h26.245a13.054,13.054,0,0,0-13.07-11.606A13.234,13.234,0,0,0,137.073,46.28Z" transform="translate(-102.694)"/><g transform="translate(38.143 37.496)"><path class="c" d="M178.424,75a10.409,10.409,0,0,1,18.821,0Z" transform="translate(-178.424 -69.043)"/><path class="c" d="M394.126,201.12a4.292,4.292,0,0,0-8.574,0Z" transform="translate(-357.634 -179.789)"/></g><path class="b" d="M388.086,195.455h-8.469a.949.949,0,0,1-.732-.314,1.13,1.13,0,0,1-.314-.732,5.337,5.337,0,0,1,10.665,0,.949.949,0,0,1-.314.732A1.188,1.188,0,0,1,388.086,195.455Zm-7.215-2.091h5.96a3.228,3.228,0,0,0-5.96,0Z" transform="translate(-313.451 -135.582)"/><path class="c" d="M55.12,201.12a4.292,4.292,0,0,0-8.574,0Z" transform="translate(-26.178 -142.293)"/><path class="b" d="M49.079,195.455H40.61a.949.949,0,0,1-.732-.314,1.13,1.13,0,0,1-.314-.732,5.337,5.337,0,0,1,10.665,0,.949.949,0,0,1-.314.732A1.188,1.188,0,0,1,49.079,195.455Zm-7.215-2.091h5.96a3.317,3.317,0,0,0-2.928-1.987A3.469,3.469,0,0,0,41.864,193.364Z" transform="translate(-20.137 -135.582)"/><path class="e" d="M101.092,380.121h0a3.3,3.3,0,0,0-3.346,3.346V394.76h6.8V383.572A3.481,3.481,0,0,0,101.092,380.121Z" transform="translate(-70.477 -300.696)"/><path class="b" d="M97.829,389.764h-6.8a.988.988,0,0,1-1.046-1.046V377.531a4.392,4.392,0,1,1,8.783,0v11.188A.91.91,0,0,1,97.829,389.764Zm-5.751-2.091h4.705V377.531a2.3,2.3,0,0,0-4.6,0v10.143Z" transform="translate(-63.764 -294.655)"/><path class="e" d="M352.437,380.121h0a3.3,3.3,0,0,0-3.346,3.346V394.76h6.8V383.572A3.552,3.552,0,0,0,352.437,380.121Z" transform="translate(-287.944 -300.696)"/><path class="b" d="M348.4,389.764h-6.8a.988.988,0,0,1-1.046-1.046V377.531a4.392,4.392,0,1,1,8.783,0v11.188A.865.865,0,0,1,348.4,389.764Zm-5.751-2.091h4.705V377.531a2.3,2.3,0,1,0-4.6,0v10.143Z" transform="translate(-280.56 -294.655)"/><path class="e" d="M214.81,367.241V354.484a6.114,6.114,0,0,0-6.169-6.169h0a6.114,6.114,0,0,0-6.169,6.169v12.756Z" transform="translate(-161.087 -273.177)"/><path class="b" d="M208.1,361.575H195.761a.988.988,0,0,1-1.046-1.046V347.773a7.215,7.215,0,0,1,14.429,0v12.756A.988.988,0,0,1,208.1,361.575Zm-11.293-2.091h10.247V347.773a5.123,5.123,0,0,0-10.247,0Z" transform="translate(-154.376 -266.465)"/><path class="c" d="M231.176,388.206v-8.888a2.3,2.3,0,1,1,4.6,0v8.888Z" transform="translate(-185.922 -298.011)"/><g transform="translate(23.714 51.089)"><path class="b" d="M410.646,174.6a.988.988,0,0,1-1.046-1.046v-2.614a1.046,1.046,0,1,1,2.091,0v2.614A.988.988,0,0,1,410.646,174.6Z" transform="translate(-364.011 -169.89)"/><path class="b" d="M72.415,174.6a.988.988,0,0,1-1.046-1.046v-2.614a1.046,1.046,0,0,1,2.091,0v2.614A1.048,1.048,0,0,1,72.415,174.6Z" transform="translate(-71.369 -169.89)"/><rect class="b" width="2.091" height="2.091" transform="translate(12.443 18.194)"/><rect class="b" width="2.091" height="2.091" transform="translate(28.023 18.194)"/><rect class="b" width="2.091" height="2.091" transform="translate(38.374 18.194)"/><rect class="b" width="2.091" height="2.091" transform="translate(7.215 18.194)"/><rect class="b" width="2.091" height="2.091" transform="translate(22.795 18.194)"/><rect class="b" width="2.091" height="2.091" transform="translate(33.146 18.194)"/><rect class="b" width="2.091" height="2.091" transform="translate(1.987 18.194)"/><rect class="b" width="2.091" height="2.091" transform="translate(17.566 18.194)"/><rect class="b" width="2.091" height="2.091" transform="translate(43.602 18.194)"/></g></g></svg>