<svg xmlns="http://www.w3.org/2000/svg" xmlns:xlink="http://www.w3.org/1999/xlink" width="55.542" height="42.736" viewBox="0 0 55.542 42.736"><defs><style>.a{fill:#fff;}.b{clip-path:url(#a);}.c{fill:#fc585f;}.d{fill:#fea356;}.e{fill:#082f49;}.f{fill:#193651;}</style><clipPath id="a"><rect class="a" width="55.542" height="42.736"/></clipPath></defs><g class="b"><path class="c" d="M63.123,250.149a6.282,6.282,0,0,1,0,1.544c-1.752,10.023-22.11,12.291-26.633.542-4.5,11.727-24.876,9.506-26.631-.542a6.281,6.281,0,0,1,0-1.544A5.79,5.79,0,0,1,14,245.1a4.782,4.782,0,0,0-.667,3.763c.594,2.973,6.823,3.671,10.7-.434a9.821,9.821,0,0,1,5.541-3.254,8.838,8.838,0,0,1,6.9,2.586,8.783,8.783,0,0,1,6.917-2.586,9.8,9.8,0,0,1,5.54,3.254c3.883,4.11,10.11,3.411,10.7.434a4.787,4.787,0,0,0-.667-3.763A5.782,5.782,0,0,1,63.123,250.149Z" transform="translate(-8.747 -218.511)"/><path class="d" d="M304.745,16.864c.819,4.665-2.323,14.164-10.857,14.164a13.37,13.37,0,0,1-9.8-4.866c-2.1-2.583-3.662-6.241-3-9.427.791-3.826,3.426-5.549,7.111-6.261a32.646,32.646,0,0,1,6.066-.5C299.476,9.97,303.841,11.722,304.745,16.864Z" transform="translate(-250.451 -8.888)"/><path class="d" d="M30.535,26.162a13.866,13.866,0,0,1-10.051,4.866c-7.665,0-11.547-8.829-10.612-14.164A7.561,7.561,0,0,1,12.6,12.091c1.763-1.406,4.291-2.121,7.516-2.121a34.734,34.734,0,0,1,6.31.517c3.7.705,6.319,2.413,7.113,6.245C34.2,19.934,32.632,23.588,30.535,26.162Z" transform="translate(-8.68 -8.888)"/><path class="e" d="M455.265,76.3a1.085,1.085,0,1,0-.767-.318,1.085,1.085,0,0,0,.767.318Z" transform="translate(-404.91 -66.088)"/><path class="e" d="M38.895,76.3a1.085,1.085,0,1,0-.767-.318A1.085,1.085,0,0,0,38.895,76.3Z" transform="translate(-33.708 -66.088)"/><path class="f" d="M55.48,241.083a6.837,6.837,0,0,0-4.964-5.966,1.085,1.085,0,0,0-1.144,1.677,3.74,3.74,0,0,1,.512,2.842c-.008.028-.015.056-.021.086-.375,1.878-5.466,2.617-8.853-.971a10.865,10.865,0,0,0-6.218-3.586,9.681,9.681,0,0,0-7.03,2.209,9.69,9.69,0,0,0-7.007-2.209,10.863,10.863,0,0,0-6.222,3.586,7.554,7.554,0,0,1-7.2,2.338c-.44-.126-1.483-.512-1.653-1.366a3.649,3.649,0,0,1,.49-2.929,1.085,1.085,0,0,0-1.143-1.677,6.836,6.836,0,0,0-4.964,5.966c-.66,4.577,3.9,10.306,12.544,11.142,5.846.566,12.07-1.417,15.164-6.474,3.085,5.036,9.274,7.051,15.168,6.473C51.57,251.383,56.142,245.659,55.48,241.083Zm-12.751,8.982c-4.977.485-11.616-1.1-13.946-7.149a1.085,1.085,0,0,0-1.012-.694h0a1.085,1.085,0,0,0-1.012.7c-2.318,6.048-8.958,7.631-13.942,7.148-4.7-.457-9.789-2.935-10.6-7.454a5.157,5.157,0,0,1,1.193-4.043,4.2,4.2,0,0,0,3.327,4.6,9.668,9.668,0,0,0,9.375-2.929,8.807,8.807,0,0,1,4.864-2.918,7.686,7.686,0,0,1,6,2.251,1.085,1.085,0,0,0,1.565.015l.013-.013a7.649,7.649,0,0,1,6.012-2.253,8.793,8.793,0,0,1,4.869,2.918c4.482,4.747,11.73,3.84,12.55-.061a5.948,5.948,0,0,0,.152-1.611,4.723,4.723,0,0,1,1.193,2.763.138.138,0,0,0,.009.059C53.816,244.564,50.286,249.329,42.729,250.066Z" transform="translate(-0.001 -209.584)"/><path class="f" d="M11.862,23.2a15.06,15.06,0,0,0,10.891-5.267,13.815,13.815,0,0,0,3.382-9.112,2.132,2.132,0,0,1,3.33,0,13.8,13.8,0,0,0,3.382,9.112A14.365,14.365,0,0,0,43.494,23.2c9.213,0,12.866-10.077,11.925-15.437-1-5.694-5.777-7.791-11.557-7.791a34.259,34.259,0,0,0-5.948.46.977.977,0,0,0-.127-.009H17.821a1.017,1.017,0,0,0-.182.017A37.174,37.174,0,0,0,11.495-.03C4.359-.03.961,3.333.183,7.761-.828,13.53,3.323,23.2,11.862,23.2ZM27.8,5.847a4.186,4.186,0,0,0-2.134.6,8.146,8.146,0,0,0-2.651-3.863h9.569a8.136,8.136,0,0,0-2.65,3.863,4.189,4.189,0,0,0-2.134-.6ZM53.282,8.136c.725,4.13-2.082,12.893-9.788,12.893a12.291,12.291,0,0,1-8.964-4.467c-1.875-2.3-3.363-5.688-2.784-8.522C32.438,4.7,34.676,3.267,38,2.623a31.7,31.7,0,0,1,5.858-.482C48.536,2.14,52.477,3.55,53.282,8.136Zm-50.963,0c.791-4.5,4.626-6,9.175-6,2.51,0,6.726.243,8.965,1.377a6.088,6.088,0,0,1,3.4,4.52c.583,2.845-.909,6.224-2.78,8.531a12.731,12.731,0,0,1-9.209,4.467c-7.153-.005-10.318-8.494-9.547-12.9Z" transform="translate(-0.03 0.027)"/><path class="e" d="M48.291,112.993a1.085,1.085,0,0,0-.578,1.42,8.353,8.353,0,0,0,4,4.565A1.085,1.085,0,1,0,52.594,117a6.329,6.329,0,0,1-2.883-3.426,1.085,1.085,0,0,0-1.42-.578Z" transform="translate(-42.461 -100.66)"/><path class="e" d="M413.785,118.855a1.086,1.086,0,0,0,.44-.094,8.349,8.349,0,0,0,4-4.565,1.085,1.085,0,1,0-2-.841,6.334,6.334,0,0,1-2.879,3.425,1.085,1.085,0,0,0,.443,2.075Z" transform="translate(-367.93 -100.442)"/></g></svg>