<svg xmlns="http://www.w3.org/2000/svg" width="61.356" height="61.451" viewBox="0 0 61.356 61.451"><defs><style>.a{fill:#fff;}.b{fill:#d3d7da;}.c{fill:#fc585f;}.d{fill:#fea356;}.e{fill:#193651;}</style></defs><g transform="translate(-0.4)"><path class="a" d="M158.7,183.083V182.8a6.81,6.81,0,0,0-12.731-3.35,5.09,5.09,0,0,0-3.159-1.149,4.9,4.9,0,0,0-4.882,4.882v.1a6.2,6.2,0,0,0,2.3,11.965h16.655a6.209,6.209,0,0,0,6.222-6.222A6.061,6.061,0,0,0,158.7,183.083Z" transform="translate(-117.615 -154.942)"/><g transform="translate(1.357 1.053)"><circle class="b" cx="4.786" cy="4.786" r="4.786" transform="translate(49.774)"/><circle class="b" cx="4.786" cy="4.786" r="4.786" transform="translate(49.774 49.774)"/><circle class="b" cx="4.786" cy="4.786" r="4.786"/><circle class="b" cx="4.786" cy="4.786" r="4.786" transform="translate(0 49.774)"/></g><g transform="translate(1.357 1.053)"><path class="c" d="M4.786,0A4.786,4.786,0,1,1,0,4.786,4.786,4.786,0,0,1,4.786,0Z" transform="translate(49.774 24.887)"/><circle class="d" cx="4.786" cy="4.786" r="4.786" transform="translate(24.887 49.774)"/><circle class="d" cx="4.786" cy="4.786" r="4.786" transform="translate(24.887)"/><circle class="c" cx="4.786" cy="4.786" r="4.786" transform="translate(0 24.887)"/></g><g transform="translate(0.4 0)"><path class="e" d="M51.9,34.746a5.732,5.732,0,0,0,4.02,1.723,5.358,5.358,0,0,0,4.02-1.723,5.732,5.732,0,0,0,1.723-4.02,5.686,5.686,0,0,0-9.763-4.02,5.655,5.655,0,0,0-1.627,3.063H45a7.775,7.775,0,0,0-2.967-2.3,7.833,7.833,0,0,0-1.819-4.595L52.662,10.433a5.77,5.77,0,0,0,9.093-4.69,5.743,5.743,0,1,0-10.433,3.35L38.879,21.537a7.868,7.868,0,0,0-4.5-1.436,6.435,6.435,0,0,0-2.3.383v-9a5.712,5.712,0,0,0,4.69-5.647,5.358,5.358,0,0,0-1.723-4.02,5.552,5.552,0,0,0-8.04,0,5.358,5.358,0,0,0-1.723,4.02,5.358,5.358,0,0,0,1.723,4.02,5.655,5.655,0,0,0,3.063,1.627v9.955a9.109,9.109,0,0,0-2.01,1.819,5.847,5.847,0,0,0-2.872-.766,2.951,2.951,0,0,0-.957.1l-13.4-13.4A5.77,5.77,0,0,0,6.143.1a5.743,5.743,0,0,0,0,11.486,5.8,5.8,0,0,0,3.35-1.053L22.32,23.355a5.8,5.8,0,0,0-2.776,4.4,7.222,7.222,0,0,0-2.489,2.01H11.791a5.655,5.655,0,0,0-1.627-3.063,5.358,5.358,0,0,0-4.02-1.723,5.358,5.358,0,0,0-4.02,1.723,5.552,5.552,0,0,0,0,8.04,5.358,5.358,0,0,0,4.02,1.723,5.358,5.358,0,0,0,4.02-1.723,5.655,5.655,0,0,0,1.627-3.063H16a7.038,7.038,0,0,0,3.733,9L9.493,50.922a5.76,5.76,0,1,0,2.393,4.69,5.8,5.8,0,0,0-1.053-3.35L21.841,41.255h8.232v8.71a5.655,5.655,0,0,0-3.063,1.627,5.552,5.552,0,0,0,0,8.04,5.732,5.732,0,0,0,4.02,1.723,5.358,5.358,0,0,0,4.02-1.723,5.732,5.732,0,0,0,1.723-4.02,5.358,5.358,0,0,0-1.723-4.02,5.655,5.655,0,0,0-3.063-1.627v-8.71h8.136l11.1,11.1a5.692,5.692,0,1,0,1.34-1.34L42.325,40.681a7.189,7.189,0,0,0,4.212-6.509,7.643,7.643,0,0,0-.479-2.489H50.27A5.655,5.655,0,0,0,51.9,34.746Zm1.34-6.7a3.78,3.78,0,0,1,2.68-1.149,3.476,3.476,0,0,1,2.68,1.149,3.78,3.78,0,0,1,1.149,2.68,3.476,3.476,0,0,1-1.149,2.68,3.993,3.993,0,0,1-5.456,0,3.76,3.76,0,0,1-1.053-2.68A3.476,3.476,0,0,1,53.237,28.046ZM55.917,2.01a3.829,3.829,0,1,1-3.829,3.829A3.84,3.84,0,0,1,55.917,2.01ZM6.143,9.668A3.829,3.829,0,1,1,9.972,5.839,3.84,3.84,0,0,1,6.143,9.668Zm2.68,23.738a3.993,3.993,0,0,1-5.456,0,3.76,3.76,0,0,1-1.053-2.68,3.476,3.476,0,0,1,1.149-2.68A3.476,3.476,0,0,1,6.143,26.9a3.476,3.476,0,0,1,2.68,1.149,3.7,3.7,0,0,1,0,5.36ZM6.143,59.441a3.829,3.829,0,1,1,3.829-3.829A3.84,3.84,0,0,1,6.143,59.441Zm49.774-7.658a3.829,3.829,0,1,1-3.829,3.829A3.84,3.84,0,0,1,55.917,51.784ZM38.975,21.632v.1c-.1,0-.1-.1-.191-.1ZM28.35,8.519A3.476,3.476,0,0,1,27.2,5.839a3.476,3.476,0,0,1,1.149-2.68,3.7,3.7,0,0,1,5.36,0,3.476,3.476,0,0,1,1.149,2.68,3.476,3.476,0,0,1-1.149,2.68A3.874,3.874,0,0,1,28.35,8.519Zm5.36,44.414a3.78,3.78,0,0,1,1.149,2.68,3.476,3.476,0,0,1-1.149,2.68,3.993,3.993,0,0,1-5.456,0,3.76,3.76,0,0,1-1.053-2.68,3.476,3.476,0,0,1,1.149-2.68,3.78,3.78,0,0,1,2.68-1.149A3.476,3.476,0,0,1,33.71,52.933ZM39.358,39.34H22.7a5.251,5.251,0,0,1-1.914-10.146l.574-.287v-.67a3.942,3.942,0,0,1,3.924-3.924,3.39,3.39,0,0,1,2.489.957l.861.766.574-1.053a5.873,5.873,0,0,1,5.073-2.967,5.8,5.8,0,0,1,5.839,5.839v.957l.766.191A5.27,5.27,0,0,1,39.358,39.34Z" transform="translate(-0.4 0)"/><rect class="e" width="1.914" height="1.914" transform="translate(29.673 31.683)"/><rect class="e" width="1.914" height="1.914" transform="translate(24.025 31.683)"/><rect class="e" width="1.914" height="1.914" transform="translate(35.32 31.683)"/></g></g></svg>